CommissionerLoud-Italic.ufo
<glyph name="numbersign" format="2">
  <advance width="682.7684210526315"/>
  <unicode hex="0023"/>
  <outline>
    <contour>
      <point x="-3.1157894736842104" y="150.1157894736842" type="line"/>
      <point x="59.810526315789474" y="151.66315789473686"/>
      <point x="129.2736842105263" y="153.21052631578948"/>
      <point x="170.56842105263158" y="153.7578947368421" type="curve"/>
      <point x="416.1894736842105" y="153.7578947368421" type="line"/>
      <point x="456.9368421052631" y="153.21052631578948"/>
      <point x="526.4000000000001" y="151.66315789473686"/>
      <point x="588.7789473684211" y="150.1157894736842" type="curve"/>
      <point x="603.2631578947368" y="221.5263157894737" type="line"/>
      <point x="540.6105263157895" y="219.97894736842105"/>
      <point x="470.8736842105263" y="218.43157894736842"/>
      <point x="429.85263157894735" y="217.8842105263158" type="curve"/>
      <point x="184.23157894736843" y="217.8842105263158" type="line"/>
      <point x="143.21052631578948" y="218.43157894736842"/>
      <point x="74.02105263157895" y="219.97894736842105"/>
      <point x="11.368421052631579" y="221.5263157894737" type="curve"/>
    </contour>
    <contour>
      <point x="59.94736842105262" y="0.0" type="curve"/>
      <point x="141.55789473684212" y="0.0" type="line"/>
      <point x="167.64210526315787" y="67.54736842105262"/>
      <point x="190.2736842105263" y="127.46315789473684"/>
      <point x="222.81052631578947" y="211.73684210526315" type="curve"/>
      <point x="317.0736842105263" y="441.37894736842105" type="line"/>
      <point x="355.3473684210526" y="530.021052631579"/>
      <point x="379.5263157894737" y="586.3789473684211"/>
      <point x="410.8" y="658.4736842105264" type="curve"/>
      <point x="330.5578947368421" y="658.4736842105264" type="line"/>
      <point x="303.65263157894736" y="587.7368421052631"/>
      <point x="281.11578947368423" y="529.6526315789474"/>
      <point x="247.12631578947367" y="441.37894736842105" type="curve"/>
      <point x="152.86315789473684" y="211.73684210526315" type="line"/>
      <point x="116.0421052631579" y="127.6421052631579"/>
      <point x="88.94736842105266" y="66.45263157894736"/>
    </contour>
    <contour>
      <point x="113.05263157894736" y="433.94736842105266" type="line"/>
      <point x="175.97894736842107" y="435.4947368421053"/>
      <point x="245.71578947368423" y="437.0421052631579"/>
      <point x="286.7368421052632" y="437.58947368421053" type="curve"/>
      <point x="532.3578947368421" y="437.58947368421053" type="line"/>
      <point x="573.3789473684211" y="437.0421052631579"/>
      <point x="642.5684210526316" y="435.4947368421053"/>
      <point x="704.9473684210527" y="433.94736842105266" type="curve"/>
      <point x="719.7052631578948" y="505.35789473684207" type="line"/>
      <point x="656.7789473684211" y="503.81052631578945"/>
      <point x="587.3157894736843" y="502.2631578947368"/>
      <point x="546.021052631579" y="501.7157894736842" type="curve"/>
      <point x="300.40000000000003" y="501.7157894736842" type="line"/>
      <point x="259.65263157894736" y="502.2631578947368"/>
      <point x="190.18947368421053" y="503.81052631578945"/>
      <point x="127.81052631578947" y="505.35789473684207" type="curve"/>
    </contour>
    <contour>
      <point x="298.1578947368421" y="0.0" type="curve"/>
      <point x="379.7684210526316" y="0.0" type="line"/>
      <point x="405.8526315789474" y="67.54736842105262"/>
      <point x="428.4842105263158" y="127.46315789473684"/>
      <point x="461.0210526315789" y="211.73684210526315" type="curve"/>
      <point x="555.2842105263157" y="441.37894736842105" type="line"/>
      <point x="593.5578947368421" y="530.021052631579"/>
      <point x="617.7368421052631" y="586.3789473684211"/>
      <point x="649.0105263157894" y="658.4736842105264" type="curve"/>
      <point x="568.7684210526317" y="658.4736842105264" type="line"/>
      <point x="541.8631578947369" y="587.7368421052631"/>
      <point x="519.3263157894737" y="529.6526315789474"/>
      <point x="485.33684210526314" y="441.37894736842105" type="curve"/>
      <point x="391.0736842105263" y="211.73684210526315" type="line"/>
      <point x="354.2526315789474" y="127.6421052631579"/>
      <point x="327.1578947368421" y="66.45263157894736"/>
    </contour>
  </outline>
</glyph>
<glyph name="dollar" format="2">
  <advance width="561.8526315789474"/>
  <unicode hex="0024"/>
  <outline>
    <contour>
      <point x="257.6421052631579" y="-10.642105263157895" type="curve" smooth="yes"/>
      <point x="407.9578947368421" y="-10.642105263157895"/>
      <point x="481.69473684210527" y="48.89473684210526"/>
      <point x="504.88421052631577" y="160.8421052631579" type="curve" smooth="yes"/>
      <point x="524.8" y="256.14736842105265"/>
      <point x="486.2526315789474" y="318.4210526315789"/>
      <point x="337.7157894736842" y="379.58947368421053" type="curve" smooth="yes"/>
      <point x="217.21052631578948" y="429.7473684210526"/>
      <point x="177.0421052631579" y="462.821052631579"/>
      <point x="191.4842105263158" y="529.5789473684209" type="curve" smooth="yes"/>
      <point x="207.10526315789474" y="604.778947368421"/>
      <point x="281.41052631578947" y="623.2210526315789"/>
      <point x="353.4631578947368" y="623.2210526315789" type="curve"/>
      <point x="374.0947368421053" y="623.2210526315789"/>
      <point x="459.37894736842105" y="594.6736842105263"/>
      <point x="538.2105263157895" y="562.1263157894737" type="curve"/>
      <point x="564.5263157894736" y="638.1894736842105" type="line"/>
      <point x="504.76842105263154" y="658.2842105263157"/>
      <point x="396.0210526315789" y="697.0947368421052"/>
      <point x="349.90526315789475" y="697.0947368421052" type="curve" smooth="yes"/>
      <point x="211.32631578947368" y="697.0947368421052"/>
      <point x="134.77894736842106" y="641.4526315789474"/>
      <point x="113.58947368421053" y="540.2315789473685" type="curve" smooth="yes"/>
      <point x="89.94736842105263" y="428.9263157894737"/>
      <point x="148.31578947368422" y="376.1894736842105"/>
      <point x="275.37894736842105" y="322.11578947368423" type="curve" smooth="yes"/>
      <point x="378.88421052631577" y="278.13684210526316"/>
      <point x="441.4315789473684" y="240.43157894736842"/>
      <point x="426.7157894736842" y="169.57894736842104" type="curve" smooth="yes"/>
      <point x="408.4631578947368" y="81.4"/>
      <point x="334.52631578947364" y="62.136842105263156"/>
      <point x="259.2842105263158" y="62.13684210526316" type="curve"/>
      <point x="219.49473684210528" y="62.13684210526316"/>
      <point x="136.55789473684212" y="93.23157894736842"/>
      <point x="46.54736842105263" y="132.6842105263158" type="curve"/>
      <point x="21.23157894736842" y="53.705263157894734" type="line"/>
      <point x="106.88421052631578" y="21.16842105263158"/>
      <point x="207.09473684210528" y="-10.642105263157895"/>
    </contour>
    <contour>
      <point x="166.94736842105263" y="-137.0" type="curve"/>
      <point x="241.99999999999997" y="-137.0" type="line"/>
      <point x="269.6315789473684" y="0.4526315789473685"/>
      <point x="299.53684210526313" y="153.7263157894737"/>
      <point x="307.2631578947368" y="192.0" type="curve"/>
      <point x="367.2631578947368" y="474.0" type="line"/>
      <point x="375.81052631578945" y="512.5473684210526"/>
      <point x="410.9052631578947" y="664.5473684210526"/>
      <point x="442.0" y="803.0" type="curve"/>
      <point x="366.9473684210526" y="803.0" type="line"/>
      <point x="339.3157894736842" y="664.5473684210526"/>
      <point x="309.41052631578947" y="512.2736842105263"/>
      <point x="301.6842105263158" y="474.0" type="curve"/>
      <point x="241.68421052631578" y="192.0" type="line"/>
      <point x="233.41052631578947" y="154.2736842105263"/>
      <point x="198.04210526315788" y="0.7263157894736842"/>
    </contour>
  </outline>
</glyph>
<glyph name="ampersand" format="2">
  <advance width="736.2988505747127"/>
  <unicode hex="0026"/>
  <outline>
    <contour>
      <point x="559.919540229885" y="0.0" type="curve"/>
      <point x="670.0689655172415" y="0.0" type="line"/>
      <point x="618.896551724138" y="62.16091954022989"/>
      <point x="570.5172413793105" y="120.93103448275863"/>
      <point x="520.3333333333334" y="181.9080459770115" type="curve"/>
      <point x="340.28735632183907" y="410.1264367816092" type="line" smooth="yes"/>
      <point x="293.6551724137931" y="469.35632183908046"/>
      <point x="278.03448275862064" y="517.9885057471264"/>
      <point x="290.24137931034477" y="574.4252873563219" type="curve" smooth="yes"/>
      <point x="302.85057471264366" y="630.471264367816"/>
      <point x="342.0919540229885" y="659.1264367816092"/>
      <point x="401.35632183908046" y="661.1264367816092" type="curve"/>
      <point x="457.3908045977011" y="658.528735632184"/>
      <point x="496.0114942528736" y="620.0804597701149"/>
      <point x="484.0" y="559.2298850574712" type="curve" smooth="yes"/>
      <point x="473.98850574712645" y="510.57471264367814"/>
      <point x="399.735632183908" y="468.1724137931034"/>
      <point x="324.67816091954023" y="421.7471264367816" type="curve"/>
      <point x="364.7931034482758" y="369.6551724137931" type="line"/>
      <point x="444.41379310344826" y="421.6551724137931"/>
      <point x="546.2183908045977" y="479.2298850574713"/>
      <point x="560.0229885057471" y="548.448275862069" type="curve" smooth="yes"/>
      <point x="580.2183908045977" y="647.2298850574713"/>
      <point x="505.6666666666667" y="726.1954022988506"/>
      <point x="401.7586206896552" y="726.1954022988506" type="curve" smooth="yes"/>
      <point x="309.9885057471264" y="726.1954022988506"/>
      <point x="229.22988505747125" y="677.9770114942529"/>
      <point x="209.63218390804596" y="583.0114942528735" type="curve" smooth="yes"/>
      <point x="192.82758620689654" y="501.1954022988506"/>
      <point x="224.4367816091954" y="432.01149425287355"/>
      <point x="273.65517241379314" y="369.0" type="curve" smooth="yes"/>
      <point x="458.28735632183907" y="136.0" type="line"/>
      <point x="491.7011494252874" y="91.19540229885058"/>
      <point x="527.7126436781609" y="43.195402298850574"/>
    </contour>
    <contour>
      <point x="236.40229885057474" y="-10.195402298850574" type="curve" smooth="yes"/>
      <point x="304.02298850574715" y="-10.195402298850574"/>
      <point x="384.6091954022989" y="51.839080459770116"/>
      <point x="469.85057471264366" y="108.47126436781609" type="curve"/>
      <point x="483.04597701149424" y="108.47126436781609" type="line"/>
      <point x="479.0574712643678" y="125.04597701149424" type="line"/>
      <point x="439.51724137931035" y="172.9310344827586" type="line"/>
      <point x="364.6206896551724" y="117.66666666666667"/>
      <point x="283.2528735632184" y="61.448275862068975"/>
      <point x="245.96551724137933" y="61.448275862068975" type="curve"/>
      <point x="147.68965517241378" y="64.04597701149426"/>
      <point x="105.22988505747125" y="129.10344827586206"/>
      <point x="121.64367816091954" y="207.57471264367817" type="curve" smooth="yes"/>
      <point x="138.45977011494253" y="287.85057471264366"/>
      <point x="200.72413793103448" y="328.87356321839076"/>
      <point x="291.40229885057477" y="361.28735632183907" type="curve"/>
      <point x="261.67816091954023" y="415.7816091954023" type="line"/>
      <point x="161.4712643678161" y="383.18390804597703"/>
      <point x="66.24137931034483" y="328.5977011494253"/>
      <point x="41.4367816091954" y="210.183908045977" type="curve" smooth="yes"/>
      <point x="18.839080459770113" y="102.40229885057471"/>
      <point x="87.62068965517243" y="-10.195402298850574"/>
    </contour>
    <contour>
      <point x="529.9080459770114" y="162.13793103448276" type="line"/>
      <point x="588.896551724138" y="223.55172413793102"/>
      <point x="646.4712643678159" y="282.95402298850576"/>
      <point x="705.0574712643678" y="343.9655172413793" type="curve"/>
      <point x="631.6206896551723" y="395.64367816091954" type="line"/>
      <point x="583.4137931034483" y="334.8390804597701"/>
      <point x="537.2068965517242" y="277.0344827586207"/>
      <point x="486.0" y="212.22988505747128" type="curve"/>
    </contour>
  </outline>
</glyph>
<glyph name="quotesingle" format="2">
  <advance width="201.8842105263158"/>
  <unicode hex="0027"/>
  <outline>
    <contour>
      <point x="98.3157894736842" y="436.7157894736842" type="curve"/>
      <point x="161.7157894736842" y="437.7157894736842" type="line"/>
      <point x="186.9157894736842" y="540.8421052631579"/>
      <point x="216.02105263157895" y="643.1473684210526"/>
      <point x="245.57894736842107" y="744.2736842105263" type="curve"/>
      <point x="144.4105263157895" y="742.1789473684211" type="line"/>
      <point x="131.31578947368422" y="641.8736842105263"/>
      <point x="117.49473684210525" y="540.8421052631579"/>
    </contour>
  </outline>
</glyph>
<glyph name="parenleft" format="2">
  <advance width="385.0736842105263"/>
  <unicode hex="0028"/>
  <outline>
    <contour>
      <point x="205.25263157894736" y="-121.30526315789473" type="curve"/>
      <point x="279.0210526315789" y="-96.62105263157893" type="line"/>
      <point x="203.66315789473688" y="37.94736842105263"/>
      <point x="130.14736842105265" y="180.99999999999997"/>
      <point x="163.05263157894737" y="337.7157894736842" type="curve" smooth="yes"/>
      <point x="195.9578947368421" y="494.7052631578948"/>
      <point x="328.1052631578947" y="620.042105263158"/>
      <point x="453.20000000000005" y="738.6210526315789" type="curve"/>
      <point x="382.25263157894733" y="768.7578947368421" type="line"/>
      <point x="264.2631578947369" y="658.221052631579"/>
      <point x="117.96842105263158" y="526.5052631578947"/>
      <point x="80.32631578947368" y="347.2842105263158" type="curve" smooth="yes"/>
      <point x="42.68421052631579" y="168.7894736842105"/>
      <point x="135.4421052631579" y="6.684210526315788"/>
    </contour>
  </outline>
</glyph>
<glyph name="asterisk" format="2">
  <advance width="473.0526315789474"/>
  <unicode hex="002A"/>
  <outline>
    <contour>
      <point x="436.2736842105263" y="336.9578947368421" type="curve"/>
      <point x="481.25263157894733" y="385.4" type="line"/>
      <point x="423.5157894736842" y="433.7578947368421"/>
      <point x="364.5052631578947" y="482.5684210526316"/>
      <point x="306.76842105263154" y="530.9263157894737" type="curve"/>
      <point x="255.0421052631579" y="587.2947368421053"/>
      <point x="202.13684210526316" y="642.7578947368421"/>
      <point x="150.68421052631578" y="697.6736842105263" type="curve"/>
      <point x="106.43157894736842" y="648.957894736842" type="line"/>
      <point x="163.4421052631579" y="600.3263157894737"/>
      <point x="221.90526315789475" y="551.7894736842105"/>
      <point x="280.18947368421055" y="502.4315789473684" type="curve"/>
      <point x="332.36842105263156" y="447.5157894736842"/>
      <point x="384.82105263157894" y="391.59999999999997"/>
    </contour>
    <contour>
      <point x="90.21052631578947" y="410.7684210526316" type="line"/>
      <point x="159.7578947368421" y="439.9578947368421"/>
      <point x="229.7578947368421" y="469.14736842105265"/>
      <point x="300.0315789473684" y="499.06315789473683" type="curve"/>
      <point x="372.6736842105263" y="520.0526315789474"/>
      <point x="445.58947368421053" y="540.5894736842106"/>
      <point x="518.2315789473685" y="561.578947368421" type="curve"/>
      <point x="496.4736842105263" y="623.8631578947368" type="line"/>
      <point x="427.2" y="594.6736842105263"/>
      <point x="357.2" y="565.4842105263158"/>
      <point x="287.65263157894736" y="536.2947368421053" type="curve"/>
      <point x="214.2842105263158" y="514.3052631578947"/>
      <point x="141.09473684210528" y="494.04210526315785"/>
      <point x="68.45263157894736" y="473.05263157894734" type="curve"/>
    </contour>
    <contour>
      <point x="213.51578947368424" y="302.0" type="curve"/>
      <point x="278.34736842105264" y="287.7052631578947" type="line"/>
      <point x="290.1578947368421" y="363.07368421052627"/>
      <point x="301.42105263157896" y="438.16842105263163"/>
      <point x="312.5052631578948" y="514.2631578947369" type="curve"/>
      <point x="332.9684210526316" y="586.8105263157895"/>
      <point x="352.7052631578947" y="659.3578947368421"/>
      <point x="373.1684210526316" y="732.6315789473684" type="curve"/>
      <point x="308.61052631578946" y="746.6526315789473" type="line"/>
      <point x="296.8" y="671.5578947368421"/>
      <point x="285.5368421052632" y="596.1894736842105"/>
      <point x="274.4526315789474" y="522.2736842105263" type="curve"/>
      <point x="253.98947368421054" y="448.27368421052637"/>
      <point x="233.97894736842107" y="375.2736842105263"/>
    </contour>
  </outline>
</glyph>
<glyph name="plus" format="2">
  <advance width="588.2105263157895"/>
  <unicode hex="002B"/>
  <outline>
    <contour>
      <point x="212.10526315789474" y="59.252631578947366" type="curve"/>
      <point x="296.09473684210525" y="59.252631578947366" type="line"/>
      <point x="308.36842105263156" y="123.3578947368421"/>
      <point x="321.36842105263156" y="191.3684210526316"/>
      <point x="329.1894736842105" y="232.38947368421051" type="curve"/>
      <point x="357.5473684210526" y="365.2736842105263" type="line"/>
      <point x="367.4631578947368" y="406.84210526315786"/>
      <point x="383.55789473684206" y="475.7578947368421"/>
      <point x="398.2" y="538.4105263157895" type="curve"/>
      <point x="314.21052631578954" y="538.4105263157895" type="line"/>
      <point x="302.66315789473686" y="477.0315789473684"/>
      <point x="288.66315789473686" y="405.29473684210524"/>
      <point x="280.8421052631579" y="365.2736842105263" type="curve"/>
      <point x="252.48421052631582" y="232.38947368421051" type="line"/>
      <point x="243.5684210526316" y="192.09473684210528"/>
      <point x="227.47368421052636" y="122.63157894736841"/>
    </contour>
    <contour>
      <point x="64.13684210526314" y="258.2947368421053" type="line"/>
      <point x="127.06315789473683" y="259.8421052631579"/>
      <point x="196.79999999999998" y="261.38947368421054"/>
      <point x="237.82105263157894" y="261.93684210526317" type="curve"/>
      <point x="356.17894736842106" y="261.93684210526317" type="line"/>
      <point x="397.2" y="261.38947368421054"/>
      <point x="466.38947368421054" y="259.8421052631579"/>
      <point x="528.7684210526317" y="258.2947368421053" type="curve"/>
      <point x="545.8947368421053" y="339.36842105263156" type="line"/>
      <point x="483.2421052631579" y="337.82105263157894"/>
      <point x="412.77894736842103" y="336.2736842105263"/>
      <point x="371.7578947368421" y="335.7263157894737" type="curve"/>
      <point x="253.4" y="335.7263157894737" type="line"/>
      <point x="212.37894736842105" y="336.2736842105263"/>
      <point x="143.9157894736842" y="337.82105263157894"/>
      <point x="81.26315789473684" y="339.36842105263156" type="curve"/>
    </contour>
  </outline>
</glyph>
<glyph name="comma" format="2">
  <advance width="230.69473684210524"/>
  <unicode hex="002C"/>
  <outline>
    <contour>
      <point x="-40.410526315789475" y="-157.0" type="curve"/>
      <point x="8.126315789473683" y="-155.7263157894737" type="line"/>
      <point x="50.67368421052634" y="-97.02105263157897"/>
      <point x="128.82105263157897" y="6.91578947368421"/>
      <point x="137.18947368421053" y="49.57894736842105" type="curve" smooth="yes"/>
      <point x="144.37894736842102" y="86.89473684210525"/>
      <point x="134.18947368421053" y="115.11578947368422"/>
      <point x="98.50526315789475" y="122.67368421052632" type="curve"/>
      <point x="48.6" y="119.48421052631579" type="line"/>
      <point x="44.599999999999994" y="87.0"/>
      <point x="41.05263157894736" y="54.51578947368421"/>
      <point x="36.77894736842106" y="23.673684210526318" type="curve"/>
      <point x="13.052631578947366" y="-34.96842105263158"/>
      <point x="-14.231578947368426" y="-98.27368421052631"/>
    </contour>
  </outline>
</glyph>
<glyph name="hyphen" format="2">
  <advance width="422.7368421052632"/>
  <unicode hex="002D"/>
  <outline>
    <contour>
      <point x="63.86315789473684" y="256.92631578947373" type="line"/>
      <point x="118.14736842105263" y="258.47368421052636"/>
      <point x="178.06315789473683" y="260.021052631579"/>
      <point x="213.71578947368423" y="260.5684210526316" type="curve"/>
      <point x="249.3684210526316" y="260.021052631579"/>
      <point x="308.7368421052632" y="258.47368421052636"/>
      <point x="363.021052631579" y="256.92631578947373" type="curve"/>
      <point x="379.87368421052633" y="338.0" type="line"/>
      <point x="325.3157894736842" y="336.4526315789474"/>
      <point x="264.9473684210526" y="334.90526315789475"/>
      <point x="229.02105263157895" y="334.3578947368421" type="curve"/>
      <point x="193.64210526315787" y="334.90526315789475"/>
      <point x="134.7263157894737" y="336.4526315789474"/>
      <point x="80.7157894736842" y="338.0" type="curve"/>
    </contour>
  </outline>
</glyph>
<glyph name="period" format="2">
  <advance width="236.16842105263157"/>
  <unicode hex="002E"/>
  <outline>
    <contour>
      <point x="72.13684210526316" y="-10.91578947368421" type="curve" smooth="yes"/>
      <point x="112.82105263157894" y="-10.91578947368421"/>
      <point x="134.66315789473683" y="7.199999999999999"/>
      <point x="143.57894736842104" y="50.32631578947369" type="curve" smooth="yes"/>
      <point x="150.49473684210528" y="88.90526315789474"/>
      <point x="127.84210526315789" y="118.76842105263158"/>
      <point x="82.42105263157895" y="118.76842105263158" type="curve" smooth="yes"/>
      <point x="39.72631578947369" y="118.76842105263158"/>
      <point x="19.89473684210526" y="101.65263157894736"/>
      <point x="13.252631578947366" y="67.4421052631579" type="curve" smooth="yes"/>
      <point x="4.0631578947368405" y="23.400000000000002"/>
      <point x="26.810526315789478" y="-10.91578947368421"/>
    </contour>
  </outline>
</glyph>
<glyph name="slash" format="2">
  <advance width="450.86315789473684"/>
  <unicode hex="002F"/>
  <outline>
    <contour>
      <point x="-25.76842105263158" y="0.0" type="curve"/>
      <point x="72.80000000000001" y="0.0" type="line"/>
      <point x="117.51578947368422" y="74.0"/>
      <point x="155.23157894736843" y="136.0"/>
      <point x="210.85263157894738" y="228.0" type="curve"/>
      <point x="365.91578947368424" y="474.0" type="line"/>
      <point x="427.2736842105263" y="568.7263157894737"/>
      <point x="469.17894736842106" y="632.7263157894737"/>
      <point x="522.0842105263158" y="713.0" type="curve"/>
      <point x="423.7894736842105" y="713.0" type="line"/>
      <point x="377.34736842105264" y="636.7263157894737"/>
      <point x="338.6315789473685" y="572.0"/>
      <point x="280.2842105263158" y="476.2736842105263" type="curve"/>
      <point x="123.94736842105263" y="228.0" type="line"/>
      <point x="63.58947368421051" y="136.82105263157894"/>
      <point x="22.684210526315788" y="73.82105263157895"/>
    </contour>
  </outline>
</glyph>
<glyph name="two" format="2">
  <advance width="554.4947368421052"/>
  <unicode hex="0032"/>
  <outline>
    <contour>
      <point x="-3.378947368421052" y="0.0" type="line"/>
      <point x="449.33684210526314" y="0.0" type="line"/>
      <point x="467.01052631578943" y="83.0842105263158" type="line"/>
      <point x="391.0315789473684" y="80.4421052631579"/>
      <point x="314.8736842105263" y="77.80000000000001"/>
      <point x="237.07368421052632" y="74.8842105263158" type="curve"/>
      <point x="97.8421052631579" y="74.8842105263158" type="line"/>
      <point x="108.94736842105263" y="53.75789473684211" type="line"/>
      <point x="239.3578947368421" y="147.62105263157895" type="line"/>
      <point x="417.5789473684211" y="275.9263157894737"/>
      <point x="513.1684210526316" y="361.63157894736844"/>
      <point x="537.0736842105264" y="476.6105263157895" type="curve" smooth="yes"/>
      <point x="562.2631578947369" y="598.3684210526316"/>
      <point x="499.3157894736842" y="698.7368421052631"/>
      <point x="349.82105263157894" y="698.7368421052631" type="curve" smooth="yes"/>
      <point x="304.5473684210526" y="698.7368421052631"/>
      <point x="187.55789473684214" y="661.3894736842104"/>
      <point x="127.71578947368421" y="642.6631578947369" type="curve"/>
      <point x="119.59999999999998" y="551.2105263157895" type="line"/>
      <point x="205.93684210526317" y="586.2947368421053"/>
      <point x="310.2315789473684" y="623.4947368421052"/>
      <point x="333.4" y="623.4947368421052" type="curve"/>
      <point x="430.2421052631579" y="621.9473684210526"/>
      <point x="467.58947368421053" y="562.6315789473683"/>
      <point x="449.8736842105263" y="479.7789473684211" type="curve" smooth="yes"/>
      <point x="428.33684210526314" y="376.6421052631579"/>
      <point x="323.17894736842106" y="293.0315789473684"/>
      <point x="154.32631578947368" y="167.7157894736842" type="curve"/>
      <point x="106.70526315789475" y="134.3684210526316"/>
      <point x="58.178947368421056" y="100.56842105263158"/>
      <point x="10.557894736842107" y="67.22105263157896" type="curve"/>
    </contour>
  </outline>
</glyph>
<glyph name="three" format="2">
  <advance width="571.1609195402299"/>
  <unicode hex="0033"/>
  <outline>
    <contour>
      <point x="241.39080459770116" y="-10.793103448275861" type="curve" smooth="yes"/>
      <point x="402.1379310344828" y="-10.793103448275861"/>
      <point x="480.33333333333337" y="50.609195402298845"/>
      <point x="503.52873563218395" y="159.98850574712642" type="curve" smooth="yes"/>
      <point x="526.528735632184" y="270.5977011494253"/>
      <point x="451.1034482758621" y="338.41379310344826"/>
      <point x="390.5057471264368" y="354.60919540229884" type="curve"/>
      <point x="392.1034482758621" y="363.5977011494253" type="line"/>
      <point x="470.11494252873564" y="378.0"/>
      <point x="533.7241379310344" y="418.2183908045977"/>
      <point x="551.7241379310344" y="502.816091954023" type="curve" smooth="yes"/>
      <point x="575.1264367816092" y="612.0114942528736"/>
      <point x="493.1379310344828" y="698.9885057471264"/>
      <point x="358.0" y="698.9885057471264" type="curve" smooth="yes"/>
      <point x="314.40229885057477" y="698.9885057471264"/>
      <point x="200.19540229885058" y="661.1724137931034"/>
      <point x="141.42528735632186" y="642.7701149425287" type="curve"/>
      <point x="133.2528735632184" y="551.9655172413794" type="line"/>
      <point x="217.6781609195402" y="586.5747126436783"/>
      <point x="320.0459770114943" y="623.3563218390805"/>
      <point x="342.45977011494256" y="623.3563218390805" type="curve"/>
      <point x="429.51724137931035" y="621.7586206896552"/>
      <point x="479.1609195402299" y="576.1149425287357"/>
      <point x="462.74712643678157" y="499.04597701149424" type="curve" smooth="yes"/>
      <point x="447.735632183908" y="429.5862068965517"/>
      <point x="386.67816091954023" y="393.5402298850575"/>
      <point x="261.7701149425287" y="392.3448275862069" type="curve"/>
      <point x="241.58620689655174" y="393.5402298850575"/>
      <point x="220.0" y="395.1379310344828"/>
      <point x="201.01149425287358" y="395.7356321839081" type="curve"/>
      <point x="184.44827586206895" y="318.90804597701145" type="line"/>
      <point x="205.82758620689654" y="319.50574712643675"/>
      <point x="228.41379310344826" y="321.10344827586204"/>
      <point x="249.79310344827587" y="321.7011494252873" type="curve"/>
      <point x="375.7011494252874" y="321.10344827586204"/>
      <point x="437.35632183908046" y="262.4367816091954"/>
      <point x="418.5402298850575" y="175.55172413793102" type="curve" smooth="yes"/>
      <point x="403.12643678160924" y="103.48275862068967"/>
      <point x="352.08045977011494" y="65.83908045977012"/>
      <point x="241.98850574712642" y="64.24137931034483" type="curve"/>
      <point x="202.14942528735637" y="64.24137931034483"/>
      <point x="111.0" y="99.42528735632185"/>
      <point x="28.977011494252874" y="135.83908045977012" type="curve"/>
      <point x="3.425287356321838" y="54.02298850574713" type="line"/>
      <point x="82.83908045977012" y="24.804597701149426"/>
      <point x="192.3793103448276" y="-10.793103448275861"/>
    </contour>
  </outline>
</glyph>
<glyph name="four" format="2">
  <advance width="599.7586206896551"/>
  <unicode hex="0034"/>
  <outline>
    <contour>
      <point x="301.2988505747126" y="0.0" type="curve"/>
      <point x="399.65517241379314" y="0.0" type="line"/>
      <point x="411.05747126436785" y="63.39080459770115"/>
      <point x="419.86206896551727" y="114.37931034482759"/>
      <point x="433.264367816092" y="188.9655172413793" type="curve"/>
      <point x="487.4712643678161" y="444.7931034482759" type="line"/>
      <point x="506.6666666666667" y="524.7931034482758"/>
      <point x="525.4597701149424" y="602.390804597701"/>
      <point x="545.655172413793" y="685.7931034482758" type="curve"/>
      <point x="445.2988505747126" y="685.7931034482758" type="line"/>
      <point x="406.28735632183907" y="640.5862068965517"/>
      <point x="366.8735632183908" y="595.5747126436781"/>
      <point x="328.4597701149425" y="550.9655172413793" type="curve"/>
      <point x="213.83908045977012" y="425.7471264367816" type="line"/>
      <point x="156.82758620689654" y="364.93103448275866"/>
      <point x="79.20689655172414" y="282.3103448275862"/>
      <point x="25.195402298850574" y="224.49425287356323" type="curve"/>
      <point x="11.82758620689655" y="158.24137931034483" type="line"/>
      <point x="379.0344827586207" y="158.24137931034483" type="line"/>
      <point x="430.81609195402297" y="157.04597701149424"/>
      <point x="505.98850574712645" y="155.44827586206895"/>
      <point x="553.7701149425287" y="153.85057471264366" type="curve"/>
      <point x="571.5287356321838" y="238.05747126436782" type="line"/>
      <point x="523.1494252873564" y="236.45977011494256"/>
      <point x="446.97701149425285" y="234.26436781609198"/>
      <point x="394.0" y="233.0689655172414" type="curve"/>
      <point x="379.8045977011494" y="233.0689655172414" type="line"/>
      <point x="96.63218390804597" y="233.0689655172414" type="line"/>
      <point x="101.62068965517241" y="211.8850574712644" type="line"/>
      <point x="141.0344827586207" y="256.8965517241379"/>
      <point x="180.64367816091956" y="302.1034482758621"/>
      <point x="220.05747126436782" y="347.11494252873564" type="curve"/>
      <point x="375.2988505747127" y="516.3563218390805" type="line"/>
      <point x="422.3103448275862" y="566.5747126436783"/>
      <point x="469.1264367816092" y="617.1954022988506"/>
      <point x="517.1379310344829" y="668.0114942528735" type="curve"/>
      <point x="442.10344827586204" y="645.0689655172414" type="line"/>
      <point x="428.2988505747126" y="572.4597701149424"/>
      <point x="415.0919540229885" y="503.6551724137931"/>
      <point x="401.88505747126436" y="431.04597701149424" type="curve"/>
      <point x="354.264367816092" y="206.14942528735634" type="line"/>
      <point x="348.2758620689655" y="188.9655172413793" type="line"/>
      <point x="329.88505747126436" y="114.37931034482759"/>
      <point x="317.0919540229885" y="63.98850574712644"/>
    </contour>
  </outline>
</glyph>
<glyph name="seven" format="2">
  <advance width="527.9684210526316"/>
  <unicode hex="0037"/>
  <outline>
    <contour>
      <point x="52.852631578947374" y="0.0" type="curve"/>
      <point x="163.2736842105263" y="0.0" type="line"/>
      <point x="214.5263157894737" y="81.89473684210526"/>
      <point x="264.9578947368421" y="163.96842105263158"/>
      <point x="315.4842105263158" y="244.41052631578947" type="curve"/>
      <point x="407.6421052631579" y="383.29473684210524" type="line"/>
      <point x="462.7157894736842" y="465.4526315789474"/>
      <point x="513.3368421052631" y="540.4315789473685"/>
      <point x="566.2315789473683" y="619.6842105263157" type="curve"/>
      <point x="580.4421052631578" y="685.6421052631579" type="line"/>
      <point x="117.0" y="685.6421052631579" type="line"/>
      <point x="99.32631578947368" y="601.7368421052631" type="line"/>
      <point x="183.40000000000003" y="604.6526315789474"/>
      <point x="267.74736842105267" y="607.8421052631579"/>
      <point x="351.82105263157894" y="610.7578947368421" type="curve"/>
      <point x="492.06315789473683" y="610.7578947368421" type="line"/>
      <point x="469.5578947368421" y="629.7894736842105" type="line"/>
      <point x="436.66315789473686" y="578.8"/>
      <point x="404.94736842105266" y="528.2631578947369"/>
      <point x="373.5052631578947" y="477.2736842105263" type="curve"/>
      <point x="235.6315789473684" y="270.0421052631579" type="line"/>
      <point x="175.46315789473684" y="181.42105263157893"/>
      <point x="114.02105263157895" y="90.34736842105262"/>
    </contour>
  </outline>
</glyph>
<glyph name="less" format="2">
  <advance width="568.2105263157895"/>
  <unicode hex="003C"/>
  <outline>
    <contour>
      <point x="468.58947368421053" y="68.7578947368421" type="curve"/>
      <point x="486.7157894736842" y="152.37894736842105" type="line"/>
      <point x="422.8315789473684" y="180.35789473684213"/>
      <point x="352.6842105263158" y="211.2421052631579"/>
      <point x="287.3473684210526" y="239.94736842105263" type="curve"/>
      <point x="182.03157894736842" y="289.3684210526316" type="line"/>
      <point x="184.30526315789473" y="298.10526315789474" type="line"/>
      <point x="309.5157894736842" y="346.9789473684211" type="line"/>
      <point x="387.1157894736842" y="375.4105263157895"/>
      <point x="470.5263157894737" y="406.2947368421053"/>
      <point x="546.6736842105263" y="434.0" type="curve"/>
      <point x="565.621052631579" y="527.4526315789474" type="line"/>
      <point x="497.14736842105265" y="499.35789473684207"/>
      <point x="432.3157894736842" y="472.81052631578945"/>
      <point x="375.4842105263158" y="449.9894736842105" type="curve"/>
      <point x="268.6736842105263" y="408.2736842105263" type="line"/>
      <point x="213.56842105263158" y="387.82105263157894"/>
      <point x="148.4631578947368" y="363.6421052631579"/>
      <point x="81.53684210526315" y="339.91578947368424" type="curve"/>
      <point x="63.41052631578946" y="256.29473684210524" type="line"/>
      <point x="120.33684210526316" y="232.56842105263158"/>
      <point x="175.7157894736842" y="208.38947368421054"/>
      <point x="221.36842105263156" y="187.93684210526317" type="curve"/>
      <point x="311.2736842105263" y="146.22105263157894" type="line"/>
      <point x="357.8315789473684" y="123.39999999999999"/>
      <point x="412.11578947368423" y="96.12631578947368"/>
    </contour>
  </outline>
</glyph>
<glyph name="equal" format="2">
  <advance width="568.2105263157895"/>
  <unicode hex="003D"/>
  <outline>
    <contour>
      <point x="43.50526315789473" y="146.45263157894735" type="line"/>
      <point x="106.43157894736841" y="148.0"/>
      <point x="176.16842105263157" y="149.54736842105262"/>
      <point x="217.18947368421053" y="150.09473684210525" type="curve"/>
      <point x="310.0736842105263" y="150.09473684210525" type="line"/>
      <point x="351.09473684210525" y="149.54736842105262"/>
      <point x="420.2842105263158" y="148.0"/>
      <point x="482.66315789473686" y="146.45263157894735" type="curve"/>
      <point x="499.7894736842105" y="227.5263157894737" type="line"/>
      <point x="437.13684210526316" y="225.97894736842105"/>
      <point x="366.6736842105263" y="224.43157894736842"/>
      <point x="325.65263157894736" y="223.8842105263158" type="curve"/>
      <point x="232.7684210526316" y="223.8842105263158" type="line"/>
      <point x="191.74736842105264" y="224.43157894736842"/>
      <point x="123.28421052631579" y="225.97894736842105"/>
      <point x="60.631578947368425" y="227.5263157894737" type="curve"/>
    </contour>
    <contour>
      <point x="89.78947368421053" y="370.13684210526316" type="line"/>
      <point x="152.71578947368423" y="371.6842105263158"/>
      <point x="222.45263157894738" y="373.2315789473684"/>
      <point x="263.4736842105263" y="373.77894736842103" type="curve"/>
      <point x="356.35789473684207" y="373.77894736842103" type="line"/>
      <point x="397.378947368421" y="373.2315789473684"/>
      <point x="466.56842105263155" y="371.6842105263158"/>
      <point x="528.9473684210527" y="370.13684210526316" type="curve"/>
      <point x="546.0736842105264" y="451.2105263157895" type="line"/>
      <point x="483.42105263157896" y="449.66315789473686"/>
      <point x="412.9578947368421" y="448.11578947368423"/>
      <point x="371.93684210526317" y="447.5684210526316" type="curve"/>
      <point x="279.0526315789474" y="447.5684210526316" type="line"/>
      <point x="238.03157894736842" y="448.11578947368423"/>
      <point x="169.56842105263158" y="449.66315789473686"/>
      <point x="106.91578947368421" y="451.2105263157895" type="curve"/>
    </contour>
  </outline>
</glyph>
<glyph name="greater" format="2">
  <advance width="568.2105263157895"/>
  <unicode hex="003E"/>
  <outline>
    <contour>
      <point x="23.957894736842107" y="68.7578947368421" type="line"/>
      <point x="92.43157894736841" y="96.85263157894737"/>
      <point x="157.26315789473682" y="123.39999999999999"/>
      <point x="214.09473684210525" y="146.22105263157894" type="curve"/>
      <point x="320.90526315789475" y="187.93684210526317" type="line"/>
      <point x="376.0105263157895" y="208.38947368421054"/>
      <point x="441.11578947368423" y="232.56842105263158"/>
      <point x="508.0421052631579" y="256.29473684210524" type="curve"/>
      <point x="526.1684210526316" y="339.91578947368424" type="line"/>
      <point x="469.2421052631579" y="363.6421052631579"/>
      <point x="413.86315789473684" y="387.82105263157894"/>
      <point x="368.2105263157895" y="408.2736842105263" type="curve"/>
      <point x="278.30526315789473" y="449.9894736842105" type="line"/>
      <point x="231.7473684210526" y="472.81052631578945"/>
      <point x="177.4631578947368" y="500.08421052631576"/>
      <point x="120.98947368421052" y="527.4526315789474" type="curve"/>
      <point x="102.86315789473684" y="443.8315789473684" type="line"/>
      <point x="166.7473684210526" y="415.85263157894735"/>
      <point x="236.89473684210526" y="384.9684210526316"/>
      <point x="302.2315789473684" y="356.2631578947368" type="curve"/>
      <point x="407.5473684210526" y="306.84210526315786" type="line"/>
      <point x="405.2736842105263" y="298.10526315789474" type="line"/>
      <point x="280.06315789473683" y="249.23157894736843" type="line"/>
      <point x="202.46315789473684" y="220.8"/>
      <point x="119.05263157894737" y="189.91578947368424"/>
      <point x="42.905263157894744" y="162.21052631578948" type="curve"/>
    </contour>
  </outline>
</glyph>
<glyph name="at" format="2">
  <advance width="882.3894736842105"/>
  <unicode hex="0040"/>
  <outline>
    <contour>
      <point x="477.47368421052636" y="-131.57894736842104" type="curve" smooth="yes"/>
      <point x="542.021052631579" y="-131.57894736842104"/>
      <point x="668.1999999999999" y="-88.49473684210527"/>
      <point x="760.0210526315789" y="-59.410526315789475" type="curve"/>
      <point x="760.0210526315789" y="5.778947368421054" type="line"/>
      <point x="645.7368421052631" y="-37.589473684210525"/>
      <point x="524.0947368421052" y="-73.94736842105262"/>
      <point x="477.47368421052636" y="-76.22105263157894" type="curve"/>
      <point x="200.32631578947368" y="-72.6736842105263"/>
      <point x="76.15789473684211" y="117.54736842105264"/>
      <point x="122.25263157894737" y="334.36842105263156" type="curve" smooth="yes"/>
      <point x="162.96842105263158" y="526.3052631578947"/>
      <point x="295.7368421052632" y="616.6947368421053"/>
      <point x="472.47368421052636" y="620.2421052631579" type="curve"/>
      <point x="688.1684210526315" y="616.6947368421053"/>
      <point x="809.2421052631579" y="462.93684210526317"/>
      <point x="771.3368421052631" y="258.6736842105263" type="curve" smooth="yes"/>
      <point x="764.7052631578947" y="223.5157894736842"/>
      <point x="679.1157894736842" y="122.28421052631577"/>
      <point x="646.2105263157895" y="118.45263157894736" type="curve"/>
      <point x="596.5052631578948" y="121.72631578947367"/>
      <point x="576.6105263157895" y="148.81052631578947"/>
      <point x="590.978947368421" y="219.2842105263158" type="curve"/>
      <point x="617.1368421052632" y="344.89473684210526" type="line"/>
      <point x="629.3263157894736" y="386.5473684210526"/>
      <point x="643.6947368421052" y="435.9157894736842"/>
      <point x="657.336842105263" y="481.2842105263158" type="curve"/>
      <point x="587.5684210526316" y="476.9157894736842" type="line"/>
      <point x="571.7473684210526" y="422.9263157894737" type="line"/>
      <point x="564.5578947368421" y="422.9263157894737" type="line"/>
      <point x="529.8315789473685" y="454.1157894736842"/>
      <point x="474.1263157894737" y="487.0105263157895"/>
      <point x="434.87368421052633" y="487.0105263157895" type="curve" smooth="yes"/>
      <point x="341.42105263157896" y="487.0105263157895"/>
      <point x="270.9789473684211" y="413.3578947368421"/>
      <point x="248.34736842105264" y="303.8315789473684" type="curve" smooth="yes"/>
      <point x="223.0736842105263" y="182.2736842105263"/>
      <point x="272.3578947368421" y="71.3578947368421"/>
      <point x="389.5263157894737" y="71.3578947368421" type="curve" smooth="yes"/>
      <point x="419.69473684210527" y="71.3578947368421"/>
      <point x="473.0421052631579" y="101.4421052631579"/>
      <point x="518.8631578947368" y="139.52631578947367" type="curve"/>
      <point x="525.778947368421" y="139.52631578947367" type="line"/>
      <point x="537.7052631578947" y="99.89473684210526"/>
      <point x="574.1052631578947" y="61.90526315789474"/>
      <point x="653.2105263157894" y="61.90526315789474" type="curve" smooth="yes"/>
      <point x="691.2210526315789" y="61.90526315789474"/>
      <point x="814.7894736842105" y="177.17894736842103"/>
      <point x="828.1578947368421" y="247.2" type="curve" smooth="yes"/>
      <point x="873.0736842105263" y="481.58947368421053"/>
      <point x="720.778947368421" y="675.6"/>
      <point x="473.74736842105267" y="675.6" type="curve" smooth="yes"/>
      <point x="281.5578947368421" y="675.6"/>
      <point x="111.89473684210527" y="572.9578947368421"/>
      <point x="64.97894736842106" y="345.2105263157895" type="curve" smooth="yes"/>
      <point x="14.147368421052631" y="100.43157894736842"/>
      <point x="163.9894736842105" y="-131.57894736842104"/>
    </contour>
    <contour>
      <point x="407.4842105263158" y="134.47368421052633" type="curve"/>
      <point x="328.37894736842105" y="136.47368421052633"/>
      <point x="298.4947368421053" y="205.5157894736842"/>
      <point x="316.8421052631579" y="292.89473684210526" type="curve" smooth="yes"/>
      <point x="332.5578947368421" y="366.8421052631579"/>
      <point x="376.2526315789474" y="420.0736842105263"/>
      <point x="449.18947368421055" y="422.34736842105264" type="curve"/>
      <point x="480.0736842105264" y="420.8"/>
      <point x="523.3894736842104" y="397.1894736842105"/>
      <point x="553.8105263157894" y="371.57894736842104" type="curve"/>
      <point x="518.1052631578947" y="206.31578947368422" type="line"/>
      <point x="481.5052631578948" y="163.53684210526316"/>
      <point x="434.28421052631586" y="137.29473684210527"/>
    </contour>
  </outline>
</glyph>
<glyph name="A" format="2">
  <advance width="691.2631578947369"/>
  <unicode hex="0041"/>
  <anchor x="293.4947368421053" y="0.0" name="bottom"/>
  <anchor x="615.0210526315789" y="0.0" name="ogonek"/>
  <anchor x="442.94736842105266" y="713.0" name="top"/>
  <outline>
    <contour>
      <point x="-30.852631578947367" y="0.0" type="curve"/>
      <point x="83.11578947368423" y="0.0" type="line"/>
      <point x="127.0842105263158" y="84.15789473684212"/>
      <point x="174.05263157894737" y="173.6842105263158"/>
      <point x="217.29473684210527" y="256.38947368421054" type="curve"/>
      <point x="425.2736842105263" y="631.2947368421053" type="line"/>
      <point x="434.0105263157895" y="631.2947368421053" type="line"/>
      <point x="484.67368421052635" y="255.1157894736842" type="line"/>
      <point x="493.20000000000005" y="174.13684210526316"/>
      <point x="502.9052631578947" y="81.25263157894737"/>
      <point x="511.4315789473684" y="0.0" type="curve"/>
      <point x="616.6631578947369" y="0.0" type="line"/>
      <point x="603.2105263157895" y="74.45263157894736"/>
      <point x="587.4842105263158" y="162.82105263157894"/>
      <point x="573.3052631578947" y="241.6315789473684" type="curve"/>
      <point x="537.3263157894737" y="487.0" type="line"/>
      <point x="528.1578947368421" y="571.5473684210526"/>
      <point x="520.4421052631578" y="640.9052631578948"/>
      <point x="512.7263157894737" y="713.0" type="curve"/>
      <point x="376.1684210526316" y="713.0" type="line"/>
      <point x="336.4526315789474" y="639.0"/>
      <point x="300.4631578947368" y="571.7263157894737"/>
      <point x="255.29473684210527" y="487.7263157894737" type="curve"/>
      <point x="115.86315789473684" y="243.0" type="line"/>
      <point x="69.6842105263158" y="166.7263157894737"/>
      <point x="16.05263157894737" y="77.72631578947369"/>
    </contour>
    <contour>
      <point x="147.43157894736842" y="179.18947368421053" type="line"/>
      <point x="522.7263157894737" y="179.18947368421053" type="line"/>
      <point x="530.9157894736842" y="250.2421052631579" type="line"/>
      <point x="169.57894736842107" y="250.2421052631579" type="line"/>
    </contour>
  </outline>
</glyph>
<glyph name="C" format="2">
  <advance width="684.6315789473684"/>
  <unicode hex="0043"/>
  <anchor x="346.53684210526313" y="0.0" name="bottom"/>
  <anchor x="489.2736842105263" y="713.0" name="top"/>
  <outline>
    <contour>
      <point x="382.3684210526316" y="-10.91578947368421" type="curve" smooth="yes"/>
      <point x="425.0842105263157" y="-10.91578947368421"/>
      <point x="526.378947368421" y="15.16842105263158"/>
      <point x="584.7368421052632" y="35.25263157894737" type="curve"/>
      <point x="596.5894736842105" y="128.8842105263158" type="line"/>
      <point x="524.5052631578947" y="95.80000000000001"/>
      <point x="424.76842105263154" y="67.2421052631579"/>
      <point x="393.9578947368421" y="67.2421052631579" type="curve"/>
      <point x="206.14736842105262" y="70.51578947368421"/>
      <point x="136.55789473684212" y="224.8"/>
      <point x="170.81052631578947" y="386.9789473684211" type="curve" smooth="yes"/>
      <point x="208.61052631578949" y="565.4421052631578"/>
      <point x="327.9157894736842" y="642.7473684210527"/>
      <point x="477.51578947368426" y="646.021052631579" type="curve"/>
      <point x="502.7789473684212" y="646.021052631579"/>
      <point x="602.421052631579" y="617.9263157894737"/>
      <point x="696.8736842105263" y="583.1052631578947" type="curve"/>
      <point x="723.378947368421" y="670.8315789473684" type="line"/>
      <point x="655.8947368421052" y="691.4736842105264"/>
      <point x="531.8947368421053" y="726.0947368421052"/>
      <point x="485.8105263157895" y="726.0947368421052" type="curve" smooth="yes"/>
      <point x="271.4947368421052" y="726.0947368421052"/>
      <point x="124.42105263157895" y="613.0947368421052"/>
      <point x="79.69473684210527" y="400.0947368421053" type="curve" smooth="yes"/>
      <point x="34.6" y="186.3473684210526"/>
      <point x="141.0736842105263" y="-10.91578947368421"/>
    </contour>
  </outline>
</glyph>
<glyph name="D" format="2">
  <advance width="737.9052631578948"/>
  <unicode hex="0044"/>
  <anchor x="299.09473684210525" y="0.0" name="bottom"/>
  <anchor x="392.601" y="357.0" name="center"/>
  <anchor x="449.09473684210525" y="713.0" name="top"/>
  <outline>
    <contour>
      <point x="34.92631578947369" y="0.0" type="curve"/>
      <point x="121.19999999999999" y="0.0"/>
      <point x="191.42105263157896" y="-3.189473684210526"/>
      <point x="288.4526315789473" y="-3.1894736842105265" type="curve"/>
      <point x="557.1157894736842" y="-3.1894736842105265"/>
      <point x="664.4842105263158" y="129.27368421052634"/>
      <point x="706.9368421052632" y="332.4526315789474" type="curve" smooth="yes"/>
      <point x="749.2105263157895" y="536.4631578947368"/>
      <point x="645.1157894736842" y="715.6421052631579"/>
      <point x="412.04210526315785" y="715.6421052631579" type="curve"/>
      <point x="335.2631578947368" y="715.6421052631579"/>
      <point x="264.8315789473684" y="713.0"/>
      <point x="184.92631578947368" y="713.0" type="curve"/>
      <point x="170.56842105263158" y="634.5473684210526"/>
      <point x="158.21052631578948" y="565.0105263157894"/>
      <point x="141.57894736842107" y="473.2736842105263" type="curve"/>
      <point x="91.03157894736842" y="235.53684210526316" type="line"/>
      <point x="69.84210526315789" y="147.16842105263157"/>
      <point x="54.02105263157895" y="80.53684210526316"/>
    </contour>
    <contour>
      <point x="151.0" y="75.33684210526316" type="line"/>
      <point x="161.53684210526316" y="131.8421052631579"/>
      <point x="172.62105263157895" y="186.6315789473684"/>
      <point x="185.43157894736842" y="253.6" type="curve"/>
      <point x="228.58947368421053" y="458.0315789473684" type="line"/>
      <point x="244.22105263157894" y="525.8210526315789"/>
      <point x="256.57894736842104" y="579.7894736842105"/>
      <point x="269.9368421052632" y="637.6631578947369" type="curve"/>
      <point x="390.3578947368421" y="637.6631578947369" type="line"/>
      <point x="583.6736842105262" y="633.8421052631579"/>
      <point x="648.5263157894736" y="500.20000000000005"/>
      <point x="614.7263157894737" y="343.0105263157895" type="curve" smooth="yes"/>
      <point x="580.4736842105264" y="179.6526315789474"/>
      <point x="507.7052631578947" y="79.43157894736842"/>
      <point x="295.4736842105263" y="75.33684210526316" type="curve"/>
    </contour>
  </outline>
</glyph>
<glyph name="E" format="2">
  <advance width="594.5862068965517"/>
  <unicode hex="0045"/>
  <anchor x="263.2183908045977" y="0.0" name="bottom"/>
  <anchor x="484.36781609195407" y="0.0" name="ogonek"/>
  <anchor x="413.2183908045977" y="713.0" name="top"/>
  <anchor x="135.0" y="713.0" name="topleft"/>
  <outline>
    <contour>
      <point x="35.080459770114935" y="0.0" type="curve"/>
      <point x="137.82758620689654" y="0.0" type="line"/>
      <point x="141.2183908045977" y="13.563218390804598" type="line"/>
      <point x="155.42528735632183" y="92.17241379310344"/>
      <point x="167.22988505747128" y="161.17241379310346"/>
      <point x="183.4367816091954" y="249.17241379310346" type="curve"/>
      <point x="228.2528735632184" y="461.8390804597701" type="line"/>
      <point x="249.64367816091954" y="551.6321839080459"/>
      <point x="266.2413793103448" y="620.0344827586207"/>
      <point x="285.43678160919535" y="699.8390804597701" type="curve"/>
      <point x="287.8275862068965" y="713.0" type="line"/>
      <point x="185.08045977011494" y="713.0" type="line"/>
      <point x="170.2758620689655" y="634.5977011494253"/>
      <point x="158.06896551724137" y="564.9885057471264"/>
      <point x="141.86206896551724" y="473.0" type="curve"/>
      <point x="91.26436781609195" y="235.60919540229884" type="line"/>
      <point x="69.87356321839081" y="147.41379310344828"/>
      <point x="54.27586206896551" y="80.60919540229885"/>
    </contour>
    <contour>
      <point x="119.26436781609198" y="0.0" type="line"/>
      <point x="485.5632183908046" y="0.0" type="line"/>
      <point x="503.91954022988506" y="85.80459770114942" type="line"/>
      <point x="431.7011494252874" y="83.60919540229885"/>
      <point x="353.88505747126436" y="80.41379310344827"/>
      <point x="266.86206896551727" y="77.62068965517241" type="curve"/>
      <point x="135.82758620689657" y="77.62068965517241" type="line"/>
    </contour>
    <contour>
      <point x="178.51724137931035" y="323.6896551724138" type="line"/>
      <point x="316.5402298850575" y="323.6896551724138" type="line"/>
      <point x="406.3563218390805" y="322.4942528735632"/>
      <point x="466.96551724137936" y="320.8965517241379"/>
      <point x="532.3793103448276" y="320.2988505747126" type="curve"/>
      <point x="550.1379310344827" y="404.3103448275862" type="line"/>
      <point x="487.52873563218395" y="402.71264367816093"/>
      <point x="424.9195402298851" y="401.11494252873564"/>
      <point x="333.5057471264368" y="398.91954022988506" type="curve"/>
      <point x="194.48275862068965" y="398.91954022988506" type="line"/>
    </contour>
    <contour>
      <point x="247.91954022988506" y="635.3793103448276" type="line"/>
      <point x="376.14942528735634" y="635.3793103448276" type="line"/>
      <point x="478.3793103448276" y="632.5862068965516"/>
      <point x="549.5977011494252" y="629.3908045977012"/>
      <point x="617.0114942528736" y="627.1954022988506" type="curve"/>
      <point x="634.7701149425287" y="713.0" type="line"/>
      <point x="264.48275862068965" y="713.0" type="line"/>
    </contour>
  </outline>
</glyph>
<glyph name="F" format="2">
  <advance width="575.1052631578947"/>
  <unicode hex="0046"/>
  <outline>
    <contour>
      <point x="34.92631578947369" y="0.0" type="curve"/>
      <point x="137.8842105263158" y="0.0" type="line"/>
      <point x="152.2421052631579" y="79.08421052631579"/>
      <point x="163.6" y="145.26315789473685"/>
      <point x="179.95789473684212" y="235.53684210526316" type="curve"/>
      <point x="228.0421052631579" y="461.6" type="line"/>
      <point x="249.23157894736843" y="551.5157894736842"/>
      <point x="266.59999999999997" y="619.9684210526316"/>
      <point x="285.6947368421052" y="699.8736842105263" type="curve"/>
      <point x="287.88421052631577" y="713.0" type="line"/>
      <point x="184.92631578947368" y="713.0" type="line"/>
      <point x="170.56842105263158" y="634.5473684210526"/>
      <point x="158.21052631578948" y="565.0105263157894"/>
      <point x="141.57894736842107" y="473.2736842105263" type="curve"/>
      <point x="91.03157894736842" y="235.53684210526316" type="line"/>
      <point x="69.84210526315789" y="147.16842105263157"/>
      <point x="54.02105263157895" y="80.53684210526316"/>
    </contour>
    <contour>
      <point x="176.1578947368421" y="319.0842105263158" type="line"/>
      <point x="306.87368421052633" y="319.0842105263158" type="line"/>
      <point x="396.4947368421053" y="317.71578947368425"/>
      <point x="456.7578947368421" y="316.16842105263163"/>
      <point x="522.4736842105264" y="315.34736842105264" type="curve"/>
      <point x="540.1473684210526" y="399.8842105263158" type="line"/>
      <point x="477.61052631578946" y="398.33684210526314"/>
      <point x="415.34736842105264" y="396.5157894736842"/>
      <point x="323.63157894736844" y="394.42105263157896" type="curve"/>
      <point x="192.18947368421053" y="394.42105263157896" type="line"/>
    </contour>
    <contour>
      <point x="246.70526315789473" y="635.2" type="line"/>
      <point x="367.5052631578947" y="635.2" type="line"/>
      <point x="470.38947368421054" y="632.2842105263159"/>
      <point x="541.1894736842106" y="629.4631578947369"/>
      <point x="608.3578947368421" y="627.3684210526317" type="curve"/>
      <point x="626.0315789473684" y="713.0" type="line"/>
      <point x="263.28421052631575" y="713.0" type="line"/>
    </contour>
  </outline>
</glyph>
<glyph name="G" format="2">
  <advance width="732.8947368421053"/>
  <unicode hex="0047"/>
  <anchor x="346.53684210526313" y="0.0" name="bottom"/>
  <anchor x="496.53684210526313" y="713.0" name="top"/>
  <outline>
    <contour>
      <point x="399.64210526315793" y="-10.642105263157895" type="curve" smooth="yes"/>
      <point x="451.5578947368421" y="-10.642105263157895"/>
      <point x="556.6526315789474" y="12.442105263157895"/>
      <point x="622.5684210526316" y="29.705263157894738" type="curve"/>
      <point x="622.4842105263158" y="117.69473684210527" type="line"/>
      <point x="545.2105263157895" y="89.8842105263158"/>
      <point x="437.6526315789473" y="65.87368421052632"/>
      <point x="404.74736842105267" y="65.87368421052632" type="curve"/>
      <point x="200.8842105263158" y="69.14736842105263"/>
      <point x="135.46315789473687" y="223.15789473684208"/>
      <point x="170.26315789473685" y="387.5263157894737" type="curve" smooth="yes"/>
      <point x="209.06315789473686" y="569.7157894736841"/>
      <point x="330.8421052631579" y="643.021052631579"/>
      <point x="478.80000000000007" y="646.021052631579" type="curve"/>
      <point x="505.7894736842105" y="646.021052631579"/>
      <point x="611.4315789473684" y="614.2947368421053"/>
      <point x="711.4315789473684" y="574.1157894736841" type="curve"/>
      <point x="737.9368421052632" y="661.8421052631578" type="line"/>
      <point x="664.2631578947368" y="685.3894736842104"/>
      <point x="529.3473684210526" y="726.0947368421052"/>
      <point x="479.7157894736842" y="726.0947368421052" type="curve" smooth="yes"/>
      <point x="268.14736842105265" y="726.0947368421052"/>
      <point x="124.96842105263158" y="613.8315789473684"/>
      <point x="79.69473684210527" y="400.0947368421053" type="curve" smooth="yes"/>
      <point x="34.42105263157895" y="185.90526315789475"/>
      <point x="135.06315789473683" y="-10.642105263157895"/>
    </contour>
    <contour>
      <point x="528.2736842105263" y="29.705263157894738" type="curve"/>
      <point x="622.5684210526316" y="29.705263157894738" type="line"/>
      <point x="635.2947368421053" y="98.44210526315788"/>
      <point x="644.021052631579" y="149.17894736842106"/>
      <point x="654.021052631579" y="201.9157894736842" type="curve"/>
      <point x="669.9368421052632" y="264.10526315789474"/>
      <point x="681.8526315789474" y="308.29473684210524"/>
      <point x="694.4947368421053" y="357.7578947368421" type="curve"/>
      <point x="593.0947368421051" y="357.7578947368421" type="line"/>
      <point x="585.1894736842105" y="308.29473684210524"/>
      <point x="578.0105263157894" y="264.10526315789474"/>
      <point x="568.1052631578947" y="201.9157894736842" type="curve"/>
      <point x="555.7368421052631" y="149.17894736842106"/>
      <point x="543.6421052631579" y="96.53684210526316"/>
    </contour>
  </outline>
</glyph>
<glyph name="I" format="2">
  <advance width="283.10526315789474"/>
  <unicode hex="0049"/>
  <anchor x="87.6842105263158" y="0.0" name="bottom"/>
  <anchor x="140.89473684210526" y="0.0" name="ogonek"/>
  <anchor x="237.6842105263158" y="713.0" name="top"/>
  <anchor x="133.0842105263158" y="713.0" name="topleft"/>
  <outline>
    <contour>
      <point x="36.294736842105266" y="0.0" type="curve"/>
      <point x="142.26315789473685" y="0.0" type="line"/>
      <point x="156.34736842105264" y="78.53684210526315"/>
      <point x="167.97894736842105" y="144.71578947368423"/>
      <point x="184.33684210526317" y="235.53684210526316" type="curve"/>
      <point x="234.8842105263158" y="473.2736842105263" type="line"/>
      <point x="257.0736842105263" y="565.4631578947368"/>
      <point x="273.1684210526316" y="633.0947368421052"/>
      <point x="292.2631578947368" y="713.0" type="curve"/>
      <point x="186.29473684210524" y="713.0" type="line"/>
      <point x="171.93684210526314" y="634.5473684210526"/>
      <point x="159.57894736842104" y="565.0105263157894"/>
      <point x="142.94736842105263" y="473.2736842105263" type="curve"/>
      <point x="92.39999999999999" y="235.53684210526316" type="line"/>
      <point x="71.21052631578947" y="147.16842105263157"/>
      <point x="55.38947368421052" y="80.53684210526316"/>
    </contour>
  </outline>
</glyph>
<glyph name="J" format="2">
  <advance width="294.53684210526313"/>
  <unicode hex="004A"/>
  <anchor x="99.48421052631579" y="0.0" name="bottom"/>
  <anchor x="249.4842105263158" y="713.0" name="top"/>
  <outline>
    <contour>
      <point x="-64.84210526315789" y="-157.81052631578947" type="curve"/>
      <point x="28.147368421052633" y="-157.81052631578947" type="line"/>
      <point x="66.24210526315791" y="-107.17894736842105"/>
      <point x="154.0526315789474" y="14.621052631578946"/>
      <point x="160.6105263157895" y="47.0421052631579" type="curve" smooth="yes"/>
      <point x="178.1578947368421" y="127.8736842105263"/>
      <point x="190.69473684210527" y="211.8"/>
      <point x="208.78947368421055" y="297.2736842105263" type="curve"/>
      <point x="246.31578947368422" y="473.2736842105263" type="line"/>
      <point x="268.5052631578948" y="565.4631578947368"/>
      <point x="284.59999999999997" y="633.0947368421052"/>
      <point x="303.69473684210527" y="713.0" type="curve"/>
      <point x="199.09473684210525" y="713.0" type="line"/>
      <point x="184.73684210526312" y="634.5473684210526"/>
      <point x="172.37894736842102" y="565.0105263157894"/>
      <point x="155.7473684210526" y="473.2736842105263" type="curve"/>
      <point x="113.13684210526316" y="273.30526315789473" type="line"/>
      <point x="61.4842105263158" y="45.41052631578947" type="line"/>
      <point x="12.231578947368433" y="-32.95789473684211"/>
      <point x="-24.85263157894737" y="-93.70526315789473"/>
    </contour>
  </outline>
</glyph>
<glyph name="K" format="2">
  <advance width="672.2631578947369"/>
  <unicode hex="004B"/>
  <anchor x="291.76842105263154" y="0.0" name="bottom"/>
  <anchor x="441.76842105263154" y="713.0" name="top"/>
  <outline>
    <contour>
      <point x="476.3263157894737" y="0.0" type="curve"/>
      <point x="598.7578947368422" y="0.0" type="line"/>
      <point x="550.3263157894736" y="61.463157894736845"/>
      <point x="473.4526315789473" y="159.1157894736842"/>
      <point x="416.3894736842105" y="231.57894736842104" type="curve"/>
      <point x="297.0" y="390.9684210526316" type="line"/>
      <point x="297.90526315789475" y="348.33684210526314" type="line"/>
      <point x="460.57894736842104" y="488.89473684210526" type="line"/>
      <point x="548.1894736842105" y="561.8105263157895"/>
      <point x="636.2526315789473" y="634.9052631578948"/>
      <point x="730.4947368421053" y="713.0" type="curve"/>
      <point x="597.1473684210526" y="713.0" type="line"/>
      <point x="513.6736842105263" y="639.021052631579"/>
      <point x="456.8105263157895" y="587.0315789473684"/>
      <point x="392.1368421052631" y="528.8631578947368" type="curve"/>
      <point x="248.51578947368424" y="405.9894736842105" type="line"/>
      <point x="207.33684210526317" y="405.9894736842105" type="line"/>
      <point x="191.57894736842107" y="331.7473684210526" type="line"/>
      <point x="233.1263157894737" y="331.7473684210526" type="line"/>
      <point x="343.4736842105263" y="185.05263157894737" type="line"/>
      <point x="383.88421052631577" y="128.33684210526314"/>
      <point x="426.19999999999993" y="69.89473684210526"/>
    </contour>
    <contour>
      <point x="34.92631578947369" y="0.0" type="curve"/>
      <point x="139.2526315789474" y="0.0" type="line"/>
      <point x="153.33684210526317" y="78.53684210526315"/>
      <point x="164.96842105263158" y="144.71578947368423"/>
      <point x="181.3263157894737" y="235.53684210526316" type="curve"/>
      <point x="231.87368421052633" y="473.2736842105263" type="line"/>
      <point x="254.06315789473686" y="565.4631578947368"/>
      <point x="270.15789473684214" y="633.0947368421052"/>
      <point x="289.2526315789474" y="713.0" type="curve"/>
      <point x="184.92631578947368" y="713.0" type="line"/>
      <point x="170.56842105263158" y="634.5473684210526"/>
      <point x="158.21052631578948" y="565.0105263157894"/>
      <point x="141.57894736842107" y="473.2736842105263" type="curve"/>
      <point x="91.03157894736842" y="235.53684210526316" type="line"/>
      <point x="69.84210526315789" y="147.16842105263157"/>
      <point x="54.02105263157895" y="80.53684210526316"/>
    </contour>
  </outline>
</glyph>
<glyph name="L" format="2">
  <advance width="569.5578947368422"/>
  <unicode hex="004C"/>
  <anchor x="260.9789473684211" y="0.0" name="bottom"/>
  <anchor x="446.7684210526316" y="357.82105263157894" name="center"/>
  <anchor x="300.2526315789474" y="713.0" name="top"/>
  <anchor x="336.14736842105265" y="496.18947368421055" name="topright"/>
  <outline>
    <contour>
      <point x="34.92631578947369" y="0.0" type="curve"/>
      <point x="139.5263157894737" y="0.0" type="line"/>
      <point x="142.71578947368423" y="13.852631578947369" type="line"/>
      <point x="154.8842105263158" y="92.93684210526315"/>
      <point x="166.5157894736842" y="160.56842105263158"/>
      <point x="184.78947368421055" y="249.38947368421051" type="curve"/>
      <point x="232.14736842105265" y="473.2736842105263" type="line"/>
      <point x="254.33684210526317" y="565.4631578947368"/>
      <point x="270.43157894736845" y="633.0947368421052"/>
      <point x="289.5263157894737" y="713.0" type="curve"/>
      <point x="184.92631578947368" y="713.0" type="line"/>
      <point x="170.56842105263158" y="634.5473684210526"/>
      <point x="158.21052631578948" y="565.0105263157894"/>
      <point x="141.57894736842107" y="473.2736842105263" type="curve"/>
      <point x="91.03157894736842" y="235.53684210526316" type="line"/>
      <point x="69.84210526315789" y="147.16842105263157"/>
      <point x="54.02105263157895" y="80.53684210526316"/>
    </contour>
    <contour>
      <point x="119.03157894736842" y="0.0" type="line"/>
      <point x="483.11578947368423" y="0.0" type="line"/>
      <point x="501.88421052631577" y="90.28421052631579" type="line"/>
      <point x="423.08421052631576" y="87.36842105263159"/>
      <point x="356.7368421052631" y="85.0"/>
      <point x="242.22105263157897" y="80.53684210526316" type="curve"/>
      <point x="136.43157894736845" y="80.53684210526316" type="line"/>
    </contour>
  </outline>
</glyph>
<glyph name="M" format="2">
  <advance width="956.4736842105264"/>
  <unicode hex="004D"/>
  <anchor x="425.46315789473687" y="0.0" name="bottom"/>
  <anchor x="575.4631578947368" y="713.0" name="top"/>
  <outline>
    <contour>
      <point x="7.0315789473684225" y="0.0" type="curve"/>
      <point x="108.97894736842105" y="0.0" type="line"/>
      <point x="146.67368421052632" y="122.74736842105263"/>
      <point x="182.9157894736842" y="240.49473684210528"/>
      <point x="213.52631578947367" y="339.89473684210526" type="curve"/>
      <point x="283.57894736842104" y="553.1368421052632" type="line"/>
      <point x="290.1368421052632" y="553.1368421052632" type="line"/>
      <point x="335.6421052631579" y="321.7263157894737" type="line"/>
      <point x="353.8" y="213.78947368421052"/>
      <point x="373.86315789473684" y="92.13684210526316"/>
      <point x="389.11578947368423" y="0.0" type="curve"/>
      <point x="465.5473684210527" y="0.0" type="line"/>
      <point x="521.6842105263158" y="95.49473684210525"/>
      <point x="589.7157894736841" y="211.78947368421052"/>
      <point x="655.1157894736842" y="323.17894736842106" type="curve"/>
      <point x="793.7368421052631" y="553.1368421052632" type="line"/>
      <point x="800.2947368421053" y="553.1368421052632" type="line"/>
      <point x="781.3052631578947" y="339.89473684210526" type="line"/>
      <point x="769.0315789473684" y="239.31578947368422"/>
      <point x="755.7578947368422" y="125.92631578947369"/>
      <point x="740.7578947368421" y="0.0" type="curve"/>
      <point x="844.1684210526316" y="0.0" type="line"/>
      <point x="849.2526315789473" y="78.81052631578947"/>
      <point x="853.6105263157895" y="149.26315789473685"/>
      <point x="858.6947368421053" y="235.53684210526316" type="curve"/>
      <point x="879.8736842105263" y="472.7263157894737" type="line"/>
      <point x="889.9684210526316" y="560.1789473684211"/>
      <point x="898.0631578947368" y="632.0947368421052"/>
      <point x="906.8842105263159" y="713.0" type="curve"/>
      <point x="799.1052631578948" y="713.0" type="line"/>
      <point x="738.6947368421053" y="610.2315789473685"/>
      <point x="685.0105263157895" y="518.2842105263159"/>
      <point x="628.6" y="422.33684210526314" type="curve"/>
      <point x="457.9894736842105" y="143.1263157894737" type="line"/>
      <point x="450.978947368421" y="143.1263157894737" type="line"/>
      <point x="397.29473684210524" y="422.33684210526314" type="line"/>
      <point x="381.4947368421052" y="517.5578947368422"/>
      <point x="365.9684210526315" y="611.0526315789474"/>
      <point x="349.4421052631578" y="713.0" type="curve"/>
      <point x="244.85263157894738" y="713.0" type="line"/>
      <point x="220.22105263157894" y="632.0947368421052"/>
      <point x="197.76842105263157" y="558.0"/>
      <point x="171.86315789473684" y="472.7263157894737" type="curve"/>
      <point x="93.0421052631579" y="235.53684210526316" type="line"/>
      <point x="61.67368421052632" y="149.0842105263158"/>
      <point x="35.30526315789474" y="78.26315789473684"/>
    </contour>
  </outline>
</glyph>
<glyph name="N" format="2">
  <advance width="759.6315789473684"/>
  <unicode hex="004E"/>
  <anchor x="326.7263157894737" y="0.0" name="bottom"/>
  <anchor x="476.7263157894737" y="713.0" name="top"/>
  <outline>
    <contour>
      <point x="34.92631578947369" y="0.0" type="curve"/>
      <point x="134.87368421052633" y="0.0" type="line"/>
      <point x="148.95789473684212" y="78.53684210526315"/>
      <point x="160.58947368421053" y="144.71578947368423"/>
      <point x="176.94736842105266" y="235.53684210526316" type="curve"/>
      <point x="247.06315789473683" y="568.7684210526315" type="line"/>
      <point x="254.34736842105264" y="568.7684210526315" type="line"/>
      <point x="362.72631578947363" y="345.2631578947369" type="line"/>
      <point x="424.6736842105263" y="211.97894736842107"/>
      <point x="475.35789473684207" y="102.3157894736842"/>
      <point x="521.9578947368421" y="0.0" type="curve"/>
      <point x="617.9789473684211" y="0.0" type="line"/>
      <point x="632.0631578947368" y="78.53684210526315"/>
      <point x="643.6947368421053" y="144.71578947368423"/>
      <point x="660.0526315789474" y="235.53684210526316" type="curve"/>
      <point x="710.6" y="473.2736842105263" type="line"/>
      <point x="732.7894736842105" y="565.4631578947368"/>
      <point x="748.8842105263158" y="633.0947368421052"/>
      <point x="767.9789473684211" y="713.0" type="curve"/>
      <point x="668.0315789473684" y="713.0" type="line"/>
      <point x="653.6736842105263" y="634.5473684210526"/>
      <point x="641.3157894736842" y="565.0105263157894"/>
      <point x="624.6842105263157" y="473.2736842105263" type="curve"/>
      <point x="555.1157894736841" y="147.13684210526316" type="line"/>
      <point x="547.5578947368421" y="147.13684210526316" type="line"/>
      <point x="440.7263157894737" y="368.9157894736842" type="line"/>
      <point x="390.86315789473684" y="477.7578947368421"/>
      <point x="339.7263157894737" y="589.6947368421053"/>
      <point x="283.86315789473684" y="713.0" type="curve"/>
      <point x="184.92631578947368" y="713.0" type="line"/>
      <point x="170.56842105263158" y="634.5473684210526"/>
      <point x="158.21052631578948" y="565.0105263157894"/>
      <point x="141.57894736842107" y="473.2736842105263" type="curve"/>
      <point x="91.03157894736842" y="235.53684210526316" type="line"/>
      <point x="69.84210526315789" y="147.16842105263157"/>
      <point x="54.02105263157895" y="80.53684210526316"/>
    </contour>
  </outline>
</glyph>
<glyph name="P" format="2">
  <advance width="628.528735632184"/>
  <unicode hex="0050"/>
  <outline>
    <contour>
      <point x="351.11494252873564" y="282.5057471264368" type="curve"/>
      <point x="547.1494252873563" y="282.5057471264368"/>
      <point x="611.1149425287356" y="356.2988505747126"/>
      <point x="638.3103448275862" y="487.2643678160919" type="curve" smooth="yes"/>
      <point x="667.8965517241379" y="629.3908045977012"/>
      <point x="594.3218390804598" y="715.7931034482758"/>
      <point x="431.95402298850576" y="715.7931034482758" type="curve"/>
      <point x="323.0" y="714.5977011494252"/>
      <point x="246.2528735632184" y="713.5977011494252"/>
      <point x="185.08045977011494" y="713.0" type="curve"/>
      <point x="253.6781609195403" y="637.7701149425287" type="line"/>
      <point x="415.40229885057477" y="637.7701149425287" type="line" smooth="yes"/>
      <point x="486.65517241379314" y="637.7701149425287"/>
      <point x="572.1609195402299" y="611.5747126436781"/>
      <point x="546.735632183908" y="492.86206896551727" type="curve" smooth="yes"/>
      <point x="525.1149425287356" y="389.55172413793105"/>
      <point x="473.264367816092" y="358.9310344827586"/>
      <point x="347.5402298850575" y="358.9310344827586" type="curve" smooth="yes"/>
      <point x="195.2528735632184" y="358.9310344827586" type="line"/>
      <point x="179.2873563218391" y="284.1034482758621" type="line"/>
      <point x="219.2873563218391" y="284.1034482758621"/>
      <point x="300.71264367816093" y="283.1034482758621"/>
    </contour>
    <contour>
      <point x="35.080459770114935" y="0.0" type="curve"/>
      <point x="138.42528735632183" y="0.0" type="line"/>
      <point x="153.22988505747128" y="79.20689655172414"/>
      <point x="164.4367816091954" y="146.20689655172416"/>
      <point x="180.64367816091954" y="235.60919540229884" type="curve"/>
      <point x="228.8505747126437" y="461.8390804597701" type="line"/>
      <point x="250.24137931034483" y="551.6321839080459"/>
      <point x="267.4367816091954" y="620.0344827586207"/>
      <point x="286.63218390804593" y="699.8390804597701" type="curve"/>
      <point x="185.08045977011494" y="713.0" type="line"/>
      <point x="170.2758620689655" y="634.5977011494253"/>
      <point x="158.06896551724137" y="564.9885057471264"/>
      <point x="141.86206896551724" y="473.0" type="curve"/>
      <point x="91.26436781609195" y="235.60919540229884" type="line"/>
      <point x="69.87356321839081" y="147.41379310344828"/>
      <point x="54.2758620689655" y="80.60919540229885"/>
    </contour>
  </outline>
</glyph>
<glyph name="R" format="2">
  <advance width="674.3333333333333"/>
  <unicode hex="0052"/>
  <anchor x="285.367816091954" y="0.0" name="bottom"/>
  <anchor x="427.7241379310345" y="713.0" name="top"/>
  <outline>
    <contour>
      <point x="480.35632183908046" y="0.0" type="curve"/>
      <point x="597.4827586206897" y="0.0" type="line"/>
      <point x="562.2643678160919" y="56.0"/>
      <point x="510.2413793103449" y="138.79310344827587"/>
      <point x="469.02298850574715" y="203.98850574712642" type="curve"/>
      <point x="385.1724137931035" y="345.18390804597703" type="line"/>
      <point x="351.4942528735632" y="306.264367816092" type="line"/>
      <point x="541.9310344827586" y="304.86206896551727"/>
      <point x="607.8965517241379" y="375.8620689655172"/>
      <point x="633.4942528735631" y="497.44827586206895" type="curve" smooth="yes"/>
      <point x="661.4827586206895" y="628.9885057471264"/>
      <point x="586.7126436781608" y="715.7931034482758"/>
      <point x="423.7471264367816" y="715.7931034482758" type="curve"/>
      <point x="324.35632183908046" y="715.1954022988506"/>
      <point x="249.24137931034483" y="713.5977011494252"/>
      <point x="185.08045977011494" y="713.0" type="curve"/>
      <point x="237.54022988505747" y="637.7701149425287" type="line"/>
      <point x="407.7931034482759" y="637.7701149425287" type="line" smooth="yes"/>
      <point x="479.0459770114943" y="637.7701149425287"/>
      <point x="563.5517241379309" y="613.5632183908046"/>
      <point x="539.5287356321838" y="500.05747126436785" type="curve" smooth="yes"/>
      <point x="516.7126436781608" y="392.9770114942529"/>
      <point x="462.0689655172414" y="364.14942528735634"/>
      <point x="338.7356321839081" y="364.14942528735634" type="curve" smooth="yes"/>
      <point x="190.47126436781608" y="364.14942528735634" type="line"/>
      <point x="174.50574712643677" y="289.32183908045977" type="line"/>
      <point x="343.0919540229885" y="289.32183908045977" type="line"/>
      <point x="295.7931034482759" y="336.18390804597703" type="line"/>
      <point x="389.4367816091954" y="169.24137931034483" type="line"/>
      <point x="418.67816091954023" y="115.02298850574712"/>
      <point x="448.51724137931035" y="60.206896551724135"/>
    </contour>
    <contour>
      <point x="35.080459770114935" y="0.0" type="curve"/>
      <point x="139.02298850574712" y="0.0" type="line"/>
      <point x="153.22988505747125" y="79.20689655172414"/>
      <point x="164.4367816091954" y="145.01149425287358"/>
      <point x="180.64367816091954" y="235.60919540229884" type="curve"/>
      <point x="228.85057471264366" y="461.8390804597701" type="line"/>
      <point x="250.24137931034483" y="551.6321839080459"/>
      <point x="267.4367816091954" y="620.0344827586207"/>
      <point x="286.63218390804593" y="699.8390804597701" type="curve"/>
      <point x="185.08045977011494" y="713.0" type="line"/>
      <point x="170.2758620689655" y="634.5977011494253"/>
      <point x="158.06896551724137" y="564.9885057471264"/>
      <point x="141.86206896551724" y="473.0" type="curve"/>
      <point x="91.26436781609195" y="235.60919540229884" type="line"/>
      <point x="69.87356321839081" y="147.41379310344828"/>
      <point x="54.2758620689655" y="80.60919540229885"/>
    </contour>
  </outline>
</glyph>
<glyph name="S" format="2">
  <advance width="586.3563218390805"/>
  <unicode hex="0053"/>
  <anchor x="244.58620689655174" y="0.0" name="bottom"/>
  <anchor x="394.58620689655174" y="713.0" name="top"/>
  <outline>
    <contour>
      <point x="270.98850574712645" y="-10.793103448275861" type="curve" smooth="yes"/>
      <point x="428.1379310344828" y="-10.793103448275861"/>
      <point x="505.9310344827586" y="50.81609195402299"/>
      <point x="530.3218390804598" y="166.77011494252872" type="curve" smooth="yes"/>
      <point x="550.5172413793103" y="263.14942528735634"/>
      <point x="509.91954022988506" y="330.735632183908"/>
      <point x="353.9080459770115" y="396.34482758620686" type="curve" smooth="yes"/>
      <point x="234.82758620689654" y="446.7816091954023"/>
      <point x="196.0" y="482.7931034482758"/>
      <point x="211.41379310344826" y="555.0574712643677" type="curve" smooth="yes"/>
      <point x="227.03448275862067" y="628.9540229885058"/>
      <point x="302.11494252873564" y="645.7701149425287"/>
      <point x="372.97701149425285" y="647.7701149425287" type="curve"/>
      <point x="394.18390804597703" y="647.7701149425287"/>
      <point x="483.9770114942529" y="617.7701149425288"/>
      <point x="566.9655172413793" y="583.7701149425287" type="curve"/>
      <point x="591.7126436781609" y="668.3793103448277" type="line"/>
      <point x="529.1494252873563" y="687.7816091954022"/>
      <point x="414.57471264367814" y="726.1954022988506"/>
      <point x="366.4022988505747" y="726.1954022988506" type="curve" smooth="yes"/>
      <point x="222.44827586206898" y="726.1954022988506"/>
      <point x="140.64367816091954" y="668.609195402299"/>
      <point x="118.85057471264368" y="564.0459770114943" type="curve" smooth="yes"/>
      <point x="95.25287356321839" y="452.8620689655172"/>
      <point x="153.44827586206895" y="390.1034482758621"/>
      <point x="289.88505747126436" y="332.88505747126436" type="curve" smooth="yes"/>
      <point x="395.94252873563215" y="288.45977011494256"/>
      <point x="453.17241379310343" y="249.63218390804596"/>
      <point x="437.7586206896552" y="174.5632183908046" type="curve" smooth="yes"/>
      <point x="419.3333333333333" y="85.25287356321839"/>
      <point x="345.04597701149424" y="69.0344827586207"/>
      <point x="271.98850574712645" y="67.0344827586207" type="curve"/>
      <point x="229.95402298850576" y="67.0344827586207"/>
      <point x="142.7816091954023" y="100.0344827586207"/>
      <point x="48.390804597701155" y="141.83908045977012" type="curve"/>
      <point x="22.643678160919546" y="57.42528735632184" type="line"/>
      <point x="112.42528735632183" y="23.413793103448278"/>
      <point x="218.39080459770113" y="-10.793103448275861"/>
    </contour>
  </outline>
</glyph>
<glyph name="T" format="2">
  <advance width="640.8315789473684"/>
  <unicode hex="0054"/>
  <anchor x="269.6421052631579" y="0.0" name="bottom"/>
  <anchor x="341.08421052631576" y="341.12631578947367" name="center"/>
  <anchor x="419.6421052631579" y="713.0" name="top"/>
  <outline>
    <contour>
      <point x="217.43157894736845" y="0.0" type="curve"/>
      <point x="321.7578947368421" y="0.0" type="line"/>
      <point x="335.84210526315786" y="78.53684210526315"/>
      <point x="347.4736842105263" y="144.71578947368423"/>
      <point x="363.8315789473684" y="235.53684210526316" type="curve"/>
      <point x="412.1894736842105" y="461.6" type="line"/>
      <point x="432.18947368421044" y="552.9684210526316"/>
      <point x="448.83157894736837" y="619.9684210526316"/>
      <point x="469.84210526315786" y="699.8736842105263" type="curve"/>
      <point x="472.0315789473684" y="713.0" type="line"/>
      <point x="367.70526315789476" y="713.0" type="line"/>
      <point x="364.7894736842105" y="699.8736842105263" type="line"/>
      <point x="352.3473684210527" y="619.9684210526316"/>
      <point x="340.4421052631579" y="552.2421052631579"/>
      <point x="321.89473684210526" y="461.6" type="curve"/>
      <point x="273.5368421052632" y="235.53684210526316" type="line"/>
      <point x="252.34736842105264" y="147.16842105263157"/>
      <point x="236.52631578947367" y="80.53684210526316"/>
    </contour>
    <contour>
      <point x="110.85263157894735" y="622.7157894736841" type="line"/>
      <point x="167.38947368421051" y="625.3578947368421"/>
      <point x="227.7473684210526" y="629.0"/>
      <point x="308.36842105263156" y="632.4631578947368" type="curve"/>
      <point x="372.0842105263158" y="632.4631578947368" type="line"/>
      <point x="389.2105263157895" y="713.0" type="line"/>
      <point x="129.62105263157895" y="713.0" type="line"/>
    </contour>
    <contour>
      <point x="431.94736842105266" y="632.4631578947368" type="line"/>
      <point x="495.66315789473686" y="632.4631578947368" type="line"/>
      <point x="576.5578947368421" y="628.7263157894737"/>
      <point x="635.0" y="625.3578947368421"/>
      <point x="689.8947368421053" y="622.7157894736841" type="curve"/>
      <point x="708.6631578947369" y="713.0" type="line"/>
      <point x="449.0736842105263" y="713.0" type="line"/>
    </contour>
  </outline>
</glyph>
<glyph name="V" format="2">
  <advance width="687.7052631578947"/>
  <unicode hex="0056"/>
  <anchor x="292.57894736842104" y="0.0" name="bottom"/>
  <anchor x="442.57894736842104" y="713.0" name="top"/>
  <outline>
    <contour>
      <point x="225.33684210526317" y="0.0" type="curve"/>
      <point x="362.8105263157895" y="0.0" type="line"/>
      <point x="400.9789473684211" y="71.17894736842105"/>
      <point x="448.3263157894737" y="160.0842105263158"/>
      <point x="483.86315789473684" y="226.7263157894737" type="curve"/>
      <point x="609.7473684210527" y="450.0" type="line"/>
      <point x="655.9263157894736" y="527.0"/>
      <point x="714.8315789473684" y="625.7263157894737"/>
      <point x="767.0105263157895" y="713.0" type="curve"/>
      <point x="646.1052631578948" y="713.0" type="line"/>
      <point x="592.1473684210526" y="609.578947368421"/>
      <point x="530.3789473684211" y="491.8"/>
      <point x="476.42105263157896" y="388.10526315789474" type="curve"/>
      <point x="315.0736842105263" y="93.74736842105264" type="line"/>
      <point x="306.3368421052632" y="93.74736842105264" type="line"/>
      <point x="265.94736842105266" y="386.37894736842105" type="line"/>
      <point x="253.33684210526317" y="489.5263157894737"/>
      <point x="238.54736842105265" y="609.578947368421"/>
      <point x="225.93684210526314" y="713.0" type="curve"/>
      <point x="117.14736842105263" y="713.0" type="line"/>
      <point x="133.05263157894737" y="627.0"/>
      <point x="151.68421052631578" y="524.8210526315789"/>
      <point x="165.58947368421053" y="449.2736842105263" type="curve"/>
      <point x="198.37894736842105" y="226.7263157894737" type="line"/>
      <point x="206.82105263157897" y="158.7263157894737"/>
      <point x="217.1684210526316" y="71.54736842105262"/>
    </contour>
  </outline>
</glyph>
<glyph name="W" format="2">
  <advance width="1018.7052631578947"/>
  <unicode hex="0057"/>
  <anchor x="455.7578947368421" y="0.0" name="bottom"/>
  <anchor x="605.7578947368421" y="713.0" name="top"/>
  <outline>
    <contour>
      <point x="173.9263157894737" y="0.0" type="curve"/>
      <point x="301.62105263157895" y="0.0" type="line"/>
      <point x="345.2210526315789" y="96.31578947368422"/>
      <point x="396.9052631578947" y="212.62105263157895"/>
      <point x="440.23157894736846" y="307.8421052631579" type="curve"/>
      <point x="572.4105263157895" y="586.0631578947368" type="line"/>
      <point x="581.1473684210526" y="586.0631578947368" type="line"/>
      <point x="598.5684210526316" y="307.8421052631579" type="line"/>
      <point x="602.4631578947368" y="211.5263157894737"/>
      <point x="607.5368421052632" y="96.3157894736842"/>
      <point x="612.1578947368422" y="0.0" type="curve"/>
      <point x="743.8631578947368" y="0.0" type="line"/>
      <point x="775.2210526315789" y="66.99999999999999"/>
      <point x="815.0315789473684" y="152.7263157894737"/>
      <point x="849.1157894736842" y="225.7263157894737" type="curve"/>
      <point x="960.5578947368421" y="450.0" type="line"/>
      <point x="1002.7368421052631" y="528.6315789473684"/>
      <point x="1054.5578947368417" y="627.0"/>
      <point x="1100.557894736842" y="713.0" type="curve"/>
      <point x="981.021052631579" y="713.0" type="line"/>
      <point x="934.9684210526316" y="612.7684210526315"/>
      <point x="881.1052631578948" y="493.5473684210526"/>
      <point x="835.5052631578948" y="393.9473684210526" type="curve"/>
      <point x="699.1473684210526" y="106.78947368421053" type="line"/>
      <point x="690.4105263157895" y="106.78947368421053" type="line"/>
      <point x="674.6315789473684" y="393.4" type="line"/>
      <point x="670.5578947368421" y="496.3578947368421"/>
      <point x="666.3052631578947" y="611.0421052631579"/>
      <point x="662.2315789473683" y="713.0" type="curve"/>
      <point x="545.6526315789474" y="713.0" type="line"/>
      <point x="500.2315789473684" y="612.9473684210526"/>
      <point x="446.0" y="492.4526315789474"/>
      <point x="402.3052631578948" y="394.6736842105263" type="curve"/>
      <point x="267.4842105263158" y="106.78947368421053" type="line"/>
      <point x="258.7473684210526" y="106.78947368421053" type="line"/>
      <point x="242.43157894736842" y="388.3157894736842" type="line"/>
      <point x="238.45263157894738" y="490.5473684210526"/>
      <point x="234.2947368421053" y="611.0421052631579"/>
      <point x="230.3157894736842" y="713.0" type="curve"/>
      <point x="115.60000000000001" y="713.0" type="line"/>
      <point x="124.8736842105263" y="628.7263157894737"/>
      <point x="137.14736842105262" y="526.5473684210526"/>
      <point x="146.14736842105265" y="446.36842105263156" type="curve"/>
      <point x="163.0421052631579" y="225.0" type="line"/>
      <point x="166.85263157894738" y="154.0"/>
      <point x="171.1157894736842" y="71.27368421052633"/>
    </contour>
  </outline>
</glyph>
<glyph name="X" format="2">
  <advance width="686.0947368421052"/>
  <unicode hex="0058"/>
  <outline>
    <contour>
      <point x="-21.76842105263158" y="0.0" type="curve"/>
      <point x="105.86315789473684" y="0.0" type="line"/>
      <point x="154.00000000000003" y="61.06315789473684"/>
      <point x="194.421052631579" y="113.23157894736842"/>
      <point x="239.37894736842108" y="170.29473684210527" type="curve"/>
      <point x="345.84210526315786" y="299.9684210526316" type="line"/>
      <point x="354.57894736842104" y="299.9684210526316" type="line"/>
      <point x="413.7894736842105" y="171.02105263157895" type="line"/>
      <point x="436.57894736842104" y="118.86315789473684"/>
      <point x="460.09473684210525" y="62.88421052631579"/>
      <point x="486.24210526315795" y="0.0" type="curve"/>
      <point x="604.1368421052632" y="0.0" type="line"/>
      <point x="564.8736842105262" y="76.0"/>
      <point x="529.3368421052631" y="143.27368421052628"/>
      <point x="490.0736842105263" y="219.2736842105263" type="curve"/>
      <point x="417.37894736842105" y="374.82105263157894" type="line"/>
      <point x="411.1894736842105" y="346.05263157894734" type="line"/>
      <point x="548.5263157894738" y="509.2526315789474" type="line"/>
      <point x="599.8842105263158" y="566.8"/>
      <point x="662.2421052631579" y="636.4421052631579"/>
      <point x="730.2421052631579" y="713.0" type="curve"/>
      <point x="601.6105263157895" y="713.0" type="line"/>
      <point x="553.1052631578948" y="650.4736842105264"/>
      <point x="502.9684210526316" y="586.3157894736842"/>
      <point x="458.9157894736842" y="531.3368421052631" type="curve"/>
      <point x="370.0736842105263" y="423.5578947368421" type="line"/>
      <point x="361.33684210526314" y="423.5578947368421" type="line"/>
      <point x="314.7473684210526" y="529.8842105263158" type="line"/>
      <point x="292.6842105263158" y="584.3157894736843"/>
      <point x="267.98947368421057" y="648.021052631579"/>
      <point x="243.02105263157895" y="713.0" type="curve"/>
      <point x="128.13684210526316" y="713.0" type="line"/>
      <point x="168.1263157894737" y="631.9052631578948"/>
      <point x="199.66315789473683" y="564.9052631578948"/>
      <point x="232.20000000000002" y="498.3578947368421" type="curve"/>
      <point x="297.1684210526316" y="352.2631578947368" type="line"/>
      <point x="302.9052631578947" y="379.66315789473686" type="line"/>
      <point x="156.4842105263158" y="203.37894736842105" type="line"/>
      <point x="92.94736842105264" y="131.28421052631577"/>
      <point x="36.41052631578948" y="66.73684210526316"/>
    </contour>
  </outline>
</glyph>
<glyph name="Y" format="2">
  <advance width="651.9894736842106"/>
  <unicode hex="0059"/>
  <anchor x="275.0421052631579" y="0.0" name="bottom"/>
  <anchor x="425.58947368421053" y="713.0" name="top"/>
  <anchor x="117.7263157894737" y="713.0" name="topleft"/>
  <outline>
    <contour>
      <point x="294.57894736842104" y="278.65263157894736" type="line"/>
      <point x="375.2105263157895" y="278.65263157894736" type="line"/>
      <point x="587.6526315789474" y="542.5157894736842" type="line"/>
      <point x="633.9263157894737" y="596.4315789473684"/>
      <point x="682.4736842105262" y="653.621052631579"/>
      <point x="732.6631578947369" y="713.0" type="curve"/>
      <point x="606.2105263157895" y="713.0" type="line"/>
      <point x="537.5473684210527" y="619.1263157894737"/>
      <point x="501.40000000000003" y="570.8736842105263"/>
      <point x="444.4526315789474" y="493.0842105263158" type="curve"/>
      <point x="353.978947368421" y="375.94736842105266" type="line"/>
      <point x="345.5157894736842" y="375.94736842105266" type="line"/>
      <point x="301.7473684210526" y="496.9894736842105" type="line"/>
      <point x="277.59999999999997" y="570.6"/>
      <point x="262.1684210526315" y="618.1263157894737"/>
      <point x="231.03157894736842" y="713.0" type="curve"/>
      <point x="117.77894736842106" y="713.0" type="line"/>
      <point x="147.59999999999997" y="645.4421052631579"/>
      <point x="168.42105263157893" y="597.978947368421"/>
      <point x="192.96842105263158" y="542.5157894736842" type="curve"/>
    </contour>
    <contour>
      <point x="223.37894736842105" y="0.0" type="curve"/>
      <point x="328.2526315789474" y="0.0" type="line"/>
      <point x="342.3368421052632" y="78.53684210526315"/>
      <point x="353.9684210526316" y="144.71578947368423"/>
      <point x="370.3263157894737" y="235.53684210526316" type="curve"/>
      <point x="395.62105263157895" y="354.18947368421055" type="line"/>
      <point x="304.77894736842103" y="354.18947368421055" type="line"/>
      <point x="279.4842105263158" y="235.53684210526316" type="line"/>
      <point x="258.2947368421053" y="147.16842105263157"/>
      <point x="242.4736842105263" y="80.53684210526316"/>
    </contour>
  </outline>
</glyph>
<glyph name="Z" format="2">
  <advance width="671.3157894736842"/>
  <unicode hex="005A"/>
  <anchor x="283.7473684210526" y="0.0" name="bottom"/>
  <anchor x="358.7473684210526" y="357.0" name="center"/>
  <anchor x="433.7473684210526" y="713.0" name="top"/>
  <outline>
    <contour>
      <point x="-4.115789473684213" y="0.0" type="line"/>
      <point x="567.2526315789473" y="0.0" type="line"/>
      <point x="586.1999999999999" y="88.27368421052631" type="line"/>
      <point x="504.31578947368416" y="85.63157894736842"/>
      <point x="374.17894736842106" y="81.16842105263159"/>
      <point x="284.11578947368423" y="77.52631578947368" type="curve"/>
      <point x="98.17894736842108" y="77.52631578947368" type="line"/>
      <point x="111.82105263157895" y="39.48421052631579" type="line"/>
      <point x="471.7684210526316" y="411.2421052631579" type="line"/>
      <point x="547.8315789473685" y="487.66315789473686"/>
      <point x="623.6210526315789" y="564.8105263157895"/>
      <point x="697.6736842105263" y="639.4947368421052" type="curve"/>
      <point x="713.1578947368421" y="713.0" type="line"/>
      <point x="153.8" y="713.0" type="line"/>
      <point x="135.57894736842104" y="624.3578947368421" type="line"/>
      <point x="237.82105263157894" y="628.0947368421054"/>
      <point x="333.33684210526314" y="632.2842105263159"/>
      <point x="417.94736842105266" y="635.4736842105264" type="curve"/>
      <point x="621.7894736842105" y="635.4736842105264" type="line"/>
      <point x="598.7894736842105" y="667.7052631578947" type="line"/>
      <point x="257.7263157894737" y="313.18947368421055" type="line"/>
      <point x="180.56842105263155" y="235.67368421052632"/>
      <point x="74.8736842105263" y="129.16842105263157"/>
      <point x="9.72631578947368" y="63.38947368421053" type="curve"/>
    </contour>
  </outline>
</glyph>
<glyph name="bracketleft" format="2">
  <advance width="372.36842105263156"/>
  <unicode hex="005B"/>
  <outline>
    <contour>
      <point x="13.473684210526319" y="-116.92631578947369" type="curve"/>
      <point x="103.93684210526315" y="-116.92631578947369" type="line"/>
      <point x="106.12631578947368" y="-103.8" type="line"/>
      <point x="120.48421052631579" y="-24.71578947368421"/>
      <point x="132.56842105263158" y="44.36842105263158"/>
      <point x="148.2" y="132.46315789473684" type="curve"/>
      <point x="228.8315789473684" y="514.8947368421053" type="line"/>
      <point x="250.02105263157895" y="604.0842105263158"/>
      <point x="267.1157894736842" y="673.2631578947369"/>
      <point x="286.2105263157895" y="753.1684210526316" type="curve"/>
      <point x="289.4" y="766.2947368421053" type="line"/>
      <point x="198.93684210526317" y="766.2947368421053" type="line"/>
      <point x="184.03157894736844" y="685.8421052631579"/>
      <point x="170.67368421052632" y="618.0315789473684"/>
      <point x="154.7684210526316" y="528.021052631579" type="curve"/>
      <point x="68.7578947368421" y="118.61052631578947" type="line"/>
      <point x="47.38947368421053" y="30.515789473684208"/>
      <point x="32.02105263157894" y="-38.38947368421053"/>
    </contour>
    <contour>
      <point x="85.0842105263158" y="-116.92631578947369" type="line"/>
      <point x="279.8" y="-116.92631578947369" type="line"/>
      <point x="294.8315789473684" y="-43.50526315789474" type="line"/>
      <point x="246.9263157894737" y="-44.599999999999994"/>
      <point x="196.38947368421051" y="-46.421052631578945"/>
      <point x="137.93684210526317" y="-47.78947368421053" type="curve"/>
      <point x="99.29473684210527" y="-47.78947368421053" type="line"/>
    </contour>
    <contour>
      <point x="251.6842105263158" y="697.1578947368421" type="line"/>
      <point x="289.2421052631579" y="697.1578947368421" type="line"/>
      <point x="357.3263157894737" y="695.7894736842105"/>
      <point x="404.9578947368421" y="693.9684210526316"/>
      <point x="448.86315789473684" y="692.8736842105263" type="curve"/>
      <point x="464.62105263157895" y="766.2947368421053" type="line"/>
      <point x="266.1684210526316" y="766.2947368421053" type="line"/>
    </contour>
  </outline>
</glyph>
<glyph name="backslash" format="2">
  <advance width="450.86315789473684"/>
  <unicode hex="005C"/>
  <outline>
    <contour>
      <point x="284.2631578947369" y="0.0" type="curve"/>
      <point x="374.0" y="0.0" type="line"/>
      <point x="355.00000000000006" y="74.09473684210526"/>
      <point x="339.0" y="136.82105263157894"/>
      <point x="315.5473684210527" y="228.0" type="curve"/>
      <point x="260.2947368421053" y="475.2736842105263" type="line"/>
      <point x="241.4" y="570.7263157894737"/>
      <point x="228.41052631578944" y="637.1789473684211"/>
      <point x="213.42105263157896" y="713.0" type="curve"/>
      <point x="124.23157894736842" y="713.0" type="line"/>
      <point x="143.9578947368421" y="634.1789473684211"/>
      <point x="160.41052631578944" y="568.0"/>
      <point x="183.86315789473684" y="474.7263157894737" type="curve"/>
      <point x="238.8421052631579" y="228.0" type="line"/>
      <point x="257.01052631578955" y="136.0"/>
      <point x="269.5473684210526" y="74.0"/>
    </contour>
  </outline>
</glyph>
<glyph name="asciicircum" format="2">
  <advance width="608.6105263157895"/>
  <unicode hex="005E"/>
  <outline>
    <contour>
      <point x="503.7684210526316" y="378.9473684210526" type="curve"/>
      <point x="577.3578947368421" y="380.22105263157897" type="line"/>
      <point x="534.0105263157894" y="482.42105263157896"/>
      <point x="491.38947368421054" y="583.4421052631579"/>
      <point x="448.0421052631579" y="685.6421052631579" type="curve"/>
      <point x="329.5368421052632" y="685.6421052631579" type="line"/>
      <point x="249.01052631578946" y="584.4421052631579"/>
      <point x="168.21052631578948" y="483.42105263157896"/>
      <point x="87.6842105263158" y="382.22105263157897" type="curve"/>
      <point x="171.6526315789474" y="382.22105263157897" type="line"/>
      <point x="240.5263157894737" y="459.7368421052631"/>
      <point x="309.0315789473684" y="536.6105263157895"/>
      <point x="377.90526315789475" y="614.1263157894737" type="curve"/>
      <point x="386.36842105263156" y="614.1263157894737" type="line"/>
      <point x="425.1684210526316" y="536.1578947368421"/>
      <point x="464.9684210526316" y="456.9157894736842"/>
    </contour>
  </outline>
</glyph>
<glyph name="underscore" format="2">
  <advance width="401.89473684210526"/>
  <unicode hex="005F"/>
  <outline>
    <contour>
      <point x="-88.66315789473684" y="-124.48421052631579" type="line"/>
      <point x="-26.010526315789473" y="-122.93684210526315"/>
      <point x="44.452631578947354" y="-121.38947368421053"/>
      <point x="85.74736842105263" y="-120.84210526315789" type="curve"/>
      <point x="161.3684210526316" y="-120.84210526315789" type="line"/>
      <point x="202.11578947368423" y="-121.38947368421053"/>
      <point x="270.57894736842104" y="-122.93684210526315"/>
      <point x="333.2315789473684" y="-124.48421052631579" type="curve"/>
      <point x="349.53684210526313" y="-48.14736842105263" type="line"/>
      <point x="286.61052631578946" y="-49.694736842105264"/>
      <point x="216.14736842105265" y="-51.242105263157896"/>
      <point x="175.1263157894737" y="-51.78947368421053" type="curve"/>
      <point x="99.50526315789473" y="-51.78947368421053" type="line"/>
      <point x="58.484210526315785" y="-51.242105263157896"/>
      <point x="-9.97894736842105" y="-49.694736842105264"/>
      <point x="-72.35789473684211" y="-48.14736842105263" type="curve"/>
    </contour>
  </outline>
</glyph>
<glyph name="a" format="2">
  <advance width="526.1609195402299"/>
  <unicode hex="0061"/>
  <anchor x="210.0" y="0.0" name="bottom"/>
  <anchor x="396.3103448275862" y="0.0" name="ogonek"/>
  <anchor x="316.0" y="496.39080459770116" name="top"/>
  <outline>
    <contour>
      <point x="165.26436781609195" y="-10.195402298850574" type="curve" smooth="yes"/>
      <point x="206.10344827586204" y="-10.195402298850574"/>
      <point x="274.1379310344827" y="25.057471264367813"/>
      <point x="331.91954022988506" y="69.06896551724138" type="curve"/>
      <point x="340.31034482758616" y="69.06896551724138" type="line"/>
      <point x="345.7011494252873" y="0.0" type="line"/>
      <point x="427.3103448275862" y="0.0" type="line"/>
      <point x="426.1034482758621" y="52.57471264367816"/>
      <point x="425.2988505747127" y="93.94252873563218"/>
      <point x="425.49425287356325" y="139.5287356321839" type="curve"/>
      <point x="440.9080459770115" y="211.0" type="line" smooth="yes"/>
      <point x="449.9080459770115" y="253.01149425287358"/>
      <point x="458.9080459770115" y="286.41379310344826"/>
      <point x="465.5057471264368" y="316.8045977011494" type="curve" smooth="yes"/>
      <point x="490.2988505747127" y="430.58620689655174"/>
      <point x="431.94252873563215" y="507.58620689655174"/>
      <point x="299.8045977011494" y="507.58620689655174" type="curve" smooth="yes"/>
      <point x="266.59770114942535" y="507.58620689655174"/>
      <point x="170.24137931034483" y="487.5747126436782"/>
      <point x="122.85057471264368" y="477.96551724137936" type="curve"/>
      <point x="109.48275862068965" y="393.3448275862069" type="line"/>
      <point x="183.70114942528735" y="415.14942528735634"/>
      <point x="260.86206896551727" y="436.13793103448273"/>
      <point x="279.8735632183908" y="436.13793103448273" type="curve" smooth="yes"/>
      <point x="361.3103448275862" y="436.13793103448273"/>
      <point x="402.93103448275866" y="397.71264367816093"/>
      <point x="383.89655172413796" y="317.3793103448276" type="curve"/>
      <point x="212.45977011494253" y="286.7586206896552" type="line" smooth="yes"/>
      <point x="129.26436781609195" y="271.95402298850576"/>
      <point x="51.44827586206897" y="248.17241379310346"/>
      <point x="31.04597701149425" y="155.17241379310346" type="curve" smooth="yes"/>
      <point x="10.643678160919539" y="63.770114942528735"/>
      <point x="66.86206896551724" y="-10.195402298850574"/>
    </contour>
    <contour>
      <point x="193.75862068965517" y="57.862068965517246" type="curve" smooth="yes"/>
      <point x="137.87356321839079" y="57.862068965517246"/>
      <point x="103.21839080459769" y="88.89655172413794"/>
      <point x="115.24137931034483" y="149.19540229885055" type="curve" smooth="yes"/>
      <point x="125.6551724137931" y="200.65517241379308"/>
      <point x="173.33333333333334" y="215.45977011494253"/>
      <point x="233.19540229885058" y="227.47126436781608" type="curve" smooth="yes"/>
      <point x="326.8965517241379" y="246.68965517241378"/>
      <point x="351.91954022988506" y="255.49425287356323"/>
      <point x="369.93103448275866" y="264.6896551724138" type="curve"/>
      <point x="345.7011494252874" y="149.16091954022988" type="line"/>
      <point x="280.4827586206896" y="88.29885057471262"/>
      <point x="220.2183908045977" y="57.862068965517246"/>
    </contour>
  </outline>
</glyph>
<glyph name="b" format="2">
  <advance width="592.1894736842105"/>
  <unicode hex="0062"/>
  <outline>
    <contour>
      <point x="299.978947368421" y="-10.91578947368421" type="curve" smooth="yes"/>
      <point x="420.33684210526314" y="-10.91578947368421"/>
      <point x="506.50526315789466" y="80.10526315789474"/>
      <point x="536.5052631578947" y="223.28421052631577" type="curve" smooth="yes"/>
      <point x="567.778947368421" y="373.8315789473684"/>
      <point x="511.25263157894733" y="507.8315789473684"/>
      <point x="364.5473684210526" y="507.8315789473684" type="curve" smooth="yes"/>
      <point x="325.65263157894736" y="507.8315789473684"/>
      <point x="256.77894736842103" y="468.57894736842104"/>
      <point x="218.13684210526318" y="438.3894736842105" type="curve"/>
      <point x="209.40000000000003" y="438.3894736842105" type="line"/>
      <point x="220.75789473684213" y="493.7263157894737" type="line"/>
      <point x="242.49473684210528" y="581.7368421052631"/>
      <point x="262.41052631578947" y="662.6526315789474"/>
      <point x="283.5052631578948" y="743.2842105263157" type="curve"/>
      <point x="175.0" y="729.8210526315789" type="line"/>
      <point x="163.73684210526315" y="654.8105263157895"/>
      <point x="151.47368421052633" y="577.0842105263158"/>
      <point x="138.21052631578948" y="493.7263157894737" type="curve"/>
      <point x="79.93684210526315" y="218.81052631578947" type="line"/>
      <point x="59.29473684210526" y="136.98947368421054"/>
      <point x="44.47368421052631" y="73.3578947368421"/>
      <point x="26.37894736842105" y="0.0" type="curve"/>
      <point x="99.44210526315788" y="0.0" type="line"/>
      <point x="125.3684210526316" y="75.8842105263158" type="line"/>
      <point x="133.2842105263158" y="75.8842105263158" type="line"/>
      <point x="182.8315789473684" y="29.431578947368422"/>
      <point x="251.0842105263158" y="-10.91578947368421"/>
    </contour>
    <contour>
      <point x="281.09473684210525" y="63.77894736842106" type="curve"/>
      <point x="244.30526315789476" y="66.05263157894737"/>
      <point x="183.64210526315787" y="97.02105263157895"/>
      <point x="146.13684210526318" y="141.33684210526314" type="curve"/>
      <point x="192.6526315789474" y="360.2" type="line"/>
      <point x="235.61052631578946" y="400.6210526315789"/>
      <point x="303.6315789473684" y="432.13684210526316"/>
      <point x="331.25263157894733" y="433.9578947368421" type="curve"/>
      <point x="437.7894736842105" y="430.9578947368421"/>
      <point x="475.2105263157894" y="339.4736842105263"/>
      <point x="452.6842105263157" y="230.56842105263158" type="curve" smooth="yes"/>
      <point x="432.78947368421046" y="135.2736842105263"/>
      <point x="378.2842105263158" y="67.05263157894737"/>
    </contour>
  </outline>
</glyph>
<glyph name="c" format="2">
  <advance width="494.33684210526314"/>
  <unicode hex="0063"/>
  <anchor x="233.34736842105264" y="0.0" name="bottom"/>
  <anchor x="331.3578947368421" y="496.18947368421055" name="top"/>
  <outline>
    <contour>
      <point x="280.5578947368421" y="-10.094736842105263" type="curve" smooth="yes"/>
      <point x="314.09473684210525" y="-10.094736842105263"/>
      <point x="375.4526315789474" y="8.16842105263158"/>
      <point x="402.4526315789474" y="18.347368421052632" type="curve"/>
      <point x="410.93684210526317" y="98.1263157894737" type="line"/>
      <point x="375.85263157894735" y="81.31578947368422"/>
      <point x="315.7684210526316" y="62.863157894736844"/>
      <point x="293.14736842105265" y="62.13684210526316" type="curve" smooth="yes"/>
      <point x="176.67368421052632" y="64.13684210526316"/>
      <point x="110.70526315789473" y="139.26315789473685"/>
      <point x="138.05263157894737" y="266.72631578947363" type="curve" smooth="yes"/>
      <point x="161.4" y="373.91578947368424"/>
      <point x="235.1578947368421" y="428.9578947368421"/>
      <point x="327.7263157894737" y="433.9578947368421" type="curve"/>
      <point x="343.53684210526313" y="433.9578947368421"/>
      <point x="408.62105263157895" y="413.7789473684211"/>
      <point x="469.61052631578946" y="388.4210526315789" type="curve"/>
      <point x="492.10526315789474" y="464.56842105263155" type="line"/>
      <point x="445.8105263157895" y="480.6631578947368"/>
      <point x="359.81052631578956" y="507.5578947368421"/>
      <point x="328.178947368421" y="507.5578947368421" type="curve" smooth="yes"/>
      <point x="186.68421052631578" y="507.5578947368421"/>
      <point x="83.05263157894737" y="413.37894736842105"/>
      <point x="54.50526315789474" y="276.0105263157895" type="curve" smooth="yes"/>
      <point x="19.863157894736844" y="107.98947368421052"/>
      <point x="110.8" y="-10.094736842105263"/>
    </contour>
  </outline>
</glyph>
<glyph name="d" format="2">
  <advance width="578.021052631579"/>
  <unicode hex="0064"/>
  <anchor x="258.10526315789474" y="0.0" name="bottom"/>
  <anchor x="290.9157894736842" y="248.09473684210528" name="center"/>
  <anchor x="410.65263157894736" y="725.7368421052631" name="top"/>
  <anchor x="606.0315789473684" y="496.18947368421055" name="topright"/>
  <outline>
    <contour>
      <point x="227.91578947368419" y="-10.91578947368421" type="curve" smooth="yes"/>
      <point x="270.1789473684211" y="-10.91578947368421"/>
      <point x="337.4315789473685" y="24.8"/>
      <point x="386.34736842105264" y="71.61052631578949" type="curve"/>
      <point x="394.2631578947369" y="71.61052631578949" type="line"/>
      <point x="381.46315789473687" y="0.0" type="line"/>
      <point x="459.0842105263158" y="0.0" type="line"/>
      <point x="472.4421052631579" y="73.3578947368421"/>
      <point x="483.8" y="136.98947368421054"/>
      <point x="498.43157894736845" y="218.81052631578947" type="curve"/>
      <point x="556.7052631578947" y="493.7263157894737" type="line"/>
      <point x="578.4421052631578" y="581.7368421052631"/>
      <point x="598.357894736842" y="662.6526315789474"/>
      <point x="619.4526315789474" y="743.2842105263157" type="curve"/>
      <point x="510.9473684210526" y="729.8210526315789" type="line"/>
      <point x="499.6842105263158" y="654.8105263157895"/>
      <point x="487.4210526315789" y="577.0842105263158"/>
      <point x="474.1578947368421" y="493.7263157894737" type="curve"/>
      <point x="462.07368421052627" y="434.03157894736836" type="line"/>
      <point x="453.33684210526314" y="434.03157894736836" type="line"/>
      <point x="411.3368421052631" y="469.57894736842104"/>
      <point x="340.9157894736843" y="507.8315789473684"/>
      <point x="292.4842105263158" y="507.8315789473684" type="curve" smooth="yes"/>
      <point x="172.1263157894737" y="507.8315789473684"/>
      <point x="85.9578947368421" y="416.81052631578945"/>
      <point x="55.95789473684211" y="273.63157894736844" type="curve" smooth="yes"/>
      <point x="24.68421052631579" y="123.0842105263158"/>
      <point x="81.21052631578948" y="-10.91578947368421"/>
    </contour>
    <contour>
      <point x="261.2105263157895" y="62.95789473684211" type="curve"/>
      <point x="154.67368421052632" y="65.23157894736842"/>
      <point x="116.5263157894737" y="158.16842105263157"/>
      <point x="139.77894736842106" y="266.34736842105264" type="curve" smooth="yes"/>
      <point x="160.4" y="363.09473684210525"/>
      <point x="214.17894736842106" y="429.86315789473684"/>
      <point x="311.36842105263156" y="433.13684210526316" type="curve"/>
      <point x="350.3368421052632" y="431.58947368421053"/>
      <point x="408.821052631579" y="400.6210526315789"/>
      <point x="447.05263157894734" y="368.65263157894736" type="curve"/>
      <point x="401.9894736842105" y="152.69473684210524" type="line"/>
      <point x="363.38947368421054" y="105.01052631578948"/>
      <point x="304.0842105263158" y="65.50526315789473"/>
    </contour>
  </outline>
</glyph>
<glyph name="g" format="2">
  <advance width="543.1724137931035"/>
  <unicode hex="0067"/>
  <anchor x="190.1379310344828" y="-192.0" name="bottom"/>
  <anchor x="308.1724137931035" y="496.39080459770116" name="top"/>
  <outline>
    <contour>
      <point x="175.78160919540232" y="-202.19540229885058" type="curve" smooth="yes"/>
      <point x="290.7586206896552" y="-202.19540229885058"/>
      <point x="410.3333333333333" y="-158.39080459770113"/>
      <point x="431.7241379310345" y="-57.4367816091954" type="curve" smooth="yes"/>
      <point x="449.11494252873564" y="25.114942528735632"/>
      <point x="392.3333333333333" y="80.10344827586206"/>
      <point x="260.11494252873564" y="80.10344827586206" type="curve" smooth="yes"/>
      <point x="219.94252873563218" y="80.10344827586206" type="line" smooth="yes"/>
      <point x="165.632183908046" y="80.10344827586206"/>
      <point x="141.66666666666669" y="97.5632183908046"/>
      <point x="146.4712643678161" y="121.7816091954023" type="curve" smooth="yes"/>
      <point x="151.48275862068968" y="146.02298850574712"/>
      <point x="188.88505747126436" y="157.6206896551724"/>
      <point x="261.1379310344828" y="167.22988505747125" type="curve" smooth="yes"/>
      <point x="355.35632183908046" y="180.03448275862067"/>
      <point x="436.1264367816092" y="218.24137931034483"/>
      <point x="456.1264367816092" y="319.8045977011494" type="curve" smooth="yes"/>
      <point x="466.9310344827586" y="375.41379310344826"/>
      <point x="450.5287356321839" y="426.0344827586207"/>
      <point x="396.49425287356325" y="465.8390804597701" type="curve"/>
      <point x="372.5402298850575" y="443.7011494252874" type="line"/>
      <point x="434.35632183908046" y="441.2988505747127"/>
      <point x="495.9770114942529" y="436.9080459770115"/>
      <point x="559.7931034482759" y="427.3333333333333" type="curve"/>
      <point x="574.5632183908045" y="496.98850574712645" type="line"/>
      <point x="404.9310344827586" y="496.98850574712645" type="line" smooth="yes"/>
      <point x="351.7586206896552" y="496.98850574712645"/>
      <point x="330.367816091954" y="507.58620689655174"/>
      <point x="271.6206896551724" y="507.58620689655174" type="curve" smooth="yes"/>
      <point x="166.66666666666666" y="507.58620689655174"/>
      <point x="91.44827586206895" y="457.01149425287355"/>
      <point x="72.64367816091954" y="365.7931034482759" type="curve" smooth="yes"/>
      <point x="56.839080459770116" y="289.97701149425285"/>
      <point x="112.48275862068965" y="233.75862068965517"/>
      <point x="158.85057471264366" y="196.19540229885058" type="curve"/>
      <point x="158.85057471264366" y="188.80459770114942" type="line"/>
      <point x="112.0344827586207" y="177.01149425287358"/>
      <point x="77.25287356321839" y="156.20689655172413"/>
      <point x="68.25287356321839" y="115.81609195402298" type="curve" smooth="yes"/>
      <point x="58.252873563218394" y="69.62068965517241"/>
      <point x="90.85057471264366" y="44.42528735632184"/>
      <point x="104.45977011494253" y="36.827586206896555" type="curve"/>
      <point x="104.45977011494253" y="30.436781609195407" type="line"/>
      <point x="49.862068965517246" y="6.252873563218391"/>
      <point x="-4.3678160919540225" y="-26.172413793103452"/>
      <point x="-12.770114942528735" y="-65.39080459770115" type="curve" smooth="yes"/>
      <point x="-32.367816091954026" y="-157.57471264367817"/>
      <point x="67.39080459770115" y="-202.19540229885058"/>
    </contour>
    <contour>
      <point x="184.7471264367816" y="-135.5287356321839" type="curve"/>
      <point x="122.90804597701151" y="-134.33333333333331"/>
      <point x="52.0344827586207" y="-113.91954022988506"/>
      <point x="63.65517241379311" y="-60.218390804597696" type="curve" smooth="yes"/>
      <point x="68.66666666666667" y="-36.770114942528735"/>
      <point x="118.12643678160917" y="-11.344827586206897"/>
      <point x="169.55172413793102" y="10.850574712643677" type="curve"/>
      <point x="230.01149425287355" y="10.850574712643677" type="line" smooth="yes"/>
      <point x="341.6896551724138" y="10.850574712643677"/>
      <point x="361.91954022988506" y="-21.770114942528735"/>
      <point x="353.9080459770115" y="-58.81609195402299" type="curve" smooth="yes"/>
      <point x="346.09195402298855" y="-94.08045977011494"/>
      <point x="293.03448275862064" y="-131.34482758620686"/>
    </contour>
    <contour>
      <point x="225.3448275862069" y="229.0919540229885" type="curve"/>
      <point x="179.8965517241379" y="261.32183908045977"/>
      <point x="139.2528735632184" y="304.3563218390804"/>
      <point x="148.0689655172414" y="350.2298850574713" type="curve" smooth="yes"/>
      <point x="159.8850574712644" y="410.5057471264368"/>
      <point x="208.73563218390805" y="437.3333333333333"/>
      <point x="273.4022988505747" y="437.3333333333333" type="curve"/>
      <point x="341.8505747126437" y="437.3333333333333"/>
      <point x="393.51724137931035" y="389.09195402298855"/>
      <point x="379.1034482758621" y="323.21839080459773" type="curve" smooth="yes"/>
      <point x="363.08045977011494" y="249.9080459770115"/>
      <point x="293.8045977011494" y="235.70114942528738"/>
    </contour>
  </outline>
</glyph>
<glyph name="h" format="2">
  <advance width="576.2105263157894"/>
  <unicode hex="0068"/>
  <guideline x="115.6842105263158" y="734.2842105263157" angle="4.470799999999997"/>
  <anchor x="240.28421052631577" y="0.0" name="bottom"/>
  <anchor x="326.2842105263158" y="409.0" name="center"/>
  <anchor x="372.5473684210526" y="725.7368421052631" name="top"/>
  <outline>
    <contour>
      <point x="26.37894736842105" y="0.0" type="curve"/>
      <point x="122.41052631578948" y="0.0" type="line"/>
      <point x="135.76842105263162" y="73.3578947368421"/>
      <point x="146.8526315789474" y="136.98947368421054"/>
      <point x="161.66315789473686" y="215.25263157894736" type="curve"/>
      <point x="187.9263157894737" y="336.75789473684216" type="line"/>
      <point x="243.50526315789475" y="388.70526315789476"/>
      <point x="313.4526315789473" y="429.85263157894735"/>
      <point x="348.95789473684204" y="429.85263157894735" type="curve" smooth="yes"/>
      <point x="425.978947368421" y="429.85263157894735"/>
      <point x="445.9578947368421" y="381.2421052631579"/>
      <point x="426.69473684210527" y="292.4736842105263" type="curve"/>
      <point x="410.9789473684211" y="215.25263157894736" type="line"/>
      <point x="391.70526315789476" y="136.98947368421054"/>
      <point x="376.8842105263158" y="73.3578947368421"/>
      <point x="359.0631578947369" y="0.0" type="curve"/>
      <point x="454.5473684210526" y="0.0" type="line"/>
      <point x="467.90526315789475" y="73.3578947368421"/>
      <point x="478.9894736842105" y="136.98947368421054"/>
      <point x="494.34736842105264" y="218.81052631578947" type="curve"/>
      <point x="502.34736842105264" y="257.08421052631576"/>
      <point x="510.8105263157895" y="287.5578947368421"/>
      <point x="516.8105263157895" y="315.10526315789474" type="curve" smooth="yes"/>
      <point x="542.9894736842106" y="434.9157894736842"/>
      <point x="496.7157894736842" y="507.8315789473684"/>
      <point x="387.3578947368421" y="507.8315789473684" type="curve" smooth="yes"/>
      <point x="335.84210526315786" y="507.8315789473684"/>
      <point x="259.77894736842114" y="456.4947368421052"/>
      <point x="213.23157894736843" y="417.22105263157897" type="curve"/>
      <point x="204.94736842105266" y="417.22105263157897" type="line"/>
      <point x="220.75789473684213" y="493.7263157894737" type="line"/>
      <point x="242.49473684210528" y="581.7368421052631"/>
      <point x="262.41052631578947" y="662.6526315789473"/>
      <point x="283.5052631578948" y="743.2842105263157" type="curve"/>
      <point x="175.0" y="729.8210526315789" type="line"/>
      <point x="163.73684210526315" y="654.8105263157895"/>
      <point x="151.47368421052633" y="577.0842105263158"/>
      <point x="138.21052631578948" y="493.7263157894737" type="curve"/>
      <point x="79.93684210526315" y="218.81052631578947" type="line"/>
      <point x="59.29473684210526" y="136.98947368421054"/>
      <point x="44.47368421052631" y="73.3578947368421"/>
    </contour>
  </outline>
</glyph>
<glyph name="k" format="2">
  <advance width="543.6421052631579"/>
  <unicode hex="006B"/>
  <anchor x="225.57894736842104" y="0.0" name="bottom"/>
  <anchor x="378.12631578947367" y="725.7368421052631" name="top"/>
  <outline>
    <contour>
      <point x="363.7263157894737" y="0.0" type="curve"/>
      <point x="478.67368421052635" y="0.0" type="line"/>
      <point x="426.3368421052632" y="58.642105263157895"/>
      <point x="373.7263157894737" y="116.83157894736843"/>
      <point x="321.3894736842105" y="175.47368421052633" type="curve"/>
      <point x="238.2421052631579" y="275.9684210526316" type="line"/>
      <point x="250.63157894736844" y="236.16842105263157" type="line"/>
      <point x="351.3157894736842" y="321.3578947368421" type="line"/>
      <point x="422.378947368421" y="379.7263157894737"/>
      <point x="493.89473684210526" y="437.82105263157894"/>
      <point x="566.4105263157894" y="496.18947368421055" type="curve"/>
      <point x="445.7368421052632" y="496.18947368421055" type="line"/>
      <point x="393.14736842105265" y="449.65263157894736"/>
      <point x="339.8315789473684" y="402.66315789473686"/>
      <point x="287.2421052631579" y="356.12631578947367" type="curve"/>
      <point x="198.49473684210528" y="280.2315789473684" type="line"/>
      <point x="166.30526315789473" y="280.2315789473684" type="line"/>
      <point x="153.73684210526315" y="221.03157894736842" type="line"/>
      <point x="182.1157894736842" y="221.03157894736842" type="line"/>
      <point x="254.94736842105266" y="136.32631578947368" type="line"/>
      <point x="291.63157894736844" y="90.88421052631578"/>
      <point x="328.0421052631579" y="45.44210526315789"/>
    </contour>
    <contour>
      <point x="26.37894736842105" y="0.0" type="curve"/>
      <point x="122.41052631578948" y="0.0" type="line"/>
      <point x="134.67368421052635" y="70.07368421052631"/>
      <point x="145.48421052631582" y="130.96842105263158"/>
      <point x="159.74736842105264" y="205.94736842105263" type="curve"/>
      <point x="220.75789473684213" y="493.7263157894737" type="line"/>
      <point x="242.49473684210528" y="581.7368421052631"/>
      <point x="262.41052631578947" y="662.6526315789473"/>
      <point x="283.5052631578948" y="743.2842105263157" type="curve"/>
      <point x="175.0" y="729.8210526315789" type="line"/>
      <point x="163.73684210526315" y="654.8105263157895"/>
      <point x="151.47368421052633" y="577.0842105263158"/>
      <point x="138.21052631578948" y="493.7263157894737" type="curve"/>
      <point x="79.93684210526315" y="218.81052631578947" type="line"/>
      <point x="59.29473684210526" y="136.98947368421054"/>
      <point x="44.47368421052631" y="73.3578947368421"/>
    </contour>
  </outline>
</glyph>
<glyph name="l" format="2">
  <advance width="255.51578947368424"/>
  <unicode hex="006C"/>
  <anchor x="74.75789473684212" y="0.0" name="bottom"/>
  <anchor x="163.1263157894737" y="409.0" name="center"/>
  <anchor x="226.5684210526316" y="725.7368421052631" name="top"/>
  <anchor x="268.7157894736842" y="496.18947368421055" name="topright"/>
  <outline>
    <contour>
      <point x="26.37894736842105" y="0.0" type="curve"/>
      <point x="122.41052631578948" y="0.0" type="line"/>
      <point x="135.76842105263162" y="73.3578947368421"/>
      <point x="147.8526315789474" y="136.98947368421054"/>
      <point x="162.48421052631582" y="218.81052631578947" type="curve"/>
      <point x="220.75789473684213" y="493.7263157894737" type="line"/>
      <point x="242.49473684210528" y="581.7368421052631"/>
      <point x="262.41052631578947" y="662.6526315789474"/>
      <point x="283.5052631578948" y="743.2842105263157" type="curve"/>
      <point x="175.0" y="729.8210526315789" type="line"/>
      <point x="163.73684210526315" y="654.8105263157895"/>
      <point x="151.47368421052633" y="577.0842105263158"/>
      <point x="138.21052631578948" y="493.7263157894737" type="curve"/>
      <point x="79.93684210526315" y="218.81052631578947" type="line"/>
      <point x="59.29473684210526" y="136.98947368421054"/>
      <point x="44.47368421052631" y="73.3578947368421"/>
    </contour>
  </outline>
</glyph>
<glyph name="m" format="2">
  <advance width="880.8315789473684"/>
  <unicode hex="006D"/>
  <anchor x="397.90526315789475" y="0.0" name="bottom"/>
  <anchor x="502.4526315789474" y="496.18947368421055" name="top"/>
  <outline>
    <contour>
      <point x="31.831578947368417" y="0.0" type="curve"/>
      <point x="127.86315789473684" y="0.0" type="line"/>
      <point x="141.22105263157897" y="73.3578947368421"/>
      <point x="152.5789473684211" y="136.98947368421054"/>
      <point x="167.11578947368423" y="215.25263157894736" type="curve"/>
      <point x="193.37894736842108" y="336.75789473684216" type="line"/>
      <point x="248.95789473684215" y="388.7052631578947"/>
      <point x="314.72631578947363" y="429.85263157894735"/>
      <point x="349.5052631578947" y="429.85263157894735" type="curve" smooth="yes"/>
      <point x="417.2631578947368" y="429.85263157894735"/>
      <point x="437.24210526315784" y="381.2421052631579"/>
      <point x="417.978947368421" y="292.4736842105263" type="curve"/>
      <point x="402.2631578947368" y="215.25263157894736" type="line"/>
      <point x="382.9894736842105" y="136.98947368421054"/>
      <point x="368.1684210526316" y="73.3578947368421"/>
      <point x="350.3473684210526" y="0.0" type="curve"/>
      <point x="445.8315789473684" y="0.0" type="line"/>
      <point x="459.18947368421055" y="73.3578947368421"/>
      <point x="470.2736842105263" y="136.98947368421054"/>
      <point x="485.63157894736844" y="218.81052631578947" type="curve"/>
      <point x="493.63157894736844" y="257.08421052631576"/>
      <point x="502.0947368421053" y="287.5578947368421"/>
      <point x="508.0947368421053" y="315.10526315789474" type="curve" smooth="yes"/>
      <point x="513.6421052631579" y="341.29473684210524"/>
      <point x="516.0947368421052" y="365.2105263157895"/>
      <point x="515.0" y="385.85263157894735" type="curve"/>
      <point x="511.8105263157895" y="388.7578947368421" type="line"/>
      <point x="508.7157894736842" y="464.4736842105263"/>
      <point x="464.98947368421057" y="507.8315789473684"/>
      <point x="387.178947368421" y="507.8315789473684" type="curve" smooth="yes"/>
      <point x="335.19999999999993" y="507.8315789473684"/>
      <point x="258.1263157894737" y="454.9473684210526"/>
      <point x="208.84210526315792" y="414.8526315789474" type="curve"/>
      <point x="200.55789473684214" y="414.8526315789474" type="line"/>
      <point x="212.00000000000003" y="501.10526315789474" type="line"/>
      <point x="129.73684210526315" y="496.18947368421055" type="line"/>
      <point x="121.73684210526311" y="436.43157894736845"/>
      <point x="115.01052631578948" y="376.86315789473684"/>
      <point x="107.28421052631577" y="320.378947368421" type="curve"/>
      <point x="85.38947368421051" y="218.81052631578947" type="line"/>
      <point x="64.74736842105261" y="136.98947368421054"/>
      <point x="49.926315789473676" y="73.3578947368421"/>
    </contour>
    <contour>
      <point x="663.6842105263158" y="0.0" type="curve"/>
      <point x="759.1684210526316" y="0.0" type="line"/>
      <point x="772.5263157894736" y="73.3578947368421"/>
      <point x="783.6105263157895" y="136.98947368421054"/>
      <point x="798.9684210526316" y="218.81052631578947" type="curve"/>
      <point x="806.9684210526316" y="257.08421052631576"/>
      <point x="815.4315789473684" y="287.5578947368421"/>
      <point x="821.4315789473684" y="315.10526315789474" type="curve" smooth="yes"/>
      <point x="847.6105263157895" y="434.91578947368424"/>
      <point x="801.3368421052631" y="507.8315789473684"/>
      <point x="700.5157894736842" y="507.8315789473684" type="curve" smooth="yes"/>
      <point x="648.536842105263" y="507.8315789473684"/>
      <point x="568.2842105263157" y="453.49473684210534"/>
      <point x="517.1789473684211" y="411.1263157894737" type="curve"/>
      <point x="507.7157894736842" y="411.1263157894737" type="line"/>
      <point x="506.7157894736842" y="336.75789473684216" type="line"/>
      <point x="562.2947368421052" y="388.7052631578947"/>
      <point x="628.063157894737" y="429.85263157894735"/>
      <point x="662.8421052631579" y="429.85263157894735" type="curve" smooth="yes"/>
      <point x="730.5999999999999" y="429.85263157894735"/>
      <point x="750.578947368421" y="381.2421052631579"/>
      <point x="731.3157894736843" y="292.4736842105263" type="curve"/>
      <point x="715.6" y="215.25263157894736" type="line"/>
      <point x="696.3263157894737" y="136.98947368421054"/>
      <point x="681.5052631578948" y="73.3578947368421"/>
    </contour>
  </outline>
</glyph>
<glyph name="n" format="2">
  <advance width="581.6631578947367"/>
  <unicode hex="006E"/>
  <anchor x="243.09473684210528" y="0.0" name="bottom"/>
  <anchor x="347.6421052631579" y="496.18947368421055" name="top"/>
  <outline>
    <contour>
      <point x="31.831578947368417" y="0.0" type="curve"/>
      <point x="127.86315789473684" y="0.0" type="line"/>
      <point x="141.22105263157897" y="73.3578947368421"/>
      <point x="152.5789473684211" y="136.98947368421054"/>
      <point x="167.11578947368423" y="215.25263157894736" type="curve"/>
      <point x="193.37894736842108" y="336.75789473684216" type="line"/>
      <point x="248.9578947368421" y="388.70526315789476"/>
      <point x="318.9052631578947" y="429.85263157894735"/>
      <point x="354.4105263157894" y="429.85263157894735" type="curve" smooth="yes"/>
      <point x="431.4315789473684" y="429.85263157894735"/>
      <point x="451.41052631578947" y="381.2421052631579"/>
      <point x="432.14736842105265" y="292.4736842105263" type="curve"/>
      <point x="416.43157894736845" y="215.25263157894736" type="line"/>
      <point x="397.15789473684214" y="136.98947368421054"/>
      <point x="382.3368421052632" y="73.3578947368421"/>
      <point x="364.5157894736842" y="0.0" type="curve"/>
      <point x="460.0" y="0.0" type="line"/>
      <point x="473.3578947368421" y="73.3578947368421"/>
      <point x="484.4421052631579" y="136.98947368421054"/>
      <point x="499.8" y="218.81052631578947" type="curve"/>
      <point x="507.8" y="257.08421052631576"/>
      <point x="516.2631578947369" y="287.5578947368421"/>
      <point x="522.2631578947369" y="315.10526315789474" type="curve" smooth="yes"/>
      <point x="548.4421052631579" y="434.9157894736842"/>
      <point x="502.1684210526316" y="507.8315789473684"/>
      <point x="392.8105263157895" y="507.8315789473684" type="curve" smooth="yes"/>
      <point x="339.378947368421" y="507.8315789473684"/>
      <point x="257.8526315789474" y="454.9473684210526"/>
      <point x="208.5684210526316" y="414.8526315789474" type="curve"/>
      <point x="200.28421052631583" y="414.8526315789474" type="line"/>
      <point x="212.72631578947372" y="501.10526315789474" type="line"/>
      <point x="129.73684210526315" y="496.18947368421055" type="line"/>
      <point x="121.73684210526311" y="436.43157894736845"/>
      <point x="115.01052631578948" y="376.86315789473684"/>
      <point x="107.28421052631577" y="320.378947368421" type="curve"/>
      <point x="85.38947368421051" y="218.81052631578947" type="line"/>
      <point x="64.74736842105261" y="136.98947368421054"/>
      <point x="49.926315789473676" y="73.3578947368421"/>
    </contour>
  </outline>
</glyph>
<glyph name="o" format="2">
  <advance width="597.2736842105263"/>
  <unicode hex="006F"/>
  <anchor x="246.0" y="0.0" name="bottom"/>
  <anchor x="298.2736842105263" y="248.09473684210528" name="center"/>
  <anchor x="347.7684210526316" y="0.0" name="ogonek"/>
  <anchor x="350.5473684210526" y="496.18947368421055" name="top"/>
  <anchor x="584.8" y="496.18947368421055" name="topright"/>
  <outline>
    <contour>
      <point x="273.9157894736842" y="-10.91578947368421" type="curve" smooth="yes"/>
      <point x="412.22105263157897" y="-10.91578947368421"/>
      <point x="513.9473684210526" y="82.71578947368421"/>
      <point x="543.7684210526315" y="222.54736842105262" type="curve" smooth="yes"/>
      <point x="575.7684210526315" y="371.82105263157894"/>
      <point x="495.0315789473684" y="507.8315789473684"/>
      <point x="324.0842105263158" y="507.8315789473684" type="curve" smooth="yes"/>
      <point x="194.22105263157894" y="507.8315789473684"/>
      <point x="84.77894736842106" y="422.4631578947368"/>
      <point x="54.231578947368426" y="274.6421052631579" type="curve" smooth="yes"/>
      <point x="23.957894736842107" y="128.2736842105263"/>
      <point x="98.14736842105265" y="-10.91578947368421"/>
    </contour>
    <contour>
      <point x="277.0105263157895" y="60.76842105263158" type="curve"/>
      <point x="158.57894736842104" y="64.3157894736842"/>
      <point x="115.43157894736842" y="157.43157894736845"/>
      <point x="137.77894736842106" y="264.81052631578945" type="curve" smooth="yes"/>
      <point x="157.94736842105263" y="363.20000000000005"/>
      <point x="223.62105263157898" y="432.6"/>
      <point x="323.2631578947368" y="436.14736842105265" type="curve"/>
      <point x="434.79999999999995" y="432.0526315789474"/>
      <point x="483.7473684210526" y="343.4736842105263"/>
      <point x="460.2210526315789" y="232.10526315789474" type="curve" smooth="yes"/>
      <point x="440.32631578947365" y="136.98947368421054"/>
      <point x="377.1052631578948" y="64.3157894736842"/>
    </contour>
  </outline>
</glyph>
<glyph name="p" format="2">
  <advance width="597.6421052631579"/>
  <unicode hex="0070"/>
  <outline>
    <contour>
      <point x="-9.894736842105267" y="-195.09473684210528" type="curve"/>
      <point x="88.50526315789476" y="-192.0" type="line"/>
      <point x="101.31578947368423" y="-118.6421052631579"/>
      <point x="112.1263157894737" y="-55.01052631578948"/>
      <point x="126.38947368421054" y="23.25263157894737" type="curve"/>
      <point x="137.02105263157898" y="71.50526315789472" type="line"/>
      <point x="144.38947368421054" y="71.50526315789472" type="line"/>
      <point x="192.02105263157895" y="27.789473684210527"/>
      <point x="257.9052631578947" y="-10.91578947368421"/>
      <point x="305.4315789473684" y="-10.91578947368421" type="curve" smooth="yes"/>
      <point x="425.7894736842105" y="-10.91578947368421"/>
      <point x="511.95789473684204" y="80.10526315789474"/>
      <point x="541.957894736842" y="223.28421052631577" type="curve" smooth="yes"/>
      <point x="573.2315789473683" y="373.8315789473684"/>
      <point x="516.7052631578947" y="507.8315789473684"/>
      <point x="370.0" y="507.8315789473684" type="curve" smooth="yes"/>
      <point x="329.0105263157895" y="507.8315789473684"/>
      <point x="256.3999999999999" y="467.7578947368421"/>
      <point x="215.1157894736842" y="433.1052631578947" type="curve"/>
      <point x="205.83157894736843" y="433.1052631578947" type="line"/>
      <point x="213.01052631578946" y="501.10526315789474" type="line"/>
      <point x="129.73684210526315" y="496.18947368421055" type="line"/>
      <point x="121.73684210526311" y="436.43157894736845"/>
      <point x="115.01052631578948" y="376.86315789473684"/>
      <point x="107.28421052631577" y="320.378947368421" type="curve"/>
      <point x="44.66315789473684" y="26.810526315789474" type="line"/>
      <point x="25.021052631578943" y="-55.01052631578948"/>
      <point x="7.92631578947368" y="-121.73684210526316"/>
    </contour>
    <contour>
      <point x="286.5473684210526" y="63.77894736842106" type="curve"/>
      <point x="249.75789473684213" y="66.05263157894737"/>
      <point x="189.09473684210525" y="97.02105263157895"/>
      <point x="151.58947368421056" y="141.33684210526314" type="curve"/>
      <point x="198.10526315789477" y="360.2" type="line"/>
      <point x="241.0631578947368" y="400.6210526315789"/>
      <point x="309.08421052631576" y="432.13684210526316"/>
      <point x="336.7052631578947" y="433.9578947368421" type="curve"/>
      <point x="443.2421052631579" y="430.9578947368421"/>
      <point x="480.6631578947368" y="339.4736842105263"/>
      <point x="458.1368421052631" y="230.56842105263158" type="curve" smooth="yes"/>
      <point x="438.24210526315784" y="135.2736842105263"/>
      <point x="383.7368421052632" y="67.05263157894737"/>
    </contour>
  </outline>
</glyph>
<glyph name="q" format="2">
  <advance width="587.0947368421052"/>
  <unicode hex="0071"/>
  <outline>
    <contour>
      <point x="322.05263157894734" y="-195.09473684210528" type="curve"/>
      <point x="418.8105263157895" y="-192.0" type="line"/>
      <point x="432.1684210526316" y="-118.6421052631579"/>
      <point x="443.5263157894737" y="-55.01052631578948"/>
      <point x="458.8842105263158" y="26.810526315789474" type="curve"/>
      <point x="521.0526315789474" y="320.378947368421" type="line"/>
      <point x="536.3368421052631" y="378.41052631578947"/>
      <point x="555.0736842105263" y="439.79999999999995"/>
      <point x="572.9052631578946" y="501.10526315789474" type="curve"/>
      <point x="488.7263157894737" y="496.18947368421055" type="line"/>
      <point x="468.90526315789475" y="428.02105263157887" type="line"/>
      <point x="460.1684210526316" y="428.02105263157887" type="line"/>
      <point x="415.8" y="466.7578947368421"/>
      <point x="342.7368421052631" y="507.8315789473684"/>
      <point x="292.4842105263158" y="507.8315789473684" type="curve" smooth="yes"/>
      <point x="172.1263157894737" y="507.8315789473684"/>
      <point x="85.9578947368421" y="416.81052631578945"/>
      <point x="55.95789473684211" y="273.63157894736844" type="curve" smooth="yes"/>
      <point x="24.68421052631579" y="123.0842105263158"/>
      <point x="81.21052631578948" y="-10.91578947368421"/>
      <point x="227.91578947368419" y="-10.91578947368421" type="curve" smooth="yes"/>
      <point x="267.53684210526313" y="-10.91578947368421"/>
      <point x="331.3263157894737" y="21.978947368421053"/>
      <point x="376.2315789473684" y="65.14736842105263" type="curve"/>
      <point x="384.69473684210527" y="65.14736842105263" type="line"/>
      <point x="375.5157894736842" y="23.25263157894737" type="line"/>
      <point x="356.9684210526316" y="-55.01052631578948"/>
      <point x="339.87368421052633" y="-121.73684210526316"/>
    </contour>
    <contour>
      <point x="261.2105263157895" y="62.95789473684211" type="curve"/>
      <point x="154.67368421052632" y="65.23157894736842"/>
      <point x="116.5263157894737" y="158.16842105263157"/>
      <point x="139.77894736842106" y="266.34736842105264" type="curve" smooth="yes"/>
      <point x="160.4" y="363.09473684210525"/>
      <point x="214.17894736842106" y="429.86315789473684"/>
      <point x="311.36842105263156" y="433.13684210526316" type="curve"/>
      <point x="350.3368421052632" y="431.58947368421053"/>
      <point x="408.821052631579" y="400.6210526315789"/>
      <point x="448.5052631578947" y="366.4736842105263" type="curve"/>
      <point x="402.7157894736842" y="152.69473684210524" type="line"/>
      <point x="363.38947368421054" y="105.01052631578948"/>
      <point x="304.0842105263158" y="65.50526315789473"/>
    </contour>
  </outline>
</glyph>
<glyph name="r" format="2">
  <advance width="406.04210526315785"/>
  <unicode hex="0072"/>
  <anchor x="74.8421052631579" y="0.0" name="bottom"/>
  <anchor x="285.6421052631579" y="496.18947368421055" name="top"/>
  <outline>
    <contour>
      <point x="31.831578947368417" y="0.0" type="curve"/>
      <point x="127.86315789473684" y="0.0" type="line"/>
      <point x="141.22105263157897" y="73.3578947368421"/>
      <point x="152.5789473684211" y="136.98947368421054"/>
      <point x="167.11578947368423" y="215.25263157894736" type="curve"/>
      <point x="189.83157894736843" y="317.20000000000005" type="line"/>
      <point x="258.49473684210534" y="386.0421052631579"/>
      <point x="318.47368421052636" y="423.5578947368421"/>
      <point x="344.4526315789473" y="423.5578947368421" type="curve" smooth="yes"/>
      <point x="352.7263157894737" y="423.5578947368421"/>
      <point x="380.4526315789473" y="416.55789473684206"/>
      <point x="408.18947368421055" y="409.4631578947368" type="curve"/>
      <point x="434.06315789473683" y="497.10526315789474" type="line"/>
      <point x="410.1578947368421" y="503.8315789473684"/>
      <point x="378.5263157894737" y="507.8315789473684"/>
      <point x="368.62105263157895" y="507.8315789473684" type="curve" smooth="yes"/>
      <point x="328.5263157894737" y="507.8315789473684"/>
      <point x="275.7368421052631" y="472.75789473684205"/>
      <point x="206.38947368421054" y="404.6842105263158" type="curve"/>
      <point x="198.10526315789474" y="404.6842105263158" type="line"/>
      <point x="212.00000000000003" y="501.10526315789474" type="line"/>
      <point x="129.73684210526315" y="496.18947368421055" type="line"/>
      <point x="121.73684210526311" y="436.43157894736845"/>
      <point x="115.01052631578948" y="376.86315789473684"/>
      <point x="107.28421052631577" y="320.378947368421" type="curve"/>
      <point x="85.38947368421051" y="218.81052631578947" type="line"/>
      <point x="64.74736842105261" y="136.98947368421054"/>
      <point x="49.926315789473676" y="73.3578947368421"/>
    </contour>
  </outline>
</glyph>
<glyph name="u" format="2">
  <advance width="561.5894736842105"/>
  <unicode hex="0075"/>
  <anchor x="228.47368421052633" y="0.0" name="bottom"/>
  <anchor x="437.18947368421055" y="0.0" name="ogonek"/>
  <anchor x="332.7473684210526" y="496.18947368421055" name="top"/>
  <anchor x="585.8736842105263" y="496.18947368421055" name="topright"/>
  <outline>
    <contour>
      <point x="187.93684210526314" y="-10.91578947368421" type="curve" smooth="yes"/>
      <point x="237.01052631578946" y="-10.91578947368421"/>
      <point x="318.5368421052632" y="41.96842105263158"/>
      <point x="367.821052631579" y="82.06315789473683" type="curve"/>
      <point x="376.10526315789474" y="82.06315789473683" type="line"/>
      <point x="360.75789473684216" y="0.0" type="line"/>
      <point x="438.8315789473684" y="0.0" type="line"/>
      <point x="452.18947368421055" y="73.3578947368421"/>
      <point x="463.2736842105263" y="136.98947368421054"/>
      <point x="477.90526315789475" y="218.81052631578947" type="curve"/>
      <point x="489.4526315789474" y="271.5473684210526" type="line"/>
      <point x="510.1894736842105" y="357.7473684210526"/>
      <point x="526.4631578947368" y="422.8315789473684"/>
      <point x="544.2842105263159" y="496.18947368421055" type="curve"/>
      <point x="448.34736842105264" y="496.18947368421055" type="line"/>
      <point x="435.2631578947369" y="422.8315789473684"/>
      <point x="422.90526315789475" y="357.7473684210526"/>
      <point x="408.5473684210526" y="279.4842105263158" type="curve"/>
      <point x="382.7368421052632" y="158.78947368421052" type="line"/>
      <point x="327.1578947368421" y="106.84210526315792"/>
      <point x="257.2105263157895" y="65.69473684210527"/>
      <point x="226.06315789473683" y="65.69473684210527" type="curve" smooth="yes"/>
      <point x="149.04210526315788" y="65.69473684210527"/>
      <point x="128.78947368421052" y="114.30526315789474"/>
      <point x="148.0526315789474" y="203.07368421052632" type="curve"/>
      <point x="163.58947368421053" y="279.4842105263158" type="line"/>
      <point x="182.13684210526318" y="357.7473684210526"/>
      <point x="199.68421052631578" y="425.9263157894737"/>
      <point x="217.50526315789475" y="499.2842105263158" type="curve"/>
      <point x="119.74736842105263" y="496.18947368421055" type="line"/>
      <point x="106.66315789473684" y="422.8315789473684"/>
      <point x="94.30526315789474" y="357.7473684210526"/>
      <point x="79.4" y="271.5473684210526" type="curve"/>
      <point x="71.40000000000002" y="235.45263157894738"/>
      <point x="65.30526315789474" y="209.3578947368421"/>
      <point x="59.305263157894736" y="181.81052631578947" type="curve" smooth="yes"/>
      <point x="33.126315789473686" y="62.00000000000001"/>
      <point x="78.57894736842105" y="-10.91578947368421"/>
    </contour>
  </outline>
</glyph>
<glyph name="v" format="2">
  <advance width="519.8105263157895"/>
  <unicode hex="0076"/>
  <outline>
    <contour>
      <point x="158.03157894736842" y="0.0" type="curve"/>
      <point x="259.5052631578948" y="0.0" type="line"/>
      <point x="294.86315789473684" y="62.27368421052632"/>
      <point x="329.2210526315789" y="123.54736842105264"/>
      <point x="363.85263157894735" y="185.82105263157897" type="curve"/>
      <point x="415.7578947368421" y="274.36842105263156" type="line"/>
      <point x="460.0315789473684" y="347.9157894736842"/>
      <point x="505.4842105263158" y="422.9157894736842"/>
      <point x="550.2105263157894" y="496.18947368421055" type="curve"/>
      <point x="445.9894736842105" y="496.18947368421055" type="line"/>
      <point x="402.7578947368421" y="415.05263157894734"/>
      <point x="360.8842105263158" y="335.0842105263158"/>
      <point x="316.10526315789474" y="249.7578947368421" type="curve"/>
      <point x="228.81052631578947" y="90.55789473684212" type="line"/>
      <point x="220.07368421052632" y="90.55789473684212" type="line"/>
      <point x="198.92631578947368" y="249.7578947368421" type="line"/>
      <point x="189.22105263157894" y="334.0842105263158"/>
      <point x="180.2421052631579" y="416.05263157894734"/>
      <point x="170.26315789473682" y="499.2842105263158" type="curve"/>
      <point x="75.6" y="496.18947368421055" type="line"/>
      <point x="89.3263157894737" y="424.4631578947368"/>
      <point x="103.32631578947368" y="348.6421052631579"/>
      <point x="117.05263157894737" y="276.09473684210525" type="curve"/>
      <point x="131.2315789473684" y="187.82105263157894" type="line"/>
      <point x="139.58947368421053" y="127.72631578947369"/>
      <point x="149.67368421052632" y="60.82105263157896"/>
    </contour>
  </outline>
</glyph>
<glyph name="w" format="2">
  <advance width="806.8947368421053"/>
  <unicode hex="0077"/>
  <anchor x="350.7578947368421" y="0.0" name="bottom"/>
  <anchor x="455.0315789473684" y="496.18947368421055" name="top"/>
  <outline>
    <contour>
      <point x="133.03157894736844" y="0.0" type="curve"/>
      <point x="233.0421052631579" y="0.0" type="line"/>
      <point x="270.46315789473687" y="76.86315789473684"/>
      <point x="311.06315789473683" y="158.6315789473684"/>
      <point x="348.4842105263158" y="234.7684210526316" type="curve"/>
      <point x="422.5157894736842" y="381.13684210526316" type="line"/>
      <point x="430.7052631578947" y="381.13684210526316" type="line"/>
      <point x="444.4105263157895" y="237.5894736842105" type="line"/>
      <point x="449.57894736842104" y="164.53684210526316"/>
      <point x="456.92631578947373" y="73.23157894736843"/>
      <point x="462.3684210526317" y="0.0" type="curve"/>
      <point x="571.1263157894737" y="0.0" type="line"/>
      <point x="602.0315789473684" y="60.54736842105264"/>
      <point x="633.6631578947369" y="123.82105263157895"/>
      <point x="667.2947368421053" y="189.82105263157894" type="curve"/>
      <point x="713.7473684210527" y="276.82105263157894" type="line"/>
      <point x="754.5684210526316" y="349.9157894736842"/>
      <point x="794.8421052631579" y="421.9157894736842"/>
      <point x="837.1157894736842" y="496.18947368421055" type="curve"/>
      <point x="732.621052631579" y="496.18947368421055" type="line"/>
      <point x="697.1052631578948" y="422.4947368421053"/>
      <point x="652.5052631578948" y="329.7157894736842"/>
      <point x="613.5368421052632" y="248.56842105263158" type="curve"/>
      <point x="533.5052631578948" y="88.27368421052631" type="line"/>
      <point x="525.7684210526315" y="88.27368421052631" type="line"/>
      <point x="512.4315789473685" y="247.29473684210527" type="line"/>
      <point x="507.0842105263158" y="328.7157894736842"/>
      <point x="501.2842105263158" y="416.7684210526316"/>
      <point x="495.9368421052631" y="496.18947368421055" type="curve"/>
      <point x="406.30526315789473" y="496.18947368421055" type="line"/>
      <point x="365.8842105263158" y="411.86315789473684"/>
      <point x="326.46315789473687" y="329.2631578947368"/>
      <point x="286.4947368421053" y="245.8421052631579" type="curve"/>
      <point x="208.6421052631579" y="88.27368421052631" type="line"/>
      <point x="200.90526315789475" y="88.27368421052631" type="line"/>
      <point x="186.8421052631579" y="242.93684210526317" type="line"/>
      <point x="181.49473684210525" y="324.3578947368421"/>
      <point x="174.96842105263158" y="416.41052631578947"/>
      <point x="168.89473684210526" y="499.2842105263158" type="curve"/>
      <point x="73.2315789473684" y="496.18947368421055" type="line"/>
      <point x="84.23157894736843" y="421.1894736842105"/>
      <point x="94.50526315789473" y="350.36842105263156"/>
      <point x="104.77894736842104" y="276.82105263157894" type="curve"/>
      <point x="115.41052631578947" y="188.09473684210525" type="line"/>
      <point x="121.76842105263157" y="123.36842105263158"/>
      <point x="127.4" y="62.27368421052632"/>
    </contour>
  </outline>
</glyph>
<glyph name="x" format="2">
  <advance width="538.1894736842105"/>
  <unicode hex="0078"/>
  <outline>
    <contour>
      <point x="-26.852631578947367" y="0.0" type="curve"/>
      <point x="86.01052631578949" y="0.0" type="line"/>
      <point x="121.8842105263158" y="44.34736842105263"/>
      <point x="148.22105263157894" y="76.51578947368421"/>
      <point x="183.3684210526316" y="120.6842105263158" type="curve"/>
      <point x="255.3052631578947" y="205.10526315789474" type="line"/>
      <point x="262.4947368421052" y="205.10526315789474" type="line"/>
      <point x="304.2631578947368" y="117.86315789473684" type="line"/>
      <point x="323.6" y="74.51578947368421"/>
      <point x="337.12631578947367" y="42.8"/>
      <point x="356.46315789473687" y="0.0" type="curve"/>
      <point x="460.13684210526316" y="0.0" type="line"/>
      <point x="425.05263157894734" y="62.915789473684214"/>
      <point x="402.42105263157896" y="104.01052631578948"/>
      <point x="375.33684210526314" y="152.2842105263158" type="curve"/>
      <point x="315.81052631578945" y="266.5684210526316" type="line"/>
      <point x="315.17894736842106" y="244.6315789473684" type="line"/>
      <point x="412.34736842105264" y="351.0" type="line"/>
      <point x="458.7052631578947" y="400.2736842105263"/>
      <point x="487.7052631578947" y="431.36842105263156"/>
      <point x="548.7894736842105" y="496.18947368421055" type="curve"/>
      <point x="435.65263157894736" y="496.18947368421055" type="line"/>
      <point x="399.2315789473684" y="451.84210526315786"/>
      <point x="373.0736842105263" y="419.12631578947367"/>
      <point x="339.5578947368421" y="377.13684210526316" type="curve"/>
      <point x="271.4315789473684" y="297.0736842105263" type="line"/>
      <point x="264.4210526315789" y="297.0736842105263" type="line"/>
      <point x="227.9157894736842" y="377.41052631578947" type="line"/>
      <point x="211.93684210526314" y="417.2210526315789"/>
      <point x="196.68421052631578" y="454.66315789473686"/>
      <point x="177.8" y="499.2842105263158" type="curve"/>
      <point x="80.23157894736842" y="496.18947368421055" type="line"/>
      <point x="111.76842105263158" y="435.36842105263156"/>
      <point x="130.67368421052632" y="398.5473684210526"/>
      <point x="157.21052631578948" y="347.82105263157894" type="curve"/>
      <point x="208.46315789473684" y="241.7263157894737" type="line"/>
      <point x="212.37894736842105" y="265.11578947368423" type="line"/>
      <point x="113.6736842105263" y="153.10526315789474" type="line"/>
      <point x="66.58947368421053" y="101.73684210526316"/>
      <point x="34.41052631578947" y="66.36842105263158"/>
    </contour>
  </outline>
</glyph>
<glyph name="y" format="2">
  <advance width="522.7157894736843"/>
  <unicode hex="0079"/>
  <anchor x="342.5157894736842" y="0.0" name="bottom"/>
  <anchor x="314.22105263157897" y="496.18947368421055" name="top"/>
  <outline>
    <contour>
      <point x="35.010526315789456" y="-195.09473684210528" type="curve"/>
      <point x="139.77894736842106" y="-192.0" type="line"/>
      <point x="181.13684210526318" y="-120.72631578947369"/>
      <point x="229.04210526315788" y="-37.90526315789474"/>
      <point x="303.0315789473684" y="89.09473684210526" type="curve"/>
      <point x="387.2105263157895" y="228.6421052631579" type="line"/>
      <point x="463.38947368421054" y="353.6421052631579"/>
      <point x="500.66315789473686" y="414.46315789473687"/>
      <point x="550.8421052631579" y="496.18947368421055" type="curve"/>
      <point x="447.4421052631579" y="496.18947368421055" type="line"/>
      <point x="403.38947368421054" y="413.3157894736842"/>
      <point x="360.3368421052632" y="333.4421052631579"/>
      <point x="314.8315789473684" y="248.38947368421054" type="curve"/>
      <point x="224.81052631578945" y="88.36842105263159" type="line"/>
      <point x="216.07368421052632" y="88.36842105263159" type="line"/>
      <point x="196.37894736842102" y="247.93684210526317" type="line"/>
      <point x="187.39999999999998" y="333.53684210526313"/>
      <point x="178.42105263157896" y="413.6842105263158"/>
      <point x="169.44210526315788" y="499.2842105263158" type="curve"/>
      <point x="74.77894736842104" y="496.18947368421055" type="line"/>
      <point x="87.77894736842104" y="424.9157894736842"/>
      <point x="101.50526315789473" y="348.9157894736842"/>
      <point x="114.50526315789473" y="277.6421052631579" type="curve"/>
      <point x="128.41052631578947" y="187.6421052631579" type="line"/>
      <point x="137.49473684210523" y="119.36842105263156"/>
      <point x="146.85263157894738" y="50.36842105263158"/>
      <point x="155.93684210526317" y="-17.905263157894737" type="curve"/>
      <point x="162.31578947368422" y="5.305263157894737" type="line"/>
      <point x="120.57894736842104" y="-60.431578947368415"/>
      <point x="76.74736842105264" y="-129.3578947368421"/>
    </contour>
  </outline>
</glyph>
<glyph name="z" format="2">
  <advance width="496.77894736842103"/>
  <unicode hex="007A"/>
  <anchor x="194.38947368421054" y="0.0" name="bottom"/>
  <anchor x="246.66315789473686" y="248.09473684210528" name="center"/>
  <anchor x="298.93684210526317" y="496.18947368421055" name="top"/>
  <outline>
    <contour>
      <point x="-13.74736842105263" y="0.0" type="line"/>
      <point x="408.88421052631577" y="0.0" type="line"/>
      <point x="424.6421052631579" y="73.14736842105265" type="line"/>
      <point x="355.11578947368423" y="69.95789473684212"/>
      <point x="264.69473684210527" y="66.49473684210527"/>
      <point x="210.16842105263157" y="64.1263157894737" type="curve"/>
      <point x="89.4842105263158" y="64.1263157894737" type="line"/>
      <point x="99.13684210526317" y="45.54736842105264" type="line"/>
      <point x="298.30526315789473" y="250.89473684210526" type="line"/>
      <point x="359.91578947368424" y="312.58947368421053"/>
      <point x="437.06315789473683" y="389.5473684210526"/>
      <point x="485.4105263157895" y="437.52631578947364" type="curve"/>
      <point x="497.5263157894737" y="496.18947368421055" type="line"/>
      <point x="92.7157894736842" y="496.18947368421055" type="line"/>
      <point x="76.68421052631578" y="421.6736842105263" type="line"/>
      <point x="150.38947368421054" y="425.1368421052631"/>
      <point x="243.63157894736844" y="429.14736842105265"/>
      <point x="297.978947368421" y="431.7894736842105" type="curve"/>
      <point x="407.57894736842104" y="431.7894736842105" type="line"/>
      <point x="395.46315789473687" y="459.9157894736842" type="line"/>
      <point x="194.28421052631577" y="250.3684210526316" type="line"/>
      <point x="136.1263157894737" y="191.57894736842107"/>
      <point x="68.06315789473685" y="122.8842105263158"/>
      <point x="-2.7263157894736834" y="51.73684210526316" type="curve"/>
    </contour>
  </outline>
</glyph>
<glyph name="braceleft" format="2">
  <advance width="404.2947368421053"/>
  <unicode hex="007B"/>
  <outline>
    <contour>
      <point x="231.42105263157896" y="-116.92631578947369" type="curve" smooth="yes"/>
      <point x="312.4526315789474" y="-116.92631578947369" type="line"/>
      <point x="326.93684210526317" y="-45.694736842105264" type="line"/>
      <point x="293.66315789473686" y="-46.96842105263157"/>
      <point x="266.38947368421054" y="-47.51578947368421"/>
      <point x="249.38947368421051" y="-47.78947368421053" type="curve"/>
      <point x="186.8842105263158" y="-46.694736842105264"/>
      <point x="165.08421052631581" y="-8.347368421052629"/>
      <point x="175.44210526315788" y="46.810526315789474" type="curve" smooth="yes"/>
      <point x="213.32631578947368" y="243.16842105263157" type="line" smooth="yes"/>
      <point x="214.8736842105263" y="252.17894736842103"/>
      <point x="179.31578947368422" y="296.2631578947369"/>
      <point x="151.8421052631579" y="318.2736842105263" type="curve"/>
      <point x="153.38947368421054" y="326.7368421052631" type="line"/>
      <point x="188.41052631578947" y="348.29473684210524"/>
      <point x="246.42105263157893" y="399.8315789473684"/>
      <point x="248.51578947368426" y="409.66315789473686" type="curve" smooth="yes"/>
      <point x="295.3157894736842" y="616.9157894736842" type="line" smooth="yes"/>
      <point x="308.2210526315789" y="674.2526315789474"/>
      <point x="340.47368421052636" y="696.0631578947368"/>
      <point x="399.62105263157895" y="697.1578947368421" type="curve"/>
      <point x="418.8" y="696.8842105263158"/>
      <point x="454.9684210526315" y="695.6105263157895"/>
      <point x="481.06315789473683" y="695.0631578947368" type="curve"/>
      <point x="496.5473684210526" y="766.2947368421053" type="line"/>
      <point x="397.6105263157895" y="766.2947368421053" type="line" smooth="yes"/>
      <point x="299.2" y="766.2947368421053"/>
      <point x="234.25263157894733" y="727.1894736842105"/>
      <point x="217.15789473684208" y="635.9684210526316" type="curve"/>
      <point x="215.4315789473684" y="627.0631578947368"/>
      <point x="184.08421052631576" y="463.93684210526317"/>
      <point x="182.3578947368421" y="455.30526315789473" type="curve"/>
      <point x="169.45263157894738" y="390.7789473684211"/>
      <point x="109.22105263157896" y="355.7894736842105"/>
      <point x="75.48421052631578" y="355.7894736842105" type="curve" smooth="yes"/>
      <point x="35.294736842105266" y="355.7894736842105" type="line"/>
      <point x="22.178947368421053" y="292.85263157894735" type="line"/>
      <point x="62.36842105263158" y="292.85263157894735" type="line" smooth="yes"/>
      <point x="96.10526315789475" y="292.85263157894735"/>
      <point x="142.15789473684208" y="265.1263157894737"/>
      <point x="127.0736842105263" y="193.33684210526314" type="curve"/>
      <point x="125.34736842105262" y="184.70526315789473"/>
      <point x="94.81052631578946" y="50.0421052631579"/>
      <point x="93.08421052631577" y="41.410526315789475" type="curve"/>
      <point x="74.89473684210525" y="-47.357894736842105"/>
      <point x="126.47368421052632" y="-116.92631578947369"/>
    </contour>
  </outline>
</glyph>
<glyph name="bar" format="2">
  <advance width="264.2315789473684"/>
  <unicode hex="007C"/>
  <outline>
    <contour>
      <point x="4.6631578947368375" y="-156.73684210526315" type="curve"/>
      <point x="87.9263157894737" y="-156.73684210526315" type="line"/>
      <point x="115.55789473684212" y="-19.28421052631579"/>
      <point x="145.46315789473687" y="133.9894736842105"/>
      <point x="153.18947368421055" y="172.26315789473685" type="curve"/>
      <point x="213.18947368421055" y="454.2631578947368" type="line"/>
      <point x="221.73684210526318" y="492.8105263157895"/>
      <point x="256.8315789473684" y="644.8105263157895"/>
      <point x="287.92631578947373" y="783.2631578947369" type="curve"/>
      <point x="204.66315789473686" y="783.2631578947369" type="line"/>
      <point x="177.03157894736842" y="644.8105263157895"/>
      <point x="147.1263157894737" y="492.5368421052632"/>
      <point x="139.4" y="454.2631578947368" type="curve"/>
      <point x="79.39999999999999" y="172.26315789473685" type="line"/>
      <point x="71.12631578947368" y="134.53684210526313"/>
      <point x="35.75789473684209" y="-19.010526315789473"/>
    </contour>
  </outline>
</glyph>
<glyph name="asciitilde" format="2">
  <advance width="568.2105263157895"/>
  <unicode hex="007E"/>
  <outline>
    <contour>
      <point x="406.55789473684206" y="220.9578947368421" type="curve" smooth="yes"/>
      <point x="470.04210526315785" y="220.9578947368421"/>
      <point x="512.1473684210526" y="271.82105263157894"/>
      <point x="530.978947368421" y="362.06315789473683" type="curve"/>
      <point x="475.70526315789476" y="362.06315789473683" type="line"/>
      <point x="460.0736842105263" y="316.46315789473687"/>
      <point x="443.8105263157895" y="297.2"/>
      <point x="407.65263157894736" y="294.9263157894737" type="curve"/>
      <point x="340.40000000000003" y="298.29473684210524"/>
      <point x="266.2947368421053" y="377.5263157894737"/>
      <point x="187.38947368421051" y="377.5263157894737" type="curve" smooth="yes"/>
      <point x="122.26315789473685" y="377.5263157894737"/>
      <point x="78.88421052631578" y="325.66315789473686"/>
      <point x="59.32631578947368" y="236.42105263157896" type="curve"/>
      <point x="114.60000000000001" y="236.42105263157896" type="line"/>
      <point x="130.2315789473684" y="282.0210526315789"/>
      <point x="148.76842105263157" y="301.2842105263158"/>
      <point x="184.7473684210526" y="303.5578947368421" type="curve"/>
      <point x="251.35789473684207" y="300.18947368421055"/>
      <point x="326.5578947368421" y="220.9578947368421"/>
    </contour>
  </outline>
</glyph>
<glyph name="cent" format="2">
  <advance width="494.33684210526314"/>
  <unicode hex="00A2"/>
  <anchor x="233.34736842105264" y="0.0" name="bottom"/>
  <anchor x="331.3578947368421" y="496.18947368421055" name="top"/>
  <outline>
    <contour>
      <point x="163.4" y="-137.0" type="curve"/>
      <point x="234.98947368421054" y="-137.0" type="line"/>
      <point x="261.5263157894737" y="-5.294736842105263"/>
      <point x="289.2421052631579" y="134.8421052631579"/>
      <point x="300.2526315789474" y="192.2736842105263" type="curve"/>
      <point x="322.2526315789474" y="295.09473684210525" type="line"/>
      <point x="335.4526315789474" y="352.52631578947364"/>
      <point x="367.2631578947368" y="491.3894736842105"/>
      <point x="396.98947368421057" y="624.3684210526316" type="curve"/>
      <point x="325.4" y="624.3684210526316" type="line"/>
      <point x="298.58947368421053" y="490.84210526315786"/>
      <point x="271.14736842105265" y="352.25263157894733"/>
      <point x="260.13684210526316" y="295.09473684210525" type="curve"/>
      <point x="238.13684210526316" y="192.2736842105263" type="line"/>
      <point x="225.21052631578948" y="135.93684210526317"/>
      <point x="193.12631578947367" y="-4.747368421052632"/>
    </contour>
    <contour>
      <point x="280.5578947368421" y="-10.094736842105263" type="curve" smooth="yes"/>
      <point x="314.09473684210525" y="-10.094736842105263"/>
      <point x="375.4526315789474" y="8.16842105263158"/>
      <point x="402.4526315789474" y="18.347368421052632" type="curve"/>
      <point x="410.93684210526317" y="98.1263157894737" type="line"/>
      <point x="375.85263157894735" y="81.31578947368422"/>
      <point x="315.7684210526316" y="62.863157894736844"/>
      <point x="293.14736842105265" y="62.13684210526316" type="curve" smooth="yes"/>
      <point x="176.67368421052632" y="64.13684210526316"/>
      <point x="110.70526315789473" y="139.26315789473685"/>
      <point x="138.05263157894737" y="266.72631578947363" type="curve" smooth="yes"/>
      <point x="161.4" y="373.91578947368424"/>
      <point x="235.1578947368421" y="428.9578947368421"/>
      <point x="327.7263157894737" y="433.9578947368421" type="curve"/>
      <point x="343.53684210526313" y="433.9578947368421"/>
      <point x="408.62105263157895" y="413.7789473684211"/>
      <point x="469.61052631578946" y="388.4210526315789" type="curve"/>
      <point x="492.10526315789474" y="464.56842105263155" type="line"/>
      <point x="445.8105263157895" y="480.6631578947368"/>
      <point x="359.81052631578956" y="507.5578947368421"/>
      <point x="328.178947368421" y="507.5578947368421" type="curve" smooth="yes"/>
      <point x="186.68421052631578" y="507.5578947368421"/>
      <point x="83.05263157894737" y="413.37894736842105"/>
      <point x="54.50526315789474" y="276.0105263157895" type="curve" smooth="yes"/>
      <point x="19.863157894736844" y="107.98947368421052"/>
      <point x="110.8" y="-10.094736842105263"/>
    </contour>
  </outline>
</glyph>
<glyph name="sterling" format="2">
  <advance width="591.0421052631579"/>
  <unicode hex="00A3"/>
  <outline>
    <contour>
      <point x="11.778947368421054" y="0.0" type="line"/>
      <point x="505.1368421052632" y="0.0" type="line"/>
      <point x="523.0842105263158" y="84.45263157894738" type="line"/>
      <point x="444.7263157894737" y="82.0842105263158"/>
      <point x="321.38947368421054" y="79.16842105263159"/>
      <point x="231.93684210526317" y="76.52631578947368" type="curve"/>
      <point x="89.6842105263158" y="76.52631578947368" type="line"/>
      <point x="110.18947368421053" y="54.515789473684215" type="line"/>
      <point x="198.5368421052632" y="171.93684210526317"/>
      <point x="219.44210526315794" y="206.47368421052633"/>
      <point x="226.8947368421053" y="242.73684210526315" type="curve" smooth="yes"/>
      <point x="273.3157894736842" y="460.3157894736842" type="line" smooth="yes"/>
      <point x="296.93684210526317" y="570.6105263157895"/>
      <point x="349.6421052631579" y="620.8526315789474"/>
      <point x="440.7684210526316" y="622.6736842105263" type="curve"/>
      <point x="457.3052631578948" y="622.6736842105263"/>
      <point x="524.3894736842105" y="602.4947368421052"/>
      <point x="587.378947368421" y="576.8631578947368" type="curve"/>
      <point x="613.3368421052631" y="656.5684210526315" type="line"/>
      <point x="561.7578947368421" y="672.1157894736841"/>
      <point x="468.1052631578948" y="698.7368421052631"/>
      <point x="434.10526315789474" y="698.7368421052631" type="curve" smooth="yes"/>
      <point x="306.86315789473684" y="698.7368421052631"/>
      <point x="217.4842105263158" y="624.8947368421052"/>
      <point x="185.93684210526317" y="473.3368421052632" type="curve" smooth="yes"/>
      <point x="169.57894736842107" y="398.63157894736844"/>
      <point x="151.86315789473684" y="300.10526315789474"/>
      <point x="135.4105263157895" y="221.56842105263158" type="curve"/>
      <point x="129.6842105263158" y="195.30526315789473"/>
      <point x="108.3263157894737" y="159.41052631578947"/>
      <point x="22.978947368421053" y="52.45263157894737" type="curve"/>
    </contour>
    <contour>
      <point x="79.23157894736842" y="341.5473684210526" type="line"/>
      <point x="142.1578947368421" y="343.09473684210525"/>
      <point x="212.34736842105264" y="344.6421052631579"/>
      <point x="253.64210526315793" y="345.1894736842105" type="curve"/>
      <point x="287.4736842105263" y="345.1894736842105" type="line"/>
      <point x="328.2210526315789" y="344.6421052631579"/>
      <point x="396.9578947368421" y="343.09473684210525"/>
      <point x="459.3368421052632" y="341.5473684210526" type="curve"/>
      <point x="474.0" y="410.2210526315789" type="line"/>
      <point x="411.3473684210526" y="408.6736842105263"/>
      <point x="341.6105263157894" y="407.12631578947367"/>
      <point x="300.31578947368416" y="406.57894736842104" type="curve"/>
      <point x="266.4842105263158" y="406.57894736842104" type="line"/>
      <point x="225.73684210526315" y="407.12631578947367"/>
      <point x="156.54736842105262" y="408.6736842105263"/>
      <point x="93.89473684210527" y="410.2210526315789" type="curve"/>
    </contour>
  </outline>
</glyph>
<glyph name="currency" format="2">
  <advance width="622.9894736842106"/>
  <unicode hex="00A4"/>
  <outline>
    <contour>
      <point x="311.1263157894737" y="114.94736842105262" type="curve" smooth="yes"/>
      <point x="426.34736842105264" y="114.94736842105262"/>
      <point x="503.91578947368424" y="171.5894736842105"/>
      <point x="528.3789473684211" y="293.34736842105264" type="curve" smooth="yes"/>
      <point x="553.5684210526316" y="417.8315789473684"/>
      <point x="468.0" y="525.2315789473685"/>
      <point x="340.4947368421053" y="525.2315789473685" type="curve" smooth="yes"/>
      <point x="230.35789473684213" y="525.2315789473685"/>
      <point x="146.52631578947367" y="469.3157894736842"/>
      <point x="122.06315789473683" y="347.5578947368421" type="curve" smooth="yes"/>
      <point x="96.8736842105263" y="222.3473684210526"/>
      <point x="180.71578947368423" y="114.94736842105262"/>
    </contour>
    <contour>
      <point x="98.16842105263159" y="50.73684210526316" type="line"/>
      <point x="143.17894736842103" y="94.29473684210527"/>
      <point x="192.54736842105262" y="142.48421052631576"/>
      <point x="221.92631578947368" y="171.13684210526316" type="curve"/>
      <point x="170.7263157894737" y="225.97894736842105" type="line"/>
      <point x="140.07368421052632" y="199.14736842105262"/>
      <point x="87.88421052631578" y="153.05263157894737"/>
      <point x="42.05263157894737" y="111.3157894736842" type="curve"/>
    </contour>
    <contour>
      <point x="316.41052631578947" y="186.90526315789475" type="curve"/>
      <point x="234.46315789473684" y="190.00000000000003"/>
      <point x="180.58947368421053" y="256.41052631578947"/>
      <point x="196.57894736842107" y="337.53684210526313" type="curve" smooth="yes"/>
      <point x="211.29473684210527" y="414.0210526315789"/>
      <point x="266.8" y="451.2736842105263"/>
      <point x="336.30526315789473" y="454.09473684210525" type="curve"/>
      <point x="416.62105263157895" y="450.7263157894737"/>
      <point x="470.4" y="383.7684210526316"/>
      <point x="454.6842105263158" y="304.46315789473687" type="curve" smooth="yes"/>
      <point x="438.9684210526316" y="225.33684210526317"/>
      <point x="390.0" y="188.90526315789475"/>
    </contour>
    <contour>
      <point x="195.81052631578947" y="407.93684210526317" type="curve"/>
      <point x="249.10526315789474" y="457.7684210526316" type="line"/>
      <point x="221.99999999999997" y="488.42105263157896"/>
      <point x="175.90526315789472" y="540.6105263157895"/>
      <point x="134.1684210526316" y="586.7157894736843" type="curve"/>
      <point x="75.41052631578948" y="531.421052631579" type="line"/>
      <point x="118.2421052631579" y="487.13684210526316"/>
      <point x="166.70526315789473" y="437.04210526315785"/>
    </contour>
    <contour>
      <point x="520.2736842105263" y="54.73684210526315" type="curve"/>
      <point x="579.0315789473684" y="110.03157894736842" type="line"/>
      <point x="536.2" y="154.3157894736842"/>
      <point x="487.7368421052631" y="204.41052631578947"/>
      <point x="458.63157894736844" y="233.5157894736842" type="curve"/>
      <point x="405.33684210526314" y="183.68421052631578" type="line"/>
      <point x="432.4421052631579" y="153.0315789473684"/>
      <point x="478.5368421052632" y="100.84210526315789"/>
    </contour>
    <contour>
      <point x="483.7157894736842" y="415.47368421052636" type="line"/>
      <point x="514.3684210526316" y="442.30526315789473"/>
      <point x="566.5578947368422" y="488.40000000000003"/>
      <point x="612.3894736842105" y="530.1368421052632" type="curve"/>
      <point x="556.2736842105263" y="590.7157894736843" type="line"/>
      <point x="511.2631578947369" y="547.1578947368421"/>
      <point x="461.89473684210526" y="498.9684210526316"/>
      <point x="432.5157894736842" y="470.3157894736842" type="curve"/>
    </contour>
  </outline>
</glyph>
<glyph name="yen" format="2">
  <advance width="624.8947368421052"/>
  <unicode hex="00A5"/>
  <outline>
    <contour>
      <point x="278.85263157894735" y="269.38947368421054" type="line"/>
      <point x="356.021052631579" y="269.38947368421054" type="line"/>
      <point x="556.7368421052631" y="520.7052631578947" type="line"/>
      <point x="605.2842105263157" y="578.4421052631579"/>
      <point x="651.8315789473684" y="634.6315789473684"/>
      <point x="694.6526315789474" y="685.6421052631579" type="curve"/>
      <point x="576.6736842105263" y="685.6421052631579" type="line"/>
      <point x="510.1894736842105" y="595.4947368421052"/>
      <point x="479.8526315789474" y="553.6"/>
      <point x="426.81052631578945" y="481.5368421052632" type="curve"/>
      <point x="335.61052631578946" y="362.6736842105263" type="line"/>
      <point x="327.4210526315789" y="362.6736842105263" type="line"/>
      <point x="286.8315789473684" y="476.98947368421057" type="line"/>
      <point x="263.6842105263157" y="549.2315789473685"/>
      <point x="249.70526315789473" y="594.0421052631579"/>
      <point x="220.29473684210524" y="685.6421052631579" type="curve"/>
      <point x="114.2421052631579" y="685.6421052631579" type="line"/>
      <point x="149.96842105263156" y="601.2631578947369"/>
      <point x="163.24210526315787" y="569.0736842105264"/>
      <point x="183.96842105263158" y="519.8842105263158" type="curve"/>
    </contour>
    <contour>
      <point x="210.4736842105263" y="0.0" type="curve"/>
      <point x="310.5157894736842" y="0.0" type="line"/>
      <point x="324.6" y="76.81052631578946"/>
      <point x="336.2315789473684" y="140.44210526315788"/>
      <point x="351.58947368421053" y="224.98947368421054" type="curve"/>
      <point x="375.88421052631577" y="339.82105263157894" type="line"/>
      <point x="289.32631578947365" y="339.82105263157894" type="line"/>
      <point x="265.0315789473684" y="225.26315789473685" type="line"/>
      <point x="244.38947368421051" y="140.7157894736842"/>
      <point x="229.29473684210527" y="77.53684210526315"/>
    </contour>
    <contour>
      <point x="57.326315789473675" y="137.66315789473683" type="line"/>
      <point x="119.97894736842106" y="139.21052631578948"/>
      <point x="189.7157894736842" y="140.7578947368421"/>
      <point x="230.73684210526315" y="141.30526315789473" type="curve"/>
      <point x="350.0421052631579" y="141.30526315789473" type="line"/>
      <point x="391.0631578947368" y="140.7578947368421"/>
      <point x="460.2526315789474" y="139.21052631578948"/>
      <point x="522.9052631578948" y="137.66315789473683" type="curve"/>
      <point x="535.4736842105262" y="199.49473684210525" type="line"/>
      <point x="472.5473684210527" y="198.49473684210525"/>
      <point x="403.08421052631576" y="197.49473684210525"/>
      <point x="362.0631578947369" y="197.22105263157894" type="curve"/>
      <point x="242.7578947368421" y="197.22105263157894" type="line"/>
      <point x="201.73684210526315" y="197.49473684210525"/>
      <point x="132.2736842105263" y="198.49473684210525"/>
      <point x="69.89473684210526" y="199.49473684210525" type="curve"/>
    </contour>
    <contour>
      <point x="87.61052631578947" y="282.4421052631579" type="line"/>
      <point x="150.9894736842105" y="283.4421052631579"/>
      <point x="220.45263157894735" y="284.4421052631579"/>
      <point x="261.47368421052636" y="284.7157894736842" type="curve"/>
      <point x="380.7789473684211" y="284.7157894736842" type="line"/>
      <point x="421.79999999999995" y="284.4421052631579"/>
      <point x="491.2631578947369" y="283.4421052631579"/>
      <point x="553.1894736842105" y="282.4421052631579" type="curve"/>
      <point x="566.4842105263158" y="344.2736842105263" type="line"/>
      <point x="503.5578947368421" y="342.7263157894737"/>
      <point x="433.8210526315789" y="341.17894736842106"/>
      <point x="392.8" y="340.63157894736844" type="curve"/>
      <point x="273.4947368421053" y="340.63157894736844" type="line"/>
      <point x="232.4736842105263" y="341.17894736842106"/>
      <point x="163.28421052631577" y="342.7263157894737"/>
      <point x="100.90526315789475" y="344.2736842105263" type="curve"/>
    </contour>
  </outline>
</glyph>
<glyph name="section" format="2">
  <advance width="546.2988505747127"/>
  <unicode hex="00A7"/>
  <outline>
    <contour>
      <point x="190.56321839080462" y="-125.58620689655173" type="curve" smooth="yes"/>
      <point x="320.91954022988506" y="-125.58620689655173"/>
      <point x="391.5057471264368" y="-72.80459770114943"/>
      <point x="410.1034482758621" y="14.183908045977015" type="curve" smooth="yes"/>
      <point x="432.1034482758621" y="117.97701149425288"/>
      <point x="365.4712643678161" y="170.17241379310346"/>
      <point x="257.89655172413796" y="217.36781609195404" type="curve" smooth="yes"/>
      <point x="154.64367816091954" y="262.5977011494253"/>
      <point x="139.4367816091954" y="292.81609195402297"/>
      <point x="151.04597701149427" y="345.6666666666667" type="curve" smooth="yes"/>
      <point x="164.05747126436782" y="405.9310344827586"/>
      <point x="226.90804597701148" y="425.11494252873564"/>
      <point x="267.91954022988506" y="429.11494252873564" type="curve"/>
      <point x="226.7471264367816" y="486.01149425287355" type="line"/>
      <point x="155.9655172413793" y="475.4022988505747"/>
      <point x="83.4367816091954" y="429.41379310344826"/>
      <point x="67.04597701149426" y="353.25287356321843" type="curve" smooth="yes"/>
      <point x="48.241379310344826" y="264.632183908046"/>
      <point x="90.28735632183907" y="214.86206896551724"/>
      <point x="196.6551724137931" y="165.47126436781608" type="curve" smooth="yes"/>
      <point x="304.4942528735632" y="115.44827586206897"/>
      <point x="340.3103448275862" y="88.816091954023"/>
      <point x="326.2988505747127" y="23.35632183908046" type="curve" smooth="yes"/>
      <point x="312.28735632183907" y="-41.90804597701149"/>
      <point x="251.0344827586207" y="-53.5287356321839"/>
      <point x="185.79310344827587" y="-55.5287356321839" type="curve"/>
      <point x="148.36781609195407" y="-55.5287356321839"/>
      <point x="76.79310344827584" y="-25.333333333333332"/>
      <point x="0.5977011494252872" y="10.264367816091955" type="curve"/>
      <point x="-20.96551724137931" y="-65.57471264367817" type="line"/>
      <point x="55.60919540229885" y="-95.37931034482757"/>
      <point x="143.97701149425288" y="-125.58620689655173"/>
    </contour>
    <contour>
      <point x="360.95402298850576" y="117.00000000000001" type="line"/>
      <point x="444.51724137931035" y="131.20689655172413"/>
      <point x="498.67816091954023" y="177.5977011494253"/>
      <point x="513.8735632183908" y="251.5632183908046" type="curve" smooth="yes"/>
      <point x="534.0804597701149" y="348.9770114942529"/>
      <point x="469.2413793103448" y="400.7701149425287"/>
      <point x="362.264367816092" y="447.9655172413793" type="curve" smooth="yes"/>
      <point x="260.2068965517241" y="493.1954022988506"/>
      <point x="243.20689655172416" y="524.0229885057472"/>
      <point x="254.816091954023" y="577.2643678160919" type="curve" smooth="yes"/>
      <point x="269.2298850574713" y="642.735632183908"/>
      <point x="339.2873563218391" y="653.5402298850576"/>
      <point x="376.3103448275862" y="656.1379310344828" type="curve"/>
      <point x="395.51724137931035" y="656.1379310344828"/>
      <point x="473.11494252873564" y="630.3448275862069"/>
      <point x="542.9195402298852" y="602.551724137931" type="curve"/>
      <point x="564.2758620689655" y="677.5977011494253" type="line"/>
      <point x="510.10344827586204" y="694.7931034482757"/>
      <point x="408.72413793103453" y="726.1954022988506"/>
      <point x="367.9425287356322" y="726.1954022988506" type="curve" smooth="yes"/>
      <point x="266.8045977011494" y="726.1954022988506"/>
      <point x="189.60919540229884" y="676.609195402299"/>
      <point x="170.816091954023" y="588.4367816091954" type="curve" smooth="yes"/>
      <point x="150.816091954023" y="494.2413793103448"/>
      <point x="200.0344827586207" y="443.06896551724134"/>
      <point x="301.62068965517244" y="396.66666666666663" type="curve" smooth="yes"/>
      <point x="409.4597701149425" y="347.2413793103448"/>
      <point x="444.48275862068965" y="319.62068965517244"/>
      <point x="431.0689655172414" y="254.16091954022988" type="curve" smooth="yes"/>
      <point x="420.65517241379314" y="202.70114942528735"/>
      <point x="369.24137931034477" y="176.1149425287356"/>
      <point x="316.60919540229884" y="170.31034482758622" type="curve"/>
    </contour>
  </outline>
</glyph>
<glyph name="copyright" format="2">
  <advance width="817.5052631578948"/>
  <unicode hex="00A9"/>
  <outline>
    <contour>
      <point x="432.2526315789474" y="-10.91578947368421" type="curve" smooth="yes"/>
      <point x="654.3684210526316" y="-10.91578947368421"/>
      <point x="787.3578947368421" y="140.6315789473684"/>
      <point x="787.3578947368421" y="344.2736842105263" type="curve" smooth="yes"/>
      <point x="787.3578947368421" y="541.0947368421052"/>
      <point x="660.6421052631579" y="698.7368421052631"/>
      <point x="429.1578947368421" y="698.7368421052631" type="curve" smooth="yes"/>
      <point x="201.4" y="698.7368421052631"/>
      <point x="70.14736842105263" y="543.5473684210526"/>
      <point x="70.14736842105263" y="344.0" type="curve" smooth="yes"/>
      <point x="70.14736842105263" y="152.3684210526316"/>
      <point x="190.76842105263157" y="-10.91578947368421"/>
    </contour>
    <contour>
      <point x="440.0736842105263" y="155.7263157894737" type="curve" smooth="yes"/>
      <point x="476.5052631578947" y="155.7263157894737"/>
      <point x="521.8947368421052" y="169.26315789473685"/>
      <point x="548.7157894736843" y="178.44210526315788" type="curve"/>
      <point x="542.7157894736843" y="239.4421052631579" type="line"/>
      <point x="510.82105263157894" y="223.7263157894737"/>
      <point x="476.5473684210527" y="213.0"/>
      <point x="451.8421052631579" y="213.0" type="curve"/>
      <point x="369.2526315789474" y="214.7263157894737"/>
      <point x="323.7263157894737" y="264.3263157894737"/>
      <point x="323.7263157894737" y="345.5473684210526" type="curve" smooth="yes"/>
      <point x="323.7263157894737" y="429.38947368421054"/>
      <point x="372.0526315789474" y="472.3578947368421"/>
      <point x="438.7263157894737" y="474.63157894736844" type="curve"/>
      <point x="454.71578947368425" y="474.63157894736844"/>
      <point x="496.81052631578945" y="464.5368421052632"/>
      <point x="541.8947368421053" y="444.0" type="curve"/>
      <point x="547.8105263157895" y="506.09473684210525" type="line"/>
      <point x="515.4315789473684" y="517.6421052631579"/>
      <point x="465.59999999999997" y="533.0"/>
      <point x="433.2526315789474" y="533.0" type="curve" smooth="yes"/>
      <point x="321.05263157894734" y="533.0"/>
      <point x="257.14736842105265" y="451.2736842105263"/>
      <point x="257.14736842105265" y="344.17894736842106" type="curve" smooth="yes"/>
      <point x="257.14736842105265" y="237.0842105263158"/>
      <point x="323.33684210526314" y="155.7263157894737"/>
    </contour>
    <contour>
      <point x="431.9789473684211" y="43.25263157894737" type="curve"/>
      <point x="238.0842105263158" y="48.347368421052636"/>
      <point x="126.50526315789475" y="160.61052631578949"/>
      <point x="126.50526315789475" y="344.0" type="curve" smooth="yes"/>
      <point x="126.50526315789475" y="526.4947368421052"/>
      <point x="242.3578947368421" y="639.4736842105264"/>
      <point x="429.4315789473684" y="644.5684210526316" type="curve"/>
      <point x="617.7789473684211" y="639.4736842105264"/>
      <point x="731.0" y="527.6736842105263"/>
      <point x="731.0" y="344.2736842105263" type="curve" smooth="yes"/>
      <point x="731.0" y="158.77894736842106"/>
      <point x="615.6842105263158" y="48.347368421052636"/>
    </contour>
  </outline>
</glyph>
<glyph name="ordfeminine" format="2">
  <advance width="395.17241379310343"/>
  <unicode hex="00AA"/>
  <outline>
    <contour>
      <point x="182.83908045977012" y="332.60919540229884" type="curve" smooth="yes"/>
      <point x="214.45977011494253" y="332.60919540229884"/>
      <point x="269.8735632183908" y="366.6206896551724"/>
      <point x="311.06896551724134" y="401.0229885057471" type="curve"/>
      <point x="317.2643678160919" y="401.0229885057471" type="line"/>
      <point x="319.264367816092" y="340.2068965517241" type="line"/>
      <point x="382.13793103448273" y="340.2068965517241" type="line"/>
      <point x="381.735632183908" y="379.39080459770116"/>
      <point x="381.3333333333333" y="409.37931034482756"/>
      <point x="381.5287356321839" y="447.35632183908046" type="curve"/>
      <point x="392.54022988505744" y="500.41379310344826" type="line" smooth="yes"/>
      <point x="398.94252873563215" y="530.8275862068966"/>
      <point x="407.54022988505744" y="560.8275862068966"/>
      <point x="411.13793103448273" y="580.2068965517242" type="curve" smooth="yes"/>
      <point x="429.735632183908" y="668.1954022988505"/>
      <point x="385.5632183908046" y="726.1954022988506"/>
      <point x="288.98850574712645" y="726.1954022988506" type="curve" smooth="yes"/>
      <point x="263.18390804597703" y="726.1954022988506"/>
      <point x="189.41379310344828" y="709.7931034482758"/>
      <point x="153.02298850574712" y="701.390804597701" type="curve"/>
      <point x="143.24137931034483" y="635.3103448275862" type="line"/>
      <point x="204.2298850574713" y="654.1034482758621"/>
      <point x="258.42528735632186" y="668.7011494252873"/>
      <point x="272.4367816091954" y="668.7011494252873" type="curve" smooth="yes"/>
      <point x="332.86206896551727" y="668.7011494252873"/>
      <point x="364.08045977011494" y="640.8850574712644"/>
      <point x="350.0574712643678" y="584.7931034482759" type="curve"/>
      <point x="222.42528735632183" y="561.3793103448276" type="line" smooth="yes"/>
      <point x="156.24137931034485" y="549.3793103448276"/>
      <point x="99.02298850574712" y="524.9999999999999"/>
      <point x="83.02298850574712" y="452.8045977011494" type="curve" smooth="yes"/>
      <point x="67.02298850574712" y="383.2068965517241"/>
      <point x="110.82758620689656" y="332.60919540229884"/>
    </contour>
    <contour>
      <point x="210.55172413793105" y="385.71264367816093" type="curve" smooth="yes"/>
      <point x="166.9080459770115" y="385.71264367816093"/>
      <point x="135.8850574712644" y="409.5287356321839"/>
      <point x="145.89655172413794" y="457.5862068965517" type="curve" smooth="yes"/>
      <point x="155.10344827586206" y="500.0229885057471"/>
      <point x="195.13793103448276" y="509.82758620689657"/>
      <point x="238.3793103448276" y="519.0344827586206" type="curve" smooth="yes"/>
      <point x="309.2528735632184" y="534.0459770114943"/>
      <point x="324.4597701149425" y="539.448275862069"/>
      <point x="341.47126436781605" y="547.448275862069" type="curve"/>
      <point x="321.0574712643678" y="454.97701149425285" type="line"/>
      <point x="279.4137931034483" y="409.1264367816092"/>
      <point x="232.57471264367817" y="385.71264367816093"/>
    </contour>
  </outline>
</glyph>
<glyph name="registered" format="2">
  <advance width="569.1157894736842"/>
  <unicode hex="00AE"/>
  <outline>
    <contour>
      <point x="340.46315789473687" y="254.77894736842106" type="curve" smooth="yes"/>
      <point x="495.67368421052635" y="254.77894736842106"/>
      <point x="586.8526315789474" y="359.5157894736842"/>
      <point x="586.8526315789474" y="500.34736842105264" type="curve" smooth="yes"/>
      <point x="586.8526315789474" y="636.0842105263158"/>
      <point x="500.4947368421053" y="745.3684210526316"/>
      <point x="338.0947368421053" y="745.3684210526316" type="curve" smooth="yes"/>
      <point x="177.51578947368418" y="745.3684210526316"/>
      <point x="89.52631578947368" y="637.8105263157895"/>
      <point x="89.52631578947368" y="500.0736842105263" type="curve" smooth="yes"/>
      <point x="89.52631578947368" y="368.70526315789476"/>
      <point x="171.33684210526314" y="254.77894736842106"/>
    </contour>
    <contour>
      <point x="236.8" y="364.1684210526316" type="curve"/>
      <point x="287.6842105263158" y="364.1684210526316" type="line"/>
      <point x="286.13684210526316" y="403.7052631578947"/>
      <point x="285.58947368421053" y="415.90526315789475"/>
      <point x="284.0421052631579" y="458.1684210526316" type="curve"/>
      <point x="284.0421052631579" y="550.1684210526316" type="line"/>
      <point x="285.58947368421053" y="591.978947368421"/>
      <point x="286.13684210526316" y="605.6315789473684"/>
      <point x="287.41052631578947" y="642.4315789473684" type="curve"/>
      <point x="235.97894736842105" y="649.1684210526316" type="line"/>
      <point x="237.5263157894737" y="609.0842105263158"/>
      <point x="238.07368421052632" y="595.7052631578948"/>
      <point x="239.62105263157895" y="554.1684210526316" type="curve"/>
      <point x="239.62105263157895" y="458.1684210526316" type="line"/>
      <point x="238.34736842105264" y="415.3578947368421"/>
      <point x="238.07368421052632" y="404.5263157894737"/>
    </contour>
    <contour>
      <point x="340.18947368421055" y="292.7157894736842" type="curve"/>
      <point x="201.25263157894736" y="295.53684210526313"/>
      <point x="129.37894736842102" y="377.2842105263158"/>
      <point x="129.37894736842102" y="500.0736842105263" type="curve" smooth="yes"/>
      <point x="129.37894736842102" y="623.9684210526316"/>
      <point x="204.0736842105263" y="704.8842105263158"/>
      <point x="338.3684210526316" y="707.7052631578947" type="curve"/>
      <point x="473.2105263157895" y="704.8842105263158"/>
      <point x="546.2736842105263" y="624.6"/>
      <point x="546.2736842105263" y="500.34736842105264" type="curve" smooth="yes"/>
      <point x="546.2736842105263" y="374.90526315789475"/>
      <point x="471.021052631579" y="295.53684210526313"/>
    </contour>
    <contour>
      <point x="407.5052631578948" y="364.1684210526316" type="curve"/>
      <point x="469.2105263157895" y="364.1684210526316" type="line"/>
      <point x="450.7578947368421" y="387.2631578947368"/>
      <point x="426.22105263157897" y="418.1684210526316"/>
      <point x="403.58947368421053" y="446.7157894736842" type="curve"/>
      <point x="360.87368421052633" y="503.2631578947368" type="line"/>
      <point x="343.7578947368421" y="484.70526315789476" type="line"/>
      <point x="414.5789473684211" y="484.70526315789476"/>
      <point x="440.7578947368421" y="522.978947368421"/>
      <point x="440.7578947368421" y="569.8" type="curve" smooth="yes"/>
      <point x="440.7578947368421" y="626.6210526315789"/>
      <point x="401.7578947368421" y="650.7157894736843"/>
      <point x="339.46315789473687" y="650.7157894736843" type="curve"/>
      <point x="296.4526315789474" y="650.7157894736843"/>
      <point x="262.2631578947369" y="649.1684210526316"/>
      <point x="235.97894736842105" y="649.1684210526316" type="curve"/>
      <point x="269.8421052631579" y="611.2210526315789" type="line"/>
      <point x="337.64210526315793" y="611.2210526315789" type="line" smooth="yes"/>
      <point x="358.8105263157895" y="611.2210526315789"/>
      <point x="394.5157894736842" y="609.4947368421052"/>
      <point x="394.5157894736842" y="566.5157894736842" type="curve" smooth="yes"/>
      <point x="394.5157894736842" y="526.2631578947369"/>
      <point x="367.1684210526316" y="513.9052631578948"/>
      <point x="326.5578947368421" y="513.9052631578948" type="curve" smooth="yes"/>
      <point x="275.4842105263158" y="513.9052631578948" type="line"/>
      <point x="275.4842105263158" y="480.5157894736842" type="line"/>
      <point x="341.5789473684211" y="480.5157894736842" type="line"/>
      <point x="314.0" y="497.9894736842105" type="line"/>
      <point x="361.34736842105264" y="433.4421052631579" type="line"/>
      <point x="376.15789473684214" y="411.1684210526316"/>
      <point x="389.96842105263164" y="390.4421052631579"/>
    </contour>
  </outline>
</glyph>
<glyph name="plusminus" format="2">
  <advance width="568.2105263157895"/>
  <unicode hex="00B1"/>
  <outline>
    <contour>
      <point x="8.242105263157896" y="-3.642105263157895" type="line"/>
      <point x="71.16842105263159" y="-2.094736842105263"/>
      <point x="140.6315789473684" y="-0.5473684210526316"/>
      <point x="181.92631578947368" y="0.0" type="curve"/>
      <point x="280.2842105263158" y="0.0" type="line"/>
      <point x="321.0315789473684" y="-0.5473684210526316"/>
      <point x="390.4947368421053" y="-2.094736842105263"/>
      <point x="452.87368421052633" y="-3.642105263157895" type="curve"/>
      <point x="470.0" y="77.43157894736842" type="line"/>
      <point x="407.0736842105263" y="75.88421052631578"/>
      <point x="337.33684210526314" y="74.33684210526316"/>
      <point x="296.3157894736842" y="73.78947368421052" type="curve"/>
      <point x="197.9578947368421" y="73.78947368421052" type="line"/>
      <point x="156.93684210526314" y="74.33684210526316"/>
      <point x="87.74736842105264" y="75.88421052631578"/>
      <point x="25.36842105263158" y="77.43157894736842" type="curve"/>
    </contour>
    <contour>
      <point x="84.33684210526316" y="355.10526315789474" type="line"/>
      <point x="147.26315789473682" y="356.65263157894736"/>
      <point x="217.72631578947366" y="358.2"/>
      <point x="258.7473684210526" y="358.7473684210526" type="curve"/>
      <point x="357.10526315789474" y="358.7473684210526" type="line"/>
      <point x="398.12631578947367" y="358.2"/>
      <point x="466.58947368421053" y="356.65263157894736"/>
      <point x="528.9684210526316" y="355.10526315789474" type="curve"/>
      <point x="546.0947368421052" y="436.17894736842106" type="line"/>
      <point x="483.4421052631579" y="434.63157894736844"/>
      <point x="413.7052631578947" y="433.0842105263158"/>
      <point x="372.6842105263158" y="432.5368421052632" type="curve"/>
      <point x="274.32631578947365" y="432.5368421052632" type="line"/>
      <point x="233.30526315789473" y="433.0842105263158"/>
      <point x="164.1157894736842" y="434.63157894736844"/>
      <point x="101.46315789473684" y="436.17894736842106" type="curve"/>
    </contour>
    <contour>
      <point x="223.39999999999998" y="161.53684210526316" type="curve"/>
      <point x="307.1157894736842" y="161.53684210526316" type="line"/>
      <point x="319.3894736842105" y="225.6421052631579"/>
      <point x="332.38947368421054" y="293.6526315789474"/>
      <point x="340.2105263157895" y="334.6736842105263" type="curve"/>
      <point x="366.37894736842105" y="456.61052631578946" type="line"/>
      <point x="376.0210526315789" y="497.6315789473684"/>
      <point x="392.1157894736842" y="567.0947368421052"/>
      <point x="406.75789473684205" y="629.7473684210527" type="curve"/>
      <point x="323.0421052631579" y="629.7473684210527" type="line"/>
      <point x="311.4947368421053" y="567.8210526315789"/>
      <point x="297.7684210526316" y="496.9052631578947"/>
      <point x="289.94736842105266" y="456.61052631578946" type="curve"/>
      <point x="263.7789473684211" y="334.6736842105263" type="line"/>
      <point x="254.86315789473684" y="294.3789473684211"/>
      <point x="238.7684210526316" y="224.9157894736842"/>
    </contour>
  </outline>
</glyph>
